<svg width="91" height="39" viewBox="0 0 91 39" fill="none" xmlns="http://www.w3.org/2000/svg">
<path d="M87.1838 20.457H3.69629V21.0661H87.1838V20.457Z" fill="url(#paint0_linear_523_5344)"/>
<path d="M87.1838 20.457H3.69629V21.0661H87.1838V20.457Z" fill="url(#paint1_linear_523_5344)"/>
<path d="M3.84375 7.20117V7.80975H41.1146L39.9741 7.20117H3.84375ZM50.9051 7.20117L49.765 7.80975H87.1785V7.20117H50.9051Z" fill="url(#paint2_linear_523_5344)"/>
<path d="M39.4319 33.0641C39.0114 32.9673 38.6014 32.732 38.2359 32.5032C38.4193 32.3739 38.6142 32.2629 38.8233 32.1771C40.1084 31.6584 40.7945 32.0978 40.8256 32.5371C40.8467 32.8348 40.5679 33.1319 39.9717 33.1319C39.8139 33.1319 39.6342 33.1113 39.4319 33.0641ZM50.0524 32.5371C50.0841 32.0978 50.7706 31.6584 52.057 32.1771C52.2639 32.2629 52.4611 32.3743 52.6422 32.5032C52.2776 32.732 51.8667 32.9668 51.4457 33.0641C51.2435 33.1113 51.0637 33.1319 50.9059 33.1319C50.3097 33.1319 50.0309 32.8348 50.0524 32.5371ZM32.3097 33.4277C30.1028 33.3732 29.8148 31.1847 31.7066 30.4839C33.0109 29.9946 34.7949 30.8902 35.88 31.5873C35.7291 31.6896 35.5777 31.7937 35.4269 31.8996C34.7137 32.3959 33.231 33.4287 32.3432 33.4287C32.3321 33.4282 32.3211 33.4282 32.3097 33.4277ZM55.4503 31.8996C55.3008 31.7937 55.1494 31.6896 54.9976 31.5873C56.0818 30.8902 57.8676 29.995 59.1719 30.4839C61.0646 31.1851 60.7748 33.3732 58.5679 33.4277C58.5569 33.4282 58.5459 33.4282 58.5345 33.4282C57.6475 33.4282 56.1662 32.3954 55.4503 31.8996ZM54.5166 31.2769L54.5074 31.2723C53.5723 30.7114 52.501 30.2308 51.4058 30.0657C50.6707 29.9556 49.8809 29.9849 49.1967 30.2885C48.4235 30.6334 47.7842 31.3557 47.8355 32.2138C47.9011 33.2778 48.8229 34.2477 50.3794 34.2253C50.5931 34.2188 50.5675 34.0487 50.3987 34.0515C48.4794 34.1661 47.3269 31.7029 49.2462 30.7458C49.847 30.4784 50.6046 30.4784 51.2471 30.5766C52.224 30.7242 53.1829 31.1205 54.0332 31.6006C53.8832 31.7006 53.7323 31.8006 53.5801 31.9006L53.3531 32.0505C52.7078 31.7079 52.0529 31.4754 51.3778 31.4617C50.9853 31.4218 50.5918 31.4846 50.2469 31.7286C50.0084 31.8974 49.8355 32.1372 49.8034 32.4229C49.7961 32.4761 49.7988 32.5298 49.7988 32.5834V32.5899L49.8034 32.6247V32.6275C49.8406 32.9833 50.0488 33.2475 50.3726 33.408C51.2893 33.8675 52.2703 33.3044 53.0508 32.8586C53.9286 33.8015 53.9626 35.6497 52.7578 36.4592C51.8213 37.0875 50.5973 36.8921 49.5993 36.4949C48.0286 35.8703 46.8614 34.3885 45.708 33.2012L46.6518 32.228L45.4388 30.9783L44.2262 32.228L45.1705 33.2012C44.0171 34.3885 42.8499 35.8703 41.2801 36.4949C40.2799 36.8921 39.0559 37.0875 38.1194 36.4592C36.916 35.6497 36.9499 33.8015 37.8281 32.8586C38.6087 33.3048 39.5888 33.8675 40.5051 33.408C40.8279 33.2475 41.0384 32.9833 41.0756 32.6275L41.077 32.6247L41.0792 32.5899V32.5834C41.0792 32.5298 41.0815 32.4761 41.0756 32.4229C41.0416 32.1372 40.8697 31.8974 40.6303 31.7286C40.2868 31.4846 39.8937 31.4218 39.5016 31.4617C38.8256 31.4754 38.1707 31.7079 37.5259 32.0505L37.2971 31.9006C37.1462 31.8006 36.9953 31.7006 36.844 31.6006C37.6956 31.12 38.6546 30.7242 39.6314 30.5766C40.2735 30.4789 41.0297 30.4789 41.6328 30.7458C43.5516 31.7024 42.3982 34.1661 40.4794 34.0515C40.3097 34.0492 40.284 34.2188 40.4977 34.2253C42.0543 34.2477 42.9788 33.2778 43.0412 32.2138C43.0935 31.3557 42.4532 30.6334 41.6809 30.2885C40.9967 29.9849 40.207 29.9551 39.4732 30.0657C38.3766 30.2308 37.3058 30.7114 36.3711 31.2723L36.362 31.2769C33.3489 29.1429 31.1705 29.752 28.854 30.3615C26.7091 30.9256 24.4459 31.4901 21.292 29.8749C24.7297 33.1017 28.8715 30.954 30.7123 30.5674C30.5555 30.7325 30.428 30.9223 30.3358 31.1393C30.1363 31.6103 30.1418 32.145 30.3569 32.61C30.7376 33.4387 31.6121 33.8033 32.5092 33.8309C33.5709 33.8634 34.8958 32.9054 35.7401 32.3184C35.9423 32.1771 36.1446 32.0349 36.351 31.9006C36.5647 32.0432 36.7784 32.1858 36.9944 32.3275L37.0178 32.3413C34.3138 34.0038 31.7543 37.1141 28.5995 33.4401C29.2462 35.4842 31.3911 36.0859 32.8036 35.7144C34.4995 35.2682 35.7561 33.913 37.1476 32.8559C35.675 34.8756 36.9655 37.4204 39.5356 37.3755C40.2024 37.3635 40.8642 37.1535 41.4475 36.9196C42.8921 36.339 44.3767 34.7073 45.4384 33.5007C46.501 34.7073 47.9855 36.339 49.4306 36.9196C50.0125 37.1535 50.6766 37.3635 51.3411 37.3755C53.9121 37.4204 55.2022 34.8756 53.731 32.8559C55.1219 33.913 56.3781 35.2682 58.0726 35.7144C59.4847 36.0863 61.631 35.4842 62.2763 33.4401C59.1219 37.1141 56.5624 34.0033 53.8598 32.3413L53.8832 32.3275C54.0983 32.1858 54.3125 32.0432 54.5267 31.9006C54.7321 32.0349 54.9353 32.1771 55.1389 32.3184C55.9818 32.9054 57.3081 33.8634 58.3675 33.8309C59.2659 33.8029 60.1401 33.4383 60.5212 32.61C60.7349 32.1445 60.7422 31.6098 60.5418 31.1393C60.4501 30.9228 60.3221 30.7325 60.1662 30.5674C62.0052 30.954 66.1483 33.1017 69.587 29.8749C66.4327 31.4901 64.1694 30.926 62.024 30.3615C60.9325 30.0744 59.8713 29.7873 58.7395 29.7873C57.4696 29.7873 56.1098 30.1487 54.5166 31.2769Z" fill="url(#paint3_linear_523_5344)"/>
<path d="M43.6191 5.18651L45.4398 6.22252L47.261 5.18651L45.4398 4.15234L43.6191 5.18651Z" fill="url(#paint4_linear_523_5344)"/>
<path d="M57.7942 1.50067C57.6882 1.48554 57.5818 1.47866 57.475 1.47866C56.6582 1.47866 55.8254 1.89324 55.1714 2.33351C54.0198 3.10948 50.3908 5.21359 49.2016 5.9304C48.3101 6.46698 47.4094 6.99988 46.5004 7.50986L45.4387 6.90724L44.377 7.50986C43.469 6.99988 42.5687 6.46698 41.6781 5.9304C40.4866 5.21359 36.8581 3.10948 35.7061 2.33351C34.9686 1.83592 34.0009 1.37043 33.0833 1.50067C32.045 1.64559 31.3396 2.59675 31.4873 3.63322C31.6175 4.55044 32.4513 5.2911 33.3548 5.32595C34.1876 5.35622 35.0296 4.73388 35.385 4.08128C35.5281 3.83042 35.4676 3.763 35.2552 3.97213C34.8136 4.40643 33.9812 4.60364 33.3502 4.52934C32.981 4.48623 32.6022 4.33076 32.3279 4.07623C31.457 3.26495 32.0005 2.12989 33.1502 2.1441C33.8913 2.15236 34.6857 2.55089 35.2906 2.95218C36.46 3.72861 40.0886 5.8451 41.292 6.56879C42.061 7.03107 42.837 7.49335 43.6222 7.93912L43.6176 7.94187L45.4387 8.9765L47.2599 7.94187L47.2567 7.93912C48.0409 7.49335 48.8173 7.03107 49.5864 6.56879C50.7889 5.8451 54.4179 3.72815 55.5873 2.95218C56.1918 2.55089 56.9861 2.1519 57.7281 2.1441C58.877 2.12989 59.4199 3.26495 58.5504 4.07623C58.2775 4.33076 57.8978 4.48669 57.5291 4.52934C56.8976 4.60364 56.0638 4.40643 55.6222 3.97213C55.4108 3.763 55.3507 3.83042 55.4947 4.08128C55.8487 4.73388 56.6908 5.35622 57.5222 5.32595C58.4289 5.2911 59.2613 4.54998 59.3915 3.63322C59.5383 2.59675 58.8329 1.64605 57.7942 1.50067Z" fill="url(#paint5_linear_523_5344)"/>
<path d="M27.9488 11.6881V11.8445L28.8977 12.1674V15.3075L25.6402 11.6877H23.8695V11.8441L24.5936 12.1669V16.6769L23.8695 16.9998V17.1663H26.1392V16.9998L25.1903 16.6673V13.2236L28.8 17.2052H29.4944V12.1679L30.2084 11.845V11.6886H27.9488V11.6881ZM33.1536 12.1871H33.4861C34.197 12.1871 34.7317 12.3811 35.0903 12.7691C35.449 13.1571 35.6283 13.7065 35.6283 14.4178C35.6283 15.1158 35.454 15.6652 35.105 16.0661C34.756 16.4673 34.2488 16.6678 33.5838 16.6678H33.1532V12.1871H33.1536ZM31.0013 11.6881V11.8445L31.7255 12.1674V16.687L31.0013 17.0099V17.1663H33.8874C34.5267 17.1663 35.0871 17.0392 35.57 16.7847C36.0525 16.5302 36.429 16.178 36.7001 15.7281C36.9706 15.2782 37.1059 14.7595 37.1059 14.1724C37.1059 13.69 36.9821 13.2626 36.734 12.8911C36.4859 12.5192 36.1277 12.2256 35.6581 12.0106C35.1885 11.7955 34.6175 11.6877 33.9461 11.6877H31.0013V11.6881ZM47.2995 11.6881V11.8445L48.0232 12.1674V16.687L47.2995 17.0099V17.1663H52.2594V15.4052H52.103L51.4279 16.6673H49.4518V14.5641H50.7139L51.1637 15.2584H51.3105V13.3997H51.1637L50.7139 14.1041H49.4518V12.1867H51.2321L51.8682 13.1552H52.0246V11.6877H47.2995V11.6881ZM53.1986 11.6881V11.8445L53.9228 12.1674V16.687L53.1986 17.0099V17.1663H58.0411V15.0727H57.8847L57.1509 16.6673H55.3509V12.1679L56.153 11.845V11.6886H53.1986V11.6881ZM58.9409 11.6881V11.8445L59.665 12.1674V16.687L58.9409 17.0099V17.1663H63.7834V15.0727H63.627L62.8932 16.6673H61.0931V12.1679L61.8953 11.845V11.6886H58.9409V11.6881ZM77.5871 11.6881V11.8445L78.2328 12.1674V16.687L77.5871 17.0099V17.1663H80.3654V17.0099L79.6609 16.687V12.1679L80.3654 11.845V11.6886H77.5871V11.6881ZM19.6727 13.0089L20.4551 14.8773H18.9L19.6727 13.0089ZM13.3333 12.1385H13.6071C14.3051 12.1385 14.6541 12.4779 14.6541 13.1557C14.6541 13.4754 14.5711 13.7313 14.4047 13.9234C14.2382 14.116 13.9823 14.2119 13.6369 14.2119H13.3338V12.1385H13.3333ZM19.6924 11.6395L17.5108 16.7265L17.071 16.9769L16.5033 16.6971L14.9967 14.3004C15.7273 14.0459 16.0923 13.6189 16.0923 13.019C16.0923 12.6081 15.9213 12.2839 15.5787 12.0459C15.2366 11.8078 14.7683 11.6886 14.1749 11.6886H11.1815V11.845L11.9057 12.1679V16.6875L11.1815 17.0103V17.1667H13.9598V17.0103L13.3338 16.6778V14.6719H13.6956L15.1141 17.1663H17.0119H18.8316V17.0099L18.1368 16.7164L18.6945 15.3763H20.6707L21.2283 16.7164L20.534 17.0099V17.1663H23.2733V17.0099L22.667 16.6673L20.5244 11.6391H19.6924V11.6395ZM66.9826 13.0089L67.765 14.8773H66.2094L66.9826 13.0089ZM67.0019 11.6395L64.8203 16.7265L64.3213 17.0103V17.1667H66.1411V17.0103L65.4463 16.7168L66.004 15.3768H67.9801L68.5378 16.7168L67.8435 17.0103V17.1667H70.5827V17.0103L69.9764 16.6678L67.8338 11.6395H67.0019ZM73.0184 11.7909C72.6272 11.9312 72.2814 12.1335 71.9815 12.3976C71.6816 12.6618 71.4468 12.975 71.2771 13.3369C71.1074 13.6987 71.0225 14.0986 71.0225 14.5352C71.0225 15.0764 71.1546 15.5524 71.4188 15.9633C71.6829 16.3742 72.0384 16.6939 72.4851 16.9223C72.9317 17.1507 73.4321 17.2649 73.9866 17.2649C74.2668 17.2649 74.5474 17.2355 74.8276 17.1768C75.1079 17.1181 75.3706 17.0365 75.6151 16.9324C75.8595 16.8283 76.0604 16.7072 76.2168 16.5705V15.2107L76.8428 14.8195V14.6728H74.0741V14.8195L74.8176 15.2011V16.698C74.6414 16.737 74.4653 16.7567 74.2892 16.7567C73.7086 16.7567 73.2587 16.5398 72.9391 16.106C72.6194 15.6721 72.4598 15.1002 72.4598 14.3889C72.4598 13.9326 72.5346 13.5299 72.685 13.1809C72.835 12.8319 73.0519 12.5581 73.3358 12.3591C73.6197 12.1601 73.9604 12.0605 74.358 12.0605C74.547 12.0605 74.7116 12.0816 74.8519 12.1243C74.9923 12.1669 75.1505 12.2435 75.3266 12.3541L76.0407 13.4497H76.2071L76.1191 11.9821C75.8779 11.8711 75.6183 11.7767 75.3413 11.6982C75.0638 11.6198 74.707 11.5808 74.27 11.5808C73.8274 11.5808 73.4101 11.651 73.0184 11.7909ZM83.5353 16.4233C83.2941 16.2018 83.1047 15.895 82.968 15.5038C82.8309 15.1126 82.7625 14.6659 82.7625 14.1637C82.7625 13.7528 82.8194 13.391 82.9336 13.0777C83.0478 12.7645 83.2074 12.5201 83.4129 12.344C83.6183 12.1679 83.8582 12.0798 84.132 12.0798C84.4383 12.0798 84.7107 12.1908 84.9487 12.4123C85.1868 12.6343 85.3725 12.9392 85.5064 13.3272C85.6399 13.7152 85.7068 14.1605 85.7068 14.6627C85.7068 15.2759 85.5876 15.778 85.3496 16.1692C85.1115 16.5604 84.7836 16.7563 84.3663 16.7563C84.0535 16.7558 83.7765 16.6448 83.5353 16.4233ZM82.7084 11.9427C82.2682 12.1908 81.921 12.5297 81.6665 12.9599C81.4119 13.3905 81.2849 13.8762 81.2849 14.4178C81.2849 14.9658 81.4119 15.4533 81.6665 15.8803C81.921 16.3077 82.2682 16.6453 82.7084 16.8929C83.1487 17.141 83.6555 17.2649 84.2296 17.2649C84.8034 17.2649 85.312 17.141 85.7559 16.8929C86.1994 16.6453 86.5484 16.3077 86.8024 15.8803C87.057 15.4533 87.184 14.9658 87.184 14.4178C87.184 13.8766 87.057 13.3905 86.8024 12.9599C86.5479 12.5292 86.1994 12.1903 85.7559 11.9427C85.3124 11.695 84.8038 11.5707 84.2296 11.5707C83.6559 11.5707 83.1487 11.695 82.7084 11.9427ZM42.7404 14.0752H43.4155C43.9305 14.0752 44.3268 14.1779 44.6042 14.3834C44.8812 14.5889 45.0202 14.9067 45.0202 15.3373C45.0202 15.7157 44.8849 16.0257 44.6143 16.2669C44.3437 16.5082 43.9668 16.6288 43.4843 16.6288H42.7409V14.0752H42.7404ZM42.7404 11.2479H43.0729C44.025 11.2479 44.501 11.6492 44.501 12.4513C44.501 12.8035 44.3804 13.0823 44.1392 13.2878C43.898 13.4932 43.5618 13.596 43.1316 13.596H42.7404V11.2479ZM40.4318 10.7099V10.8663L41.2632 11.2676V16.6091L40.4318 17.0103V17.1667H43.7971C44.3318 17.1667 44.8097 17.0851 45.2302 16.9223C45.6508 16.7595 45.9819 16.5357 46.2231 16.2522C46.4644 15.9684 46.585 15.6473 46.585 15.2887C46.585 14.8581 46.4038 14.5013 46.042 14.2174C45.6801 13.9335 45.1825 13.7496 44.5501 13.6648C45.0197 13.5538 45.3797 13.3584 45.6311 13.0777C45.8819 12.7975 46.0076 12.4907 46.0076 12.1582C46.0076 11.8322 45.9016 11.5629 45.6898 11.3511C45.4779 11.1392 45.1876 10.9791 44.8193 10.8718C44.4506 10.764 44.0319 10.7104 43.5623 10.7104H40.4318V10.7099ZM6.13314 10.8663C5.68966 11.036 5.2948 11.2772 4.94946 11.5905C4.60367 11.9037 4.33309 12.2706 4.13726 12.6911C3.94143 13.1117 3.84375 13.573 3.84375 14.0752C3.84375 14.532 3.92997 14.9544 4.10287 15.3419C4.27576 15.7299 4.51699 16.0674 4.82701 16.3545C5.13658 16.6416 5.49567 16.865 5.90337 17.0246C6.31108 17.1841 6.74951 17.2644 7.21913 17.2644C7.49934 17.2644 7.79469 17.23 8.10471 17.1617C8.41427 17.0933 8.71145 16.9989 8.99487 16.8778C9.27876 16.7572 9.52136 16.6123 9.72361 16.4426V14.8576L10.4574 14.388V14.2316H7.38561V14.388L8.25605 14.848V16.6577C8.12535 16.6838 7.9951 16.7017 7.86486 16.7113C7.73415 16.721 7.61354 16.726 7.50301 16.726C7.10494 16.726 6.74493 16.6118 6.42206 16.3834C6.0992 16.155 5.8433 15.8308 5.65435 15.4098C5.46494 14.9892 5.37047 14.4852 5.37047 13.8982C5.37047 13.3373 5.46815 12.8466 5.66398 12.4261C5.85981 12.0055 6.12351 11.6776 6.45646 11.4428C6.78895 11.208 7.16089 11.0906 7.5718 11.0906C7.78047 11.0906 7.96621 11.1117 8.12947 11.1543C8.29228 11.197 8.46197 11.2736 8.63807 11.3841L9.57731 12.8026H9.75342L9.64564 11.0809C9.45624 10.9897 9.26546 10.908 9.0733 10.8365C8.88068 10.765 8.66238 10.7095 8.41794 10.67C8.1735 10.631 7.87816 10.6113 7.53236 10.6113C7.04302 10.6122 6.57662 10.6971 6.13314 10.8663Z" fill="url(#paint6_linear_523_5344)"/>
<path d="M27.9488 11.6881V11.8445L28.8977 12.1674V15.3075L25.6402 11.6877H23.8695V11.8441L24.5936 12.1669V16.6769L23.8695 16.9998V17.1663H26.1392V16.9998L25.1903 16.6673V13.2236L28.8 17.2052H29.4944V12.1679L30.2084 11.845V11.6886H27.9488V11.6881ZM33.1536 12.1871H33.4861C34.197 12.1871 34.7317 12.3811 35.0903 12.7691C35.449 13.1571 35.6283 13.7065 35.6283 14.4178C35.6283 15.1158 35.454 15.6652 35.105 16.0661C34.756 16.4673 34.2488 16.6678 33.5838 16.6678H33.1532V12.1871H33.1536ZM31.0013 11.6881V11.8445L31.7255 12.1674V16.687L31.0013 17.0099V17.1663H33.8874C34.5267 17.1663 35.0871 17.0392 35.57 16.7847C36.0525 16.5302 36.429 16.178 36.7001 15.7281C36.9706 15.2782 37.1059 14.7595 37.1059 14.1724C37.1059 13.69 36.9821 13.2626 36.734 12.8911C36.4859 12.5192 36.1277 12.2256 35.6581 12.0106C35.1885 11.7955 34.6175 11.6877 33.9461 11.6877H31.0013V11.6881ZM47.2995 11.6881V11.8445L48.0232 12.1674V16.687L47.2995 17.0099V17.1663H52.2594V15.4052H52.103L51.4279 16.6673H49.4518V14.5641H50.7139L51.1637 15.2584H51.3105V13.3997H51.1637L50.7139 14.1041H49.4518V12.1867H51.2321L51.8682 13.1552H52.0246V11.6877H47.2995V11.6881ZM53.1986 11.6881V11.8445L53.9228 12.1674V16.687L53.1986 17.0099V17.1663H58.0411V15.0727H57.8847L57.1509 16.6673H55.3509V12.1679L56.153 11.845V11.6886H53.1986V11.6881ZM58.9409 11.6881V11.8445L59.665 12.1674V16.687L58.9409 17.0099V17.1663H63.7834V15.0727H63.627L62.8932 16.6673H61.0931V12.1679L61.8953 11.845V11.6886H58.9409V11.6881ZM77.5871 11.6881V11.8445L78.2328 12.1674V16.687L77.5871 17.0099V17.1663H80.3654V17.0099L79.6609 16.687V12.1679L80.3654 11.845V11.6886H77.5871V11.6881ZM19.6727 13.0089L20.4551 14.8773H18.9L19.6727 13.0089ZM13.3333 12.1385H13.6071C14.3051 12.1385 14.6541 12.4779 14.6541 13.1557C14.6541 13.4754 14.5711 13.7313 14.4047 13.9234C14.2382 14.116 13.9823 14.2119 13.6369 14.2119H13.3338V12.1385H13.3333ZM19.6924 11.6395L17.5108 16.7265L17.071 16.9764L16.5033 16.6971L14.9967 14.3004C15.7273 14.0459 16.0923 13.6189 16.0923 13.019C16.0923 12.6081 15.9213 12.2839 15.5787 12.0459C15.2366 11.8078 14.7683 11.6886 14.1749 11.6886H11.1815V11.845L11.9057 12.1679V16.6875L11.1815 17.0103V17.1667H13.9598V17.0103L13.3338 16.6778V14.6719H13.6956L15.1141 17.1663H17.0119H18.8316V17.0099L18.1368 16.7164L18.6945 15.3763H20.6707L21.2283 16.7164L20.534 17.0099V17.1663H23.2733V17.0099L22.667 16.6673L20.5244 11.6391H19.6924V11.6395ZM66.9826 13.0089L67.765 14.8773H66.2094L66.9826 13.0089ZM67.0019 11.6395L64.8203 16.7265L64.3213 17.0103V17.1667H66.1411V17.0103L65.4463 16.7168L66.004 15.3768H67.9801L68.5378 16.7168L67.8435 17.0103V17.1667H70.5827V17.0103L69.9764 16.6678L67.8338 11.6395H67.0019ZM73.0184 11.7909C72.6272 11.9312 72.2814 12.1335 71.9815 12.3976C71.6816 12.6618 71.4468 12.975 71.2771 13.3369C71.1074 13.6987 71.0225 14.0986 71.0225 14.5352C71.0225 15.0764 71.1546 15.5524 71.4188 15.9633C71.6829 16.3742 72.0384 16.6939 72.4851 16.9223C72.9317 17.1507 73.4321 17.2649 73.9866 17.2649C74.2668 17.2649 74.5474 17.2355 74.8276 17.1768C75.1079 17.1181 75.3706 17.0365 75.6151 16.9324C75.8595 16.8283 76.0604 16.7072 76.2168 16.5705V15.2107L76.8428 14.8195V14.6728H74.0741V14.8195L74.8176 15.2011V16.698C74.6414 16.737 74.4653 16.7567 74.2892 16.7567C73.7086 16.7567 73.2587 16.5398 72.9391 16.106C72.6194 15.6721 72.4598 15.1002 72.4598 14.3889C72.4598 13.9326 72.5346 13.5299 72.685 13.1809C72.835 12.8319 73.0519 12.5581 73.3358 12.3591C73.6197 12.1601 73.9604 12.0605 74.358 12.0605C74.547 12.0605 74.7116 12.0816 74.8519 12.1243C74.9923 12.1669 75.1505 12.2435 75.3266 12.3541L76.0407 13.4497H76.2071L76.1191 11.9821C75.8779 11.8711 75.6183 11.7767 75.3413 11.6982C75.0638 11.6198 74.707 11.5808 74.27 11.5808C73.8274 11.5808 73.4101 11.651 73.0184 11.7909ZM83.5353 16.4233C83.2941 16.2018 83.1047 15.895 82.968 15.5038C82.8309 15.1126 82.7625 14.6659 82.7625 14.1637C82.7625 13.7528 82.8194 13.391 82.9336 13.0777C83.0478 12.7645 83.2074 12.5201 83.4129 12.344C83.6183 12.1679 83.8582 12.0798 84.132 12.0798C84.4383 12.0798 84.7107 12.1908 84.9487 12.4123C85.1868 12.6343 85.3725 12.9392 85.5064 13.3272C85.6399 13.7152 85.7068 14.1605 85.7068 14.6627C85.7068 15.2759 85.5876 15.778 85.3496 16.1692C85.1115 16.5604 84.7836 16.7563 84.3663 16.7563C84.0535 16.7558 83.7765 16.6448 83.5353 16.4233ZM82.7084 11.9427C82.2682 12.1908 81.921 12.5297 81.6665 12.9599C81.4119 13.3905 81.2849 13.8762 81.2849 14.4178C81.2849 14.9658 81.4119 15.4533 81.6665 15.8803C81.921 16.3077 82.2682 16.6453 82.7084 16.8929C83.1487 17.141 83.6555 17.2649 84.2296 17.2649C84.8034 17.2649 85.312 17.141 85.7559 16.8929C86.1994 16.6453 86.5484 16.3077 86.8024 15.8803C87.057 15.4533 87.184 14.9658 87.184 14.4178C87.184 13.8766 87.057 13.3905 86.8024 12.9599C86.5479 12.5292 86.1994 12.1903 85.7559 11.9427C85.3124 11.695 84.8038 11.5707 84.2296 11.5707C83.6559 11.5707 83.1487 11.695 82.7084 11.9427ZM42.7404 14.0752H43.4155C43.9305 14.0752 44.3268 14.1779 44.6042 14.3834C44.8812 14.5889 45.0202 14.9067 45.0202 15.3373C45.0202 15.7157 44.8849 16.0257 44.6143 16.2669C44.3437 16.5082 43.9668 16.6288 43.4843 16.6288H42.7409V14.0752H42.7404ZM42.7404 11.2479H43.0729C44.025 11.2479 44.501 11.6492 44.501 12.4513C44.501 12.8035 44.3804 13.0823 44.1392 13.2878C43.898 13.4932 43.5618 13.596 43.1316 13.596H42.7404V11.2479ZM40.4318 10.7099V10.8663L41.2632 11.2676V16.6091L40.4318 17.0103V17.1667H43.7971C44.3318 17.1667 44.8097 17.0851 45.2302 16.9223C45.6508 16.7595 45.9819 16.5357 46.2231 16.2522C46.4644 15.9684 46.585 15.6473 46.585 15.2887C46.585 14.8581 46.4038 14.5013 46.042 14.2174C45.6801 13.9335 45.1825 13.7496 44.5501 13.6648C45.0197 13.5538 45.3797 13.3584 45.6311 13.0777C45.8819 12.7975 46.0076 12.4907 46.0076 12.1582C46.0076 11.8322 45.9016 11.5629 45.6898 11.3511C45.4779 11.1392 45.1876 10.9791 44.8193 10.8718C44.4506 10.764 44.0319 10.7104 43.5623 10.7104H40.4318V10.7099ZM6.13314 10.8663C5.68966 11.036 5.2948 11.2772 4.94946 11.5905C4.60367 11.9037 4.33309 12.2706 4.13726 12.6911C3.94143 13.1117 3.84375 13.573 3.84375 14.0752C3.84375 14.532 3.92997 14.9544 4.10287 15.3419C4.27576 15.7299 4.51699 16.0674 4.82701 16.3545C5.13658 16.6416 5.49567 16.865 5.90337 17.0246C6.31108 17.1841 6.74951 17.2644 7.21913 17.2644C7.49934 17.2644 7.79469 17.23 8.10471 17.1617C8.41427 17.0933 8.71145 16.9989 8.99487 16.8778C9.27876 16.7572 9.52136 16.6123 9.72361 16.4426V14.8576L10.4574 14.388V14.2316H7.38561V14.388L8.25605 14.848V16.6577C8.12535 16.6838 7.9951 16.7017 7.86486 16.7113C7.73415 16.721 7.61354 16.726 7.50301 16.726C7.10494 16.726 6.74493 16.6118 6.42206 16.3834C6.0992 16.155 5.8433 15.8308 5.65435 15.4098C5.46494 14.9892 5.37047 14.4852 5.37047 13.8982C5.37047 13.3373 5.46815 12.8466 5.66398 12.4261C5.85981 12.0055 6.12351 11.6776 6.45646 11.4428C6.78895 11.208 7.16089 11.0906 7.5718 11.0906C7.78047 11.0906 7.96621 11.1117 8.12947 11.1543C8.29228 11.197 8.46197 11.2736 8.63807 11.3841L9.57731 12.8026H9.75342L9.64564 11.0809C9.45624 10.9897 9.26546 10.908 9.0733 10.8365C8.88068 10.765 8.66238 10.7095 8.41794 10.67C8.1735 10.631 7.87816 10.6113 7.53236 10.6113C7.04302 10.6122 6.57662 10.6971 6.13314 10.8663Z" fill="url(#paint7_linear_523_5344)"/>
<path d="M29.8727 23.6053C29.7984 23.5975 29.7282 23.5938 29.6613 23.5938C28.8234 23.5938 28.5409 24.1698 28.4652 24.3689C28.3831 24.1533 28.0603 23.4993 27.0577 23.6053C26.1222 23.7782 25.8108 24.605 25.9323 25.3948C26.1254 26.6477 28.0433 27.4741 28.4487 28.2501L28.4652 28.2808L28.4817 28.2501C28.8871 27.4737 30.8046 26.6477 30.9981 25.3948C31.1201 24.6046 30.8087 23.7777 29.8727 23.6053Z" fill="url(#paint8_linear_523_5344)"/>
<path d="M23.8295 25.1702C23.6681 25.1702 23.5144 25.2019 23.3722 25.2573C23.558 25.039 23.6703 24.757 23.6703 24.4479C23.6703 23.7572 23.1108 23.1973 22.4202 23.1973C21.7295 23.1973 21.1691 23.7572 21.1691 24.4479C21.1691 24.757 21.2819 25.039 21.4672 25.2573C21.3259 25.2014 21.1718 25.1702 21.0104 25.1702C20.3197 25.1702 19.7598 25.7302 19.7598 26.4204C19.7598 27.1111 20.3193 27.671 21.0104 27.671C21.613 27.671 22.1147 27.2445 22.2335 26.6772C22.25 27.2642 22.2899 27.6353 21.6084 28.2691H23.231C22.5353 27.6206 22.5839 27.2541 22.605 26.6731C22.7192 27.2454 23.2227 27.671 23.829 27.671C24.5192 27.671 25.0797 27.1111 25.0797 26.4204C25.0797 25.7302 24.5197 25.1702 23.8295 25.1702Z" fill="url(#paint9_linear_523_5344)"/>
<path d="M16.6839 22.8965C16.2207 23.8421 15.2939 25.1033 14.5986 25.7335C15.2939 26.364 16.2207 27.6248 16.6839 28.5704C17.1471 27.6248 18.074 26.364 18.7692 25.7335C18.074 25.1033 17.1471 23.8426 16.6839 22.8965Z" fill="url(#paint10_linear_523_5344)"/>
<path d="M12.682 24.7719C12.5811 24.6925 12.477 24.61 12.3702 24.5215C11.5942 23.8767 10.9792 23.0117 10.9783 23.0117C10.9778 23.0113 10.3624 23.8767 9.58639 24.5215C9.47953 24.61 9.37542 24.6925 9.27453 24.7719C8.7508 25.1851 8.33713 25.5116 8.33208 26.1326C8.32887 26.4985 8.47425 26.8443 8.74071 27.1057C9.0067 27.3662 9.36167 27.5116 9.74048 27.5144L9.7547 27.5148C10.1519 27.5148 10.5059 27.3539 10.7724 27.0741C10.7279 27.2686 10.6912 27.5029 10.6366 27.6506C10.4289 28.2156 10.0826 28.4554 10.1055 28.4564H11.851C11.8739 28.4559 11.5277 28.2156 11.3199 27.6506C11.2658 27.5029 11.2287 27.2686 11.1846 27.0741C11.4511 27.3539 11.8051 27.5148 12.2023 27.5148L12.2165 27.5144C12.5953 27.5116 12.9503 27.3662 13.2163 27.1057C13.4827 26.8443 13.6281 26.4985 13.6249 26.1326C13.6194 25.5112 13.2057 25.1846 12.682 24.7719Z" fill="url(#paint11_linear_523_5344)"/>
<path d="M81.2194 23.6053C81.1455 23.5975 81.0749 23.5938 81.008 23.5938C80.1701 23.5938 79.8876 24.1698 79.8119 24.3689C79.7298 24.1533 79.4069 23.4993 78.4044 23.6053C77.4688 23.7782 77.1575 24.605 77.279 25.3948C77.4721 26.6477 79.39 27.4741 79.7954 28.2501L79.8119 28.2808L79.8284 28.2501C80.2338 27.4737 82.1513 26.6477 82.3448 25.3948C82.4663 24.6046 82.1549 23.7777 81.2194 23.6053Z" fill="url(#paint12_linear_523_5344)"/>
<path d="M75.1762 25.1702C75.0147 25.1702 74.8606 25.2019 74.7189 25.2573C74.9047 25.039 75.017 24.757 75.017 24.4479C75.017 23.7572 74.4575 23.1973 73.7669 23.1973C73.0762 23.1973 72.5158 23.7572 72.5158 24.4479C72.5158 24.757 72.6286 25.039 72.8139 25.2573C72.6726 25.2014 72.5185 25.1702 72.3571 25.1702C71.6664 25.1702 71.1064 25.7302 71.1064 26.4204C71.1064 27.1111 71.666 27.671 72.3571 27.671C72.9597 27.671 73.4614 27.2445 73.5802 26.6772C73.5967 27.2642 73.6366 27.6353 72.9551 28.2691H74.5777C73.8824 27.6206 73.9306 27.2541 73.9517 26.6731C74.0659 27.2454 74.5694 27.671 75.1757 27.671C75.8659 27.671 76.4263 27.1111 76.4263 26.4204C76.4268 25.7302 75.8664 25.1702 75.1762 25.1702Z" fill="url(#paint13_linear_523_5344)"/>
<path d="M68.0296 22.8965C67.5664 23.8421 66.6396 25.1033 65.9443 25.7335C66.6396 26.364 67.5664 27.6248 68.0296 28.5704C68.4933 27.6248 69.4197 26.364 70.1149 25.7335C69.4197 25.1033 68.4933 23.8426 68.0296 22.8965Z" fill="url(#paint14_linear_523_5344)"/>
<path d="M64.0277 24.7719C63.9268 24.6925 63.8223 24.61 63.7159 24.5215C62.9399 23.8767 62.3249 23.0117 62.324 23.0117C62.3235 23.0113 61.7081 23.8767 60.9321 24.5215C60.8252 24.61 60.7211 24.6925 60.6202 24.7719C60.0965 25.1851 59.6828 25.5116 59.6778 26.1326C59.6746 26.4985 59.82 26.8443 60.0864 27.1057C60.3524 27.3662 60.7074 27.5116 61.0862 27.5144L61.1004 27.5148C61.4976 27.5148 61.8516 27.3539 62.1181 27.0741C62.0736 27.2686 62.0369 27.5029 61.9823 27.6506C61.7746 28.2156 61.4283 28.4554 61.4512 28.4564H63.1967C63.2196 28.4559 62.8734 28.2156 62.6656 27.6506C62.6115 27.5029 62.5744 27.2686 62.5303 27.0741C62.7968 27.3539 63.1509 27.5148 63.548 27.5148L63.5622 27.5144C63.941 27.5116 64.296 27.3662 64.562 27.1057C64.8285 26.8443 64.9734 26.4985 64.9706 26.1326C64.9651 25.5112 64.5514 25.1846 64.0277 24.7719Z" fill="url(#paint15_linear_523_5344)"/>
<path d="M46.0453 23.7347V23.8328L46.4498 24.0351V26.8666L46.0453 27.0688V27.167H47.7857V27.0688L47.3446 26.8666V24.0351L47.7857 23.8328V23.7347H46.0453ZM50.8745 23.7347V23.8328L51.4689 24.0351V26.0025L49.428 23.7347H48.3187V23.8328L48.7722 24.0351V26.8606L48.3187 27.0628V27.167H49.7408V27.0628L49.1465 26.8546V24.6973L51.4079 27.1917H51.8431V24.0356L52.2907 23.8333V23.7352H50.8745V23.7347ZM40.2654 24.562L40.7557 25.7324H39.7811L40.2654 24.562ZM40.2778 23.704L38.9112 26.8909L38.5984 27.0688V27.167H39.7385V27.0688L39.3033 26.8849L39.6527 26.0452H40.891L41.2404 26.8849L40.8052 27.0688V27.167H42.5213V27.0688L42.1416 26.8542L40.7993 23.704H40.2778ZM43.6826 23.8145C43.4886 23.9126 43.3331 24.0424 43.2171 24.2039C43.1006 24.3653 43.0423 24.5437 43.0423 24.74C43.0423 24.9688 43.1047 25.161 43.229 25.316C43.3537 25.4715 43.5427 25.6063 43.7958 25.7205C44.0206 25.8269 44.2012 25.9136 44.3384 25.981C44.475 26.0484 44.5741 26.1158 44.6355 26.1832C44.6965 26.2506 44.7273 26.3415 44.7273 26.4561C44.7273 26.6116 44.6699 26.7281 44.5558 26.8056C44.4416 26.8831 44.2843 26.9221 44.0838 26.9221C43.8426 26.9221 43.6303 26.8629 43.4464 26.7441L43.0235 26.0883H42.9254L42.9804 26.9587C43.1437 27.0404 43.3143 27.106 43.4922 27.155C43.6702 27.2041 43.8752 27.2284 44.1081 27.2284C44.3613 27.2284 44.5911 27.1858 44.7979 27.0995C45.0043 27.0138 45.1675 26.8913 45.2882 26.7317C45.4088 26.5726 45.4688 26.3864 45.4688 26.1741C45.4688 26.0025 45.4363 25.8553 45.3707 25.7329C45.3056 25.6104 45.2033 25.4981 45.0643 25.3958C44.9254 25.2935 44.7474 25.1894 44.531 25.083C44.3553 24.9973 44.2132 24.9239 44.1049 24.8624C43.9967 24.801 43.9187 24.7391 43.872 24.6758C43.8247 24.6125 43.8013 24.5336 43.8013 24.4396C43.8013 24.2965 43.8513 24.1832 43.9513 24.0993C44.0513 24.0154 44.1834 23.9736 44.3466 23.9736C44.4365 23.9736 44.5172 23.9819 44.5888 23.9984C44.6603 24.0149 44.7309 24.0434 44.8002 24.0842L45.2478 24.74H45.3459L45.2909 23.9062C45.1561 23.8329 45.007 23.7746 44.8433 23.7315C44.68 23.6884 44.5039 23.6673 44.3164 23.6673C44.088 23.6673 43.8765 23.7164 43.6826 23.8145ZM54.2517 26.701C54.1004 26.562 53.982 26.3699 53.8963 26.125C53.8105 25.8796 53.7674 25.5999 53.7674 25.2853C53.7674 25.028 53.8032 24.801 53.8747 24.6052C53.9463 24.4089 54.0463 24.2557 54.1751 24.1456C54.304 24.0356 54.454 23.9801 54.6259 23.9801C54.8181 23.9801 54.9882 24.0498 55.1378 24.1883C55.2868 24.3272 55.4033 24.5185 55.4872 24.7615C55.5711 25.0046 55.6129 25.2834 55.6129 25.598C55.6129 25.9819 55.5381 26.2965 55.3891 26.5419C55.24 26.7868 55.0346 26.9097 54.7732 26.9097C54.5764 26.9097 54.4031 26.84 54.2517 26.701ZM53.7339 23.8943C53.4583 24.0498 53.2405 24.2621 53.0813 24.5318C52.9222 24.8014 52.8424 25.106 52.8424 25.4449C52.8424 25.7879 52.9222 26.0938 53.0813 26.3612C53.2405 26.629 53.4583 26.8404 53.7339 26.9954C54.0096 27.1509 54.3274 27.2284 54.6869 27.2284C55.0465 27.2284 55.3652 27.1509 55.6431 26.9954C55.9211 26.84 56.1394 26.6285 56.299 26.3612C56.4581 26.0938 56.5379 25.7879 56.5379 25.4449C56.5379 25.106 56.4581 24.8014 56.299 24.5318C56.1394 24.2621 55.9211 24.0498 55.6431 23.8943C55.3652 23.7393 55.0465 23.6613 54.6869 23.6613C54.3274 23.6613 54.0096 23.7388 53.7339 23.8943ZM35.8742 23.2261C35.6064 23.3366 35.3675 23.4907 35.157 23.6888C34.9465 23.887 34.78 24.1172 34.6575 24.3786C34.5351 24.64 34.4736 24.9239 34.4736 25.2307C34.4736 25.6109 34.5626 25.9507 34.7401 26.2511C34.918 26.5515 35.168 26.7895 35.4908 26.9652C35.8137 27.1408 36.1893 27.2289 36.6186 27.2289C36.9125 27.2289 37.1771 27.2004 37.4124 27.1431C37.6472 27.0858 37.8486 27.0083 38.0159 26.9101L38.1017 25.8746H37.9976L37.4459 26.696C37.3358 26.7574 37.2203 26.8074 37.0996 26.8459C36.979 26.8849 36.8433 26.9042 36.6919 26.9042C36.4548 26.9042 36.2416 26.8335 36.0517 26.6928C35.8618 26.552 35.7114 26.3515 35.6014 26.092C35.4913 25.8324 35.4358 25.5251 35.4358 25.1697C35.4358 24.8102 35.4931 24.4946 35.6073 24.2227C35.7215 23.9507 35.8779 23.7407 36.076 23.5912C36.2741 23.4421 36.4979 23.3674 36.747 23.3674C36.8735 23.3674 36.9818 23.3816 37.0717 23.41C37.1616 23.4384 37.2574 23.4857 37.3597 23.5508L37.9421 24.5006H38.0526L37.9852 23.3545C37.871 23.2972 37.7564 23.2463 37.6422 23.2013C37.528 23.1564 37.3991 23.1215 37.256 23.0972C37.1129 23.0729 36.9332 23.0605 36.7167 23.0605C36.4227 23.0605 36.1421 23.1156 35.8742 23.2261Z" fill="url(#paint16_linear_523_5344)"/>
<path d="M46.0453 23.7347V23.8328L46.4498 24.0351V26.8666L46.0453 27.0688V27.167H47.7857V27.0688L47.3446 26.8666V24.0351L47.7857 23.8328V23.7347H46.0453ZM50.8745 23.7347V23.8328L51.4689 24.0351V26.0025L49.428 23.7347H48.3187V23.8328L48.7722 24.0351V26.8606L48.3187 27.0628V27.167H49.7408V27.0628L49.1465 26.8546V24.6973L51.4079 27.1917H51.8431V24.0356L52.2907 23.8333V23.7352H50.8745V23.7347ZM40.2654 24.562L40.7557 25.7324H39.7811L40.2654 24.562ZM40.2778 23.704L38.9112 26.8909L38.5984 27.0688V27.167H39.7385V27.0688L39.3033 26.8849L39.6527 26.0452H40.891L41.2404 26.8849L40.8052 27.0688V27.167H42.5213V27.0688L42.1416 26.8542L40.7993 23.704H40.2778ZM43.6826 23.8145C43.4886 23.9126 43.3331 24.0424 43.2171 24.2039C43.1006 24.3653 43.0423 24.5437 43.0423 24.74C43.0423 24.9688 43.1047 25.161 43.229 25.316C43.3537 25.4715 43.5427 25.6063 43.7958 25.7205C44.0206 25.8269 44.2012 25.9136 44.3384 25.981C44.475 26.0484 44.5741 26.1158 44.6355 26.1832C44.6965 26.2506 44.7273 26.3415 44.7273 26.4561C44.7273 26.6116 44.6699 26.7281 44.5558 26.8056C44.4416 26.8831 44.2843 26.9221 44.0838 26.9221C43.8426 26.9221 43.6303 26.8629 43.4464 26.7441L43.0235 26.0883H42.9254L42.9804 26.9587C43.1437 27.0404 43.3143 27.106 43.4922 27.155C43.6702 27.2041 43.8752 27.2284 44.1081 27.2284C44.3613 27.2284 44.5911 27.1858 44.7979 27.0995C45.0043 27.0138 45.1675 26.8913 45.2882 26.7317C45.4088 26.5726 45.4688 26.3864 45.4688 26.1741C45.4688 26.0025 45.4363 25.8553 45.3707 25.7329C45.3056 25.6104 45.2033 25.4981 45.0643 25.3958C44.9254 25.2935 44.7474 25.1894 44.531 25.083C44.3553 24.9973 44.2132 24.9239 44.1049 24.8624C43.9967 24.801 43.9187 24.7391 43.872 24.6758C43.8247 24.6125 43.8013 24.5336 43.8013 24.4396C43.8013 24.2965 43.8513 24.1832 43.9513 24.0993C44.0513 24.0154 44.1834 23.9736 44.3466 23.9736C44.4365 23.9736 44.5172 23.9819 44.5888 23.9984C44.6603 24.0149 44.7309 24.0434 44.8002 24.0842L45.2478 24.74H45.3459L45.2909 23.9062C45.1561 23.8329 45.007 23.7746 44.8433 23.7315C44.68 23.6884 44.5039 23.6673 44.3164 23.6673C44.088 23.6673 43.8765 23.7164 43.6826 23.8145ZM54.2517 26.701C54.1004 26.562 53.982 26.3699 53.8963 26.125C53.8105 25.8796 53.7674 25.5999 53.7674 25.2853C53.7674 25.028 53.8032 24.801 53.8747 24.6052C53.9463 24.4089 54.0463 24.2557 54.1751 24.1456C54.304 24.0356 54.454 23.9801 54.6259 23.9801C54.8181 23.9801 54.9882 24.0498 55.1378 24.1883C55.2868 24.3272 55.4033 24.5185 55.4872 24.7615C55.5711 25.0046 55.6129 25.2834 55.6129 25.598C55.6129 25.9819 55.5381 26.2965 55.3891 26.5419C55.24 26.7868 55.0346 26.9097 54.7732 26.9097C54.5764 26.9097 54.4031 26.84 54.2517 26.701ZM53.7339 23.8943C53.4583 24.0498 53.2405 24.2621 53.0813 24.5318C52.9222 24.8014 52.8424 25.106 52.8424 25.4449C52.8424 25.7879 52.9222 26.0938 53.0813 26.3612C53.2405 26.629 53.4583 26.8404 53.7339 26.9954C54.0096 27.1509 54.3274 27.2284 54.6869 27.2284C55.0465 27.2284 55.3652 27.1509 55.6431 26.9954C55.9211 26.84 56.1394 26.6285 56.299 26.3612C56.4581 26.0938 56.5379 25.7879 56.5379 25.4449C56.5379 25.106 56.4581 24.8014 56.299 24.5318C56.1394 24.2621 55.9211 24.0498 55.6431 23.8943C55.3652 23.7393 55.0465 23.6613 54.6869 23.6613C54.3274 23.6613 54.0096 23.7388 53.7339 23.8943ZM35.8742 23.2261C35.6064 23.3366 35.3675 23.4907 35.157 23.6888C34.9465 23.887 34.78 24.1172 34.6575 24.3786C34.5351 24.64 34.4736 24.9239 34.4736 25.2307C34.4736 25.6109 34.5626 25.9507 34.7401 26.2511C34.918 26.5515 35.168 26.7895 35.4908 26.9652C35.8137 27.1408 36.1893 27.2289 36.6186 27.2289C36.9125 27.2289 37.1771 27.2004 37.4124 27.1431C37.6472 27.0858 37.8486 27.0083 38.0159 26.9101L38.1017 25.8746H37.9976L37.4459 26.696C37.3358 26.7574 37.2203 26.8074 37.0996 26.8459C36.979 26.8849 36.8433 26.9042 36.6919 26.9042C36.4548 26.9042 36.2416 26.8335 36.0517 26.6928C35.8618 26.552 35.7114 26.3515 35.6014 26.092C35.4913 25.8324 35.4358 25.5251 35.4358 25.1697C35.4358 24.8102 35.4931 24.4946 35.6073 24.2227C35.7215 23.9507 35.8779 23.7407 36.076 23.5912C36.2741 23.4421 36.4979 23.3674 36.747 23.3674C36.8735 23.3674 36.9818 23.3816 37.0717 23.41C37.1616 23.4384 37.2574 23.4857 37.3597 23.5508L37.9421 24.5006H38.0526L37.9852 23.3545C37.871 23.2972 37.7564 23.2463 37.6422 23.2013C37.528 23.1564 37.3991 23.1215 37.256 23.0972C37.1129 23.0729 36.9332 23.0605 36.7167 23.0605C36.4227 23.0605 36.1421 23.1156 35.8742 23.2261Z" fill="url(#paint17_linear_523_5344)"/>
<defs>
<linearGradient id="paint0_linear_523_5344" x1="3.69814" y1="20.7573" x2="87.1864" y2="20.7573" gradientUnits="userSpaceOnUse">
<stop stop-color="#C89135"/>
<stop offset="0.1131" stop-color="#FCC456"/>
<stop offset="0.2624" stop-color="#BF862C"/>
<stop offset="0.4796" stop-color="#FCC456"/>
<stop offset="0.7014" stop-color="#FFD382"/>
<stop offset="0.8371" stop-color="#FCC456"/>
<stop offset="1" stop-color="#815F26"/>
</linearGradient>
<linearGradient id="paint1_linear_523_5344" x1="3.69626" y1="20.7617" x2="87.1839" y2="20.7617" gradientUnits="userSpaceOnUse">
<stop stop-color="#C89135"/>
<stop offset="0.1131" stop-color="#FCC456"/>
<stop offset="0.2624" stop-color="#BF862C"/>
<stop offset="0.4796" stop-color="#FCC456"/>
<stop offset="0.7014" stop-color="#FFD382"/>
<stop offset="0.8371" stop-color="#FCC456"/>
<stop offset="1" stop-color="#815F26"/>
</linearGradient>
<linearGradient id="paint2_linear_523_5344" x1="3.84358" y1="7.50546" x2="87.1784" y2="7.50546" gradientUnits="userSpaceOnUse">
<stop stop-color="#C89135"/>
<stop offset="0.1131" stop-color="#FCC456"/>
<stop offset="0.2624" stop-color="#BF862C"/>
<stop offset="0.4796" stop-color="#FCC456"/>
<stop offset="0.7014" stop-color="#FFD382"/>
<stop offset="0.8371" stop-color="#FCC456"/>
<stop offset="1" stop-color="#815F26"/>
</linearGradient>
<linearGradient id="paint3_linear_523_5344" x1="21.2927" y1="33.5819" x2="69.5875" y2="33.5819" gradientUnits="userSpaceOnUse">
<stop stop-color="#C89135"/>
<stop offset="0.1131" stop-color="#FCC456"/>
<stop offset="0.2624" stop-color="#BF862C"/>
<stop offset="0.4796" stop-color="#FCC456"/>
<stop offset="0.7014" stop-color="#FFD382"/>
<stop offset="0.8371" stop-color="#FCC456"/>
<stop offset="1" stop-color="#815F26"/>
</linearGradient>
<linearGradient id="paint4_linear_523_5344" x1="43.619" y1="5.18743" x2="47.2609" y2="5.18743" gradientUnits="userSpaceOnUse">
<stop stop-color="#C89135"/>
<stop offset="0.1131" stop-color="#FCC456"/>
<stop offset="0.2624" stop-color="#BF862C"/>
<stop offset="0.4796" stop-color="#FCC456"/>
<stop offset="0.7014" stop-color="#FFD382"/>
<stop offset="0.8371" stop-color="#FCC456"/>
<stop offset="1" stop-color="#815F26"/>
</linearGradient>
<linearGradient id="paint5_linear_523_5344" x1="31.4681" y1="5.22759" x2="59.4108" y2="5.22759" gradientUnits="userSpaceOnUse">
<stop stop-color="#C89135"/>
<stop offset="0.1131" stop-color="#FCC456"/>
<stop offset="0.2624" stop-color="#BF862C"/>
<stop offset="0.4796" stop-color="#FCC456"/>
<stop offset="0.7014" stop-color="#FFD382"/>
<stop offset="0.8371" stop-color="#FCC456"/>
<stop offset="1" stop-color="#815F26"/>
</linearGradient>
<linearGradient id="paint6_linear_523_5344" x1="3.84404" y1="13.9383" x2="87.1842" y2="13.9383" gradientUnits="userSpaceOnUse">
<stop stop-color="#C89135"/>
<stop offset="0.1131" stop-color="#FCC456"/>
<stop offset="0.2624" stop-color="#BF862C"/>
<stop offset="0.4796" stop-color="#FCC456"/>
<stop offset="0.7014" stop-color="#FFD382"/>
<stop offset="0.8371" stop-color="#FCC456"/>
<stop offset="1" stop-color="#815F26"/>
</linearGradient>
<linearGradient id="paint7_linear_523_5344" x1="3.84404" y1="13.9383" x2="87.1842" y2="13.9383" gradientUnits="userSpaceOnUse">
<stop stop-color="#C89135"/>
<stop offset="0.1131" stop-color="#FCC456"/>
<stop offset="0.2624" stop-color="#BF862C"/>
<stop offset="0.4796" stop-color="#FCC456"/>
<stop offset="0.7014" stop-color="#FFD382"/>
<stop offset="0.8371" stop-color="#FCC456"/>
<stop offset="1" stop-color="#815F26"/>
</linearGradient>
<linearGradient id="paint8_linear_523_5344" x1="25.9074" y1="25.9372" x2="31.0234" y2="25.9372" gradientUnits="userSpaceOnUse">
<stop stop-color="#C89135"/>
<stop offset="0.1131" stop-color="#FCC456"/>
<stop offset="0.2624" stop-color="#BF862C"/>
<stop offset="0.4796" stop-color="#FCC456"/>
<stop offset="0.7014" stop-color="#FFD382"/>
<stop offset="0.8371" stop-color="#FCC456"/>
<stop offset="1" stop-color="#815F26"/>
</linearGradient>
<linearGradient id="paint9_linear_523_5344" x1="19.7608" y1="25.7333" x2="25.0798" y2="25.7333" gradientUnits="userSpaceOnUse">
<stop stop-color="#C89135"/>
<stop offset="0.1131" stop-color="#FCC456"/>
<stop offset="0.2624" stop-color="#BF862C"/>
<stop offset="0.4796" stop-color="#FCC456"/>
<stop offset="0.7014" stop-color="#FFD382"/>
<stop offset="0.8371" stop-color="#FCC456"/>
<stop offset="1" stop-color="#815F26"/>
</linearGradient>
<linearGradient id="paint10_linear_523_5344" x1="14.5985" y1="25.7339" x2="18.7691" y2="25.7339" gradientUnits="userSpaceOnUse">
<stop stop-color="#C89135"/>
<stop offset="0.1131" stop-color="#FCC456"/>
<stop offset="0.2624" stop-color="#BF862C"/>
<stop offset="0.4796" stop-color="#FCC456"/>
<stop offset="0.7014" stop-color="#FFD382"/>
<stop offset="0.8371" stop-color="#FCC456"/>
<stop offset="1" stop-color="#815F26"/>
</linearGradient>
<linearGradient id="paint11_linear_523_5344" x1="8.33179" y1="25.734" x2="13.6246" y2="25.734" gradientUnits="userSpaceOnUse">
<stop stop-color="#C89135"/>
<stop offset="0.1131" stop-color="#FCC456"/>
<stop offset="0.2624" stop-color="#BF862C"/>
<stop offset="0.4796" stop-color="#FCC456"/>
<stop offset="0.7014" stop-color="#FFD382"/>
<stop offset="0.8371" stop-color="#FCC456"/>
<stop offset="1" stop-color="#815F26"/>
</linearGradient>
<linearGradient id="paint12_linear_523_5344" x1="77.2537" y1="25.9372" x2="82.3697" y2="25.9372" gradientUnits="userSpaceOnUse">
<stop stop-color="#C89135"/>
<stop offset="0.1131" stop-color="#FCC456"/>
<stop offset="0.2624" stop-color="#BF862C"/>
<stop offset="0.4796" stop-color="#FCC456"/>
<stop offset="0.7014" stop-color="#FFD382"/>
<stop offset="0.8371" stop-color="#FCC456"/>
<stop offset="1" stop-color="#815F26"/>
</linearGradient>
<linearGradient id="paint13_linear_523_5344" x1="71.1076" y1="25.7333" x2="76.4266" y2="25.7333" gradientUnits="userSpaceOnUse">
<stop stop-color="#C89135"/>
<stop offset="0.1131" stop-color="#FCC456"/>
<stop offset="0.2624" stop-color="#BF862C"/>
<stop offset="0.4796" stop-color="#FCC456"/>
<stop offset="0.7014" stop-color="#FFD382"/>
<stop offset="0.8371" stop-color="#FCC456"/>
<stop offset="1" stop-color="#815F26"/>
</linearGradient>
<linearGradient id="paint14_linear_523_5344" x1="65.9443" y1="25.7339" x2="70.1149" y2="25.7339" gradientUnits="userSpaceOnUse">
<stop stop-color="#C89135"/>
<stop offset="0.1131" stop-color="#FCC456"/>
<stop offset="0.2624" stop-color="#BF862C"/>
<stop offset="0.4796" stop-color="#FCC456"/>
<stop offset="0.7014" stop-color="#FFD382"/>
<stop offset="0.8371" stop-color="#FCC456"/>
<stop offset="1" stop-color="#815F26"/>
</linearGradient>
<linearGradient id="paint15_linear_523_5344" x1="59.6776" y1="25.734" x2="64.9704" y2="25.734" gradientUnits="userSpaceOnUse">
<stop stop-color="#C89135"/>
<stop offset="0.1131" stop-color="#FCC456"/>
<stop offset="0.2624" stop-color="#BF862C"/>
<stop offset="0.4796" stop-color="#FCC456"/>
<stop offset="0.7014" stop-color="#FFD382"/>
<stop offset="0.8371" stop-color="#FCC456"/>
<stop offset="1" stop-color="#815F26"/>
</linearGradient>
<linearGradient id="paint16_linear_523_5344" x1="34.4739" y1="25.1444" x2="56.5377" y2="25.1444" gradientUnits="userSpaceOnUse">
<stop stop-color="#C89135"/>
<stop offset="0.1131" stop-color="#FCC456"/>
<stop offset="0.2624" stop-color="#BF862C"/>
<stop offset="0.4796" stop-color="#FCC456"/>
<stop offset="0.7014" stop-color="#FFD382"/>
<stop offset="0.8371" stop-color="#FCC456"/>
<stop offset="1" stop-color="#815F26"/>
</linearGradient>
<linearGradient id="paint17_linear_523_5344" x1="34.4739" y1="25.1444" x2="56.5377" y2="25.1444" gradientUnits="userSpaceOnUse">
<stop stop-color="#C89135"/>
<stop offset="0.1131" stop-color="#FCC456"/>
<stop offset="0.2624" stop-color="#BF862C"/>
<stop offset="0.4796" stop-color="#FCC456"/>
<stop offset="0.7014" stop-color="#FFD382"/>
<stop offset="0.8371" stop-color="#FCC456"/>
<stop offset="1" stop-color="#815F26"/>
</linearGradient>
</defs>
</svg>
