<svg width="73" height="73" viewBox="0 0 73 73" fill="none" xmlns="http://www.w3.org/2000/svg">
<g filter="url(#filter0_f_522_5335)">
<path d="M49.1855 49.0391C50.4098 50.1216 52.6324 53.1341 51.7291 56.5238" stroke="#FF1212" stroke-width="2.1925" stroke-linecap="round"/>
<path d="M31.7415 42.124C29.0017 38.8053 23.3446 33.3479 16.1546 34.7152C12.6946 35.3732 9.73489 37.7194 7.87241 40.7087C5.65042 44.275 4.36403 49.1181 7.89902 53.5447C10.3947 56.4784 17.4668 61.917 25.7897 60.2018M13.4989 41.0438C14.1105 39.6947 16.3554 37.4198 20.4422 39.1131M43.7932 42.3104C48.6266 43.0941 57.9172 47.2084 56.4127 57.3962C54.9082 67.584 45.587 67.7471 41.1145 66.5552C35.2767 65.7563 24.7964 61.3759 29.5774 50.2456C31.044 47.107 35.9404 41.1258 43.7932 42.3104Z" stroke="#FF1212" stroke-width="2.1925" stroke-linecap="round"/>
<path d="M28.3036 35.1563C33.1676 32.0404 43.6015 23.7277 46.4245 15.404M46.4245 15.404L43.8398 39.2961M46.4245 15.404C52.0985 21.0754 62.4323 23.451 67.0447 17.495C63.9367 12.1285 54.4446 5.74218 46.4245 15.404ZM46.4245 15.404C47.727 15.2467 51.1981 15.0874 54.6631 15.7081" stroke="#00FF0A" stroke-width="2.1925" stroke-linecap="round"/>
</g>
<path d="M49.0254 49.6406C50.2496 50.7232 52.4722 53.7357 51.569 57.1254" stroke="white" stroke-width="0.730834" stroke-linecap="round"/>
<path d="M31.5813 42.7255C28.8415 39.4069 23.1845 33.9494 15.9944 35.3167C12.5344 35.9747 9.57474 38.3209 7.71225 41.3102C5.49026 44.8765 4.20387 49.7197 7.73886 54.1463C10.2345 57.08 17.3066 62.5186 25.6296 60.8034M13.3388 41.6453C13.9503 40.2962 16.1952 38.0214 20.282 39.7147M43.633 42.9119C48.4664 43.6956 57.7571 47.81 56.2526 57.9978C54.748 68.1856 45.4269 68.3487 40.9543 67.1568C35.1165 66.3579 24.6362 61.9774 29.4172 50.8472C30.8838 47.7085 35.7802 41.7274 43.633 42.9119Z" stroke="white" stroke-width="0.730834" stroke-linecap="round"/>
<path d="M28.1434 35.7579C33.0075 32.642 43.4413 24.3293 46.2644 16.0055M46.2644 16.0055L43.6797 39.8977M46.2644 16.0055C51.9383 21.677 62.2722 24.0525 66.8846 18.0965C63.7765 12.7301 54.2845 6.34375 46.2644 16.0055ZM46.2644 16.0055C47.5668 15.8483 51.038 15.6889 54.503 16.3097" stroke="white" stroke-width="0.730834" stroke-linecap="round"/>
<defs>
<filter id="filter0_f_522_5335" x="0.365653" y="5.06975" width="72.2355" height="67.3253" filterUnits="userSpaceOnUse" color-interpolation-filters="sRGB">
<feFlood flood-opacity="0" result="BackgroundImageFix"/>
<feBlend mode="normal" in="SourceGraphic" in2="BackgroundImageFix" result="shape"/>
<feGaussianBlur stdDeviation="2.11942" result="effect1_foregroundBlur_522_5335"/>
</filter>
</defs>
</svg>
