<svg width="70" height="69" viewBox="0 0 70 69" fill="none" xmlns="http://www.w3.org/2000/svg">
<g filter="url(#filter0_f_522_5336)">
<path d="M13.9203 32.5514C12.9279 33.4972 11.8644 35.1057 12.8532 36.1486C14.4213 37.8024 17.1926 36.7058 19.3166 35.8795L22.1565 34.7746M36.7542 13.7315C35.1039 12.4768 32.1996 11.3328 32.148 15.2814C32.1302 16.6463 32.593 17.9625 33.1382 19.214L34.3686 22.0384M55.5033 36.403C56.2224 35.5391 56.9821 34.1565 56.599 33.1262C55.8063 30.994 52.5384 32.18 50.403 32.9642L47.3328 34.0917M35.1742 47.087C36.5514 49.4298 38.7244 54.5202 36.3981 56.14C35.794 56.4477 34.2139 56.6872 32.7264 55.1831M28.9117 38.5789C23.3438 43.2882 13.5205 54.1297 18.7701 59.8209C19.7119 60.9115 22.9297 62.5288 28.6102 60.9937C29.5204 60.7477 30.4999 60.9381 31.2636 61.4911C33.6915 63.2493 37.6396 65.2479 40.338 63.6824C47.2913 61.0844 43.2634 46.6184 38.8735 40.3625C44.975 47.2609 58.1167 58.2114 61.8721 46.8259C62.1336 45.9965 62.332 43.7633 61.4162 40.7335C61.1042 39.7012 61.3396 38.5701 62.0147 37.729C64.0022 35.2528 66.0652 31.1851 63.8117 27.9084C60.4689 21.7701 46.9513 26.1875 40.6831 30.2556C46.1249 25.5071 55.7789 14.6819 50.8608 9.36949C49.8917 8.22248 46.6371 6.48541 41.0312 8.01012C40.192 8.23836 39.2903 8.10341 38.5713 7.61417C35.9247 5.81333 31.7727 3.62397 28.2774 5.32615C24.9098 7.96735 22.4699 14.0685 30.7212 28.472C26.6167 23.4285 16.9309 14.175 11.0237 17.5094C6.3942 20.1224 6.75092 24.5274 8.00942 27.6148C8.53622 28.9071 8.29373 30.4603 7.35597 31.4939C4.85105 34.2547 2.73546 38.6786 6.90326 42.4746C12.087 47.1957 23.7354 41.8446 28.9117 38.5789Z" stroke="#24FF00" stroke-width="3" stroke-linecap="round"/>
</g>
<path d="M13.9203 32.5514C12.9279 33.4972 11.8644 35.1057 12.8532 36.1486C14.4213 37.8024 17.1926 36.7058 19.3166 35.8795L22.1565 34.7746M36.7542 13.7315C35.1039 12.4768 32.1996 11.3328 32.148 15.2814C32.1302 16.6463 32.593 17.9625 33.1382 19.214L34.3686 22.0384M55.5033 36.403C56.2224 35.5391 56.9821 34.1565 56.599 33.1262C55.8063 30.994 52.5384 32.18 50.403 32.9642L47.3328 34.0917M35.1742 47.087C36.5514 49.4298 38.7244 54.5202 36.3981 56.14C35.794 56.4477 34.2139 56.6872 32.7264 55.1831M28.9117 38.5789C23.3438 43.2882 13.5205 54.1297 18.7701 59.8209C19.7119 60.9115 22.9297 62.5288 28.6102 60.9937C29.5204 60.7477 30.4999 60.9381 31.2636 61.4911C33.6915 63.2493 37.6396 65.2479 40.338 63.6824C47.2913 61.0844 43.2634 46.6184 38.8735 40.3625C44.975 47.2609 58.1167 58.2114 61.8721 46.8259C62.1336 45.9965 62.332 43.7633 61.4162 40.7335C61.1042 39.7012 61.3396 38.5701 62.0147 37.729C64.0022 35.2528 66.0652 31.1851 63.8117 27.9084C60.4689 21.7701 46.9513 26.1875 40.6831 30.2556C46.1249 25.5071 55.7789 14.6819 50.8608 9.36949C49.8917 8.22248 46.6371 6.48541 41.0312 8.01012C40.192 8.23836 39.2903 8.10341 38.5713 7.61417C35.9247 5.81333 31.7727 3.62397 28.2774 5.32615C24.9098 7.96735 22.4699 14.0685 30.7212 28.472C26.6167 23.4285 16.9309 14.175 11.0237 17.5094C6.3942 20.1224 6.75092 24.5274 8.00942 27.6148C8.53622 28.9071 8.29373 30.4603 7.35597 31.4939C4.85105 34.2547 2.73546 38.6786 6.90326 42.4746C12.087 47.1957 23.7354 41.8446 28.9117 38.5789Z" stroke="white" stroke-linecap="round"/>
<defs>
<filter id="filter0_f_522_5336" x="0.206148" y="0.379976" width="68.9197" height="68.201" filterUnits="userSpaceOnUse" color-interpolation-filters="sRGB">
<feFlood flood-opacity="0" result="BackgroundImageFix"/>
<feBlend mode="normal" in="SourceGraphic" in2="BackgroundImageFix" result="shape"/>
<feGaussianBlur stdDeviation="1.41646" result="effect1_foregroundBlur_522_5336"/>
</filter>
</defs>
</svg>
