<svg width="65" height="62" viewBox="0 0 65 62" fill="none" xmlns="http://www.w3.org/2000/svg">
<g filter="url(#filter0_f_522_5340)">
<path d="M35.6477 13.3481C40.8054 10.4763 52.2837 9.05623 56.9351 26.3509C50.3599 28.714 36.8971 29.4218 35.6477 13.3481ZM35.6477 13.3481C37.8927 14.3029 42.9597 16.8464 45.2672 19.3828M28.6868 18.2158C29.3504 17.2126 30.7833 14.8832 31.2071 13.5919M31.2071 13.5919C27.2466 10.0684 17.5957 6.27369 10.6756 19.2831L14.5239 21.2434M31.2071 13.5919C29.9854 13.8597 27.2314 14.6248 25.9882 15.5425" stroke="#00FF0A" stroke-width="3" stroke-linecap="round"/>
</g>
<g filter="url(#filter1_f_522_5340)">
<path d="M38.5471 32.06C38.1105 31.3559 37.1859 31.1391 36.4818 31.5757C35.7778 32.0123 35.5609 32.937 35.9975 33.641C36.1723 33.9229 36.4507 34.4731 36.6415 35.0981C36.8395 35.7467 36.8884 36.2976 36.8011 36.6701C36.6119 37.4766 37.1125 38.2838 37.919 38.4729C38.7256 38.662 39.5327 38.1615 39.7218 37.355C39.9839 36.2373 39.7759 35.0904 39.5108 34.2222C39.2385 33.3303 38.8476 32.5445 38.5471 32.06ZM28.81 48.8569C28.034 49.1469 27.6401 50.0111 27.9301 50.7871C28.2202 51.5631 29.0843 51.9571 29.8603 51.667C31.1573 51.1822 33.0856 50.1629 34.8237 48.6301C36.5611 47.098 38.2235 44.9485 38.7371 42.1924C38.8889 41.378 38.3517 40.5948 37.5373 40.443C36.7229 40.2912 35.9396 40.8284 35.7879 41.6428C35.4391 43.5142 34.2794 45.1102 32.8395 46.3801C31.4004 47.6492 29.7961 48.4883 28.81 48.8569ZM40.6192 32.4493C43.6636 40.5946 39.5285 49.6657 31.3831 52.7101C23.2378 55.7545 14.1667 51.6194 11.1223 43.4741C8.07789 35.3287 12.213 26.2576 20.3584 23.2132C28.5037 20.1688 37.5748 24.3039 40.6192 32.4493Z" stroke="#FCC456" stroke-width="3" stroke-linecap="round"/>
</g>
<path d="M35.6477 13.3481C40.8054 10.4763 52.2837 9.05623 56.9351 26.3509C50.3599 28.714 36.8971 29.4218 35.6477 13.3481ZM35.6477 13.3481C37.8927 14.3029 42.9597 16.8464 45.2672 19.3828M28.6868 18.2158C29.3504 17.2126 30.7833 14.8832 31.2071 13.5919M31.2071 13.5919C27.2466 10.0684 17.5957 6.27369 10.6756 19.2831L14.5239 21.2434M31.2071 13.5919C29.9854 13.8597 27.2314 14.6248 25.9882 15.5425" stroke="white" stroke-linecap="round"/>
<path d="M37.6973 32.587C37.5517 32.3523 37.2435 32.28 37.0088 32.4256C36.7741 32.5711 36.7019 32.8793 36.8474 33.114C37.0641 33.4635 37.38 34.0922 37.5979 34.8061C37.8183 35.528 37.9202 36.2775 37.7747 36.8984C37.7116 37.1672 37.8785 37.4363 38.1473 37.4993C38.4162 37.5624 38.6852 37.3955 38.7483 37.1267C38.9521 36.2574 38.7971 35.3092 38.5544 34.5141C38.3092 33.7112 37.9558 33.004 37.6973 32.587ZM29.1601 49.7936C28.9015 49.8903 28.7702 50.1783 28.8668 50.437C28.9635 50.6957 29.2516 50.827 29.5102 50.7303C30.7036 50.2843 32.5238 49.325 34.1623 47.8801C35.8005 46.4354 37.2953 44.4704 37.754 42.0092C37.8046 41.7378 37.6255 41.4767 37.3541 41.4261C37.0826 41.3755 36.8215 41.5546 36.7709 41.826C36.3672 43.9923 35.04 45.7728 33.5009 47.1301C31.9621 48.4871 30.2499 49.3863 29.1601 49.7936ZM41.5559 32.0992C44.7937 40.7618 40.3959 50.409 31.7332 53.6468C23.0706 56.8846 13.4234 52.4868 10.1856 43.8242C6.94783 35.1615 11.3456 25.5143 20.0082 22.2765C28.6709 19.0387 38.3181 23.4365 41.5559 32.0992Z" stroke="white" stroke-linecap="round"/>
<defs>
<filter id="filter0_f_522_5340" x="2.63477" y="2.7168" width="62.1074" height="32.4062" filterUnits="userSpaceOnUse" color-interpolation-filters="sRGB">
<feFlood flood-opacity="0" result="BackgroundImageFix"/>
<feBlend mode="normal" in="SourceGraphic" in2="BackgroundImageFix" result="shape"/>
<feGaussianBlur stdDeviation="3" result="effect1_foregroundBlur_522_5340"/>
</filter>
<filter id="filter1_f_522_5340" x="2.62109" y="14.7129" width="46.499" height="46.498" filterUnits="userSpaceOnUse" color-interpolation-filters="sRGB">
<feFlood flood-opacity="0" result="BackgroundImageFix"/>
<feBlend mode="normal" in="SourceGraphic" in2="BackgroundImageFix" result="shape"/>
<feGaussianBlur stdDeviation="3" result="effect1_foregroundBlur_522_5340"/>
</filter>
</defs>
</svg>
