<svg width="184" height="79" viewBox="0 0 184 79" fill="none" xmlns="http://www.w3.org/2000/svg">
<path d="M176.283 41.3633H7.47363V42.5947H176.283V41.3633Z" fill="url(#paint0_linear_522_5146)"/>
<path d="M176.283 41.3633H7.47363V42.5947H176.283V41.3633Z" fill="url(#paint1_linear_522_5146)"/>
<path d="M7.77148 14.5586V15.7891H83.1324L80.8262 14.5586H7.77148ZM102.928 14.5586L100.623 15.7891H176.273V14.5586H102.928Z" fill="url(#paint2_linear_522_5146)"/>
<path d="M79.7313 66.8564C78.8809 66.6607 78.0519 66.185 77.3129 65.7223C77.6838 65.4608 78.0779 65.2364 78.5007 65.063C81.099 64.0142 82.4863 64.9026 82.5493 65.7909C82.592 66.3927 82.0282 66.9936 80.8227 66.9936C80.5037 66.9936 80.1402 66.9519 79.7313 66.8564ZM101.206 65.7909C101.27 64.9026 102.658 64.0142 105.259 65.063C105.677 65.2364 106.076 65.4617 106.442 65.7223C105.705 66.185 104.874 66.6598 104.023 66.8564C103.614 66.9519 103.25 66.9936 102.931 66.9936C101.726 66.9936 101.162 66.3927 101.206 65.7909ZM65.3303 67.5917C60.8681 67.4814 60.2857 63.0563 64.1108 61.6394C66.7481 60.65 70.3553 62.461 72.5493 63.8705C72.2442 64.0773 71.9382 64.2878 71.6331 64.502C70.1912 65.5053 67.1932 67.5936 65.3979 67.5936C65.3757 67.5927 65.3534 67.5927 65.3303 67.5917ZM112.12 64.502C111.818 64.2878 111.512 64.0773 111.205 63.8705C113.397 62.461 117.008 60.6509 119.645 61.6394C123.472 63.0572 122.886 67.4814 118.424 67.5917C118.402 67.5927 118.379 67.5927 118.356 67.5927C116.563 67.5927 113.568 65.5044 112.12 64.502ZM110.232 63.2427L110.214 63.2334C108.323 62.0993 106.157 61.1275 103.942 60.7937C102.456 60.5711 100.859 60.6305 99.4754 61.2444C97.9119 61.9417 96.6193 63.4022 96.7231 65.1372C96.8558 67.2885 98.7196 69.2498 101.867 69.2043C102.299 69.1913 102.247 68.8473 101.906 68.8529C98.0251 69.0847 95.6948 64.1042 99.5755 62.1689C100.79 61.6283 102.322 61.6283 103.621 61.8267C105.596 62.1253 107.535 62.9265 109.255 63.8974C108.951 64.0995 108.646 64.3017 108.339 64.5038L107.88 64.8071C106.575 64.1144 105.251 63.6442 103.886 63.6164C103.092 63.5357 102.296 63.6628 101.599 64.1561C101.117 64.4973 100.767 64.9823 100.702 65.56C100.687 65.6676 100.693 65.7761 100.693 65.8846V65.8976L100.702 65.968V65.9736C100.777 66.6932 101.198 67.2273 101.853 67.5519C103.707 68.481 105.69 67.3423 107.268 66.441C109.043 68.3475 109.112 72.0845 106.676 73.7212C104.782 74.9916 102.307 74.5966 100.29 73.7935C97.1135 72.5306 94.7536 69.5344 92.4214 67.1337L94.3298 65.1659L91.8771 62.639L89.4253 65.1659L91.3346 67.1337C89.0024 69.5344 86.6424 72.5306 83.4683 73.7935C81.4458 74.5966 78.9709 74.9916 77.0773 73.7212C74.6441 72.0845 74.7127 68.3475 76.4885 66.441C78.0667 67.3432 80.0484 68.481 81.9011 67.5519C82.554 67.2273 82.9796 66.6932 83.0547 65.9736L83.0575 65.968L83.0621 65.8976V65.8846C83.0621 65.7761 83.0668 65.6676 83.0547 65.56C82.9861 64.9823 82.6384 64.4973 82.1543 64.1561C81.4597 63.6628 80.6651 63.5357 79.8722 63.6164C78.5054 63.6442 77.1812 64.1144 75.8774 64.8071L75.4147 64.5038C75.1096 64.3017 74.8045 64.0995 74.4985 63.8974C76.2205 62.9256 78.1595 62.1253 80.1346 61.8267C81.4329 61.6292 82.962 61.6292 84.1814 62.1689C88.0612 64.1032 85.729 69.0847 81.8492 68.8529C81.5061 68.8482 81.4542 69.1913 81.8863 69.2043C85.0336 69.2498 86.903 67.2885 87.0291 65.1372C87.1348 63.4022 85.8403 61.9417 84.2787 61.2444C82.8952 60.6305 81.2984 60.5702 79.8147 60.7937C77.5975 61.1275 75.4323 62.0993 73.5424 63.2334L73.5239 63.2427C67.4315 58.928 63.0268 60.1594 58.343 61.3918C54.006 62.5324 49.4298 63.6739 43.0527 60.4079C50.0038 66.9324 58.3783 62.5899 62.1005 61.8082C61.7833 62.142 61.5255 62.5259 61.3391 62.9645C60.9358 63.9168 60.9469 64.9981 61.3818 65.9384C62.1515 67.614 63.9198 68.3512 65.7336 68.4068C67.8803 68.4727 70.5593 66.5355 72.2665 65.3486C72.6754 65.063 73.0844 64.7755 73.5016 64.5038C73.9338 64.7922 74.3659 65.0806 74.8026 65.3671L74.8499 65.395C69.3826 68.7564 64.2073 75.0454 57.8284 67.6168C59.1359 71.7498 63.4729 72.9664 66.329 72.2153C69.7581 71.313 72.2989 68.5728 75.1124 66.4354C72.1348 70.5192 74.7442 75.6648 79.9408 75.574C81.2891 75.5499 82.6272 75.1252 83.8068 74.6522C86.7278 73.4783 89.7294 70.1789 91.8761 67.7392C94.0247 70.1789 97.0264 73.4783 99.9483 74.6522C101.125 75.1252 102.468 75.5499 103.811 75.574C109.01 75.6648 111.618 70.5192 108.644 66.4354C111.456 68.5728 113.996 71.313 117.422 72.2153C120.278 72.9673 124.617 71.7498 125.922 67.6168C119.544 75.0454 114.369 68.7555 108.904 65.395L108.951 65.3671C109.386 65.0806 109.819 64.7922 110.252 64.5038C110.668 64.7755 111.079 65.063 111.49 65.3486C113.195 66.5355 115.877 68.4727 118.019 68.4068C119.835 68.3503 121.603 67.6131 122.373 65.9384C122.805 64.9972 122.82 63.9159 122.415 62.9645C122.23 62.5268 121.971 62.142 121.656 61.8082C125.374 62.5899 133.751 66.9324 140.704 60.4079C134.326 63.6739 129.75 62.5333 125.412 61.3918C123.205 60.8113 121.059 60.2308 118.771 60.2308C116.203 60.2308 113.454 60.9615 110.232 63.2427Z" fill="url(#paint3_linear_522_5146)"/>
<path d="M88.1953 10.4856L91.8767 12.5804L95.559 10.4856L91.8767 8.39453L88.1953 10.4856Z" fill="url(#paint4_linear_522_5146)"/>
<path d="M116.859 3.03503C116.645 3.00443 116.43 2.99052 116.214 2.99052C114.562 2.99052 112.878 3.82881 111.556 4.71902C109.228 6.28801 101.89 10.5425 99.4854 11.9918C97.6827 13.0768 95.8615 14.1543 94.0236 15.1855L91.8769 13.967L89.7302 15.1855C87.8941 14.1543 86.0738 13.0768 84.273 11.9918C81.8639 10.5425 74.527 6.28801 72.1977 4.71902C70.7066 3.71289 68.75 2.77168 66.8944 3.03503C64.795 3.32806 63.3688 5.25129 63.6674 7.34699C63.9308 9.2016 65.6166 10.6992 67.4434 10.7697C69.1274 10.8309 70.8299 9.57252 71.5486 8.25297C71.8379 7.74573 71.7155 7.60942 71.2861 8.03227C70.3931 8.91042 68.7101 9.30916 67.4341 9.15894C66.6876 9.07177 65.9217 8.75742 65.3672 8.24277C63.6062 6.60237 64.7051 4.30729 67.0298 4.33604C68.5283 4.35273 70.1344 5.15856 71.3575 5.96995C73.7221 7.53987 81.059 11.8194 83.4922 13.2827C85.0473 14.2174 86.6163 15.1521 88.2038 16.0534L88.1946 16.059L91.8769 18.151L95.5592 16.059L95.5527 16.0534C97.1384 15.1521 98.7083 14.2174 100.263 13.2827C102.695 11.8194 110.033 7.53894 112.397 5.96995C113.619 5.15856 115.225 4.3518 116.726 4.33604C119.049 4.30729 120.147 6.60237 118.388 8.24277C117.837 8.75742 117.069 9.0727 116.323 9.15894C115.046 9.30916 113.361 8.91042 112.468 8.03227C112.04 7.60942 111.919 7.74573 112.21 8.25297C112.926 9.57252 114.628 10.8309 116.309 10.7697C118.143 10.6992 119.826 9.20067 120.089 7.34699C120.386 5.25129 118.96 3.32899 116.859 3.03503Z" fill="url(#paint5_linear_522_5146)"/>
<path d="M56.5104 23.6304V23.9466L58.429 24.5995V30.9487L51.8424 23.6295H48.2621V23.9457L49.7263 24.5985V33.7176L48.2621 34.3704V34.7071H52.8513V34.3704L50.9327 33.6982V26.735L58.2315 34.7859H59.6355V24.6004L61.0793 23.9476V23.6314H56.5104V23.6304ZM67.0344 24.6393H67.7067C69.144 24.6393 70.2253 25.0316 70.9504 25.8161C71.6756 26.6006 72.0381 27.7115 72.0381 29.1497C72.0381 30.5611 71.6858 31.672 70.9801 32.4825C70.2744 33.2938 69.2488 33.6991 67.9042 33.6991H67.0335V24.6393H67.0344ZM62.6826 23.6304V23.9466L64.1468 24.5995V33.738L62.6826 34.3908V34.7071H68.5181C69.8108 34.7071 70.9439 34.4502 71.9204 33.9355C72.8959 33.4209 73.6572 32.7087 74.2052 31.799C74.7523 30.8894 75.0259 29.8406 75.0259 28.6536C75.0259 27.6781 74.7755 26.8139 74.2739 26.0627C73.7722 25.3107 73.048 24.7172 72.0984 24.2823C71.1488 23.8474 69.9944 23.6295 68.6368 23.6295H62.6826V23.6304ZM95.637 23.6304V23.9466L97.1003 24.5995V33.738L95.637 34.3908V34.7071H105.666V31.1462H105.35L103.985 33.6982H99.9889V29.4455H102.541L103.45 30.8495H103.747V27.0911H103.45L102.541 28.5155H99.9889V24.6384H103.589L104.875 26.5969H105.191V23.6295H95.637V23.6304ZM107.565 23.6304V23.9466L109.029 24.5995V33.738L107.565 34.3908V34.7071H117.356V30.4739H117.04L115.556 33.6982H111.917V24.6004L113.539 23.9476V23.6314H107.565V23.6304ZM119.176 23.6304V23.9466L120.64 24.5995V33.738L119.176 34.3908V34.7071H128.967V30.4739H128.651L127.167 33.6982H123.528V24.6004L125.149 23.9476V23.6314H119.176V23.6304ZM156.878 23.6304V23.9466L158.184 24.5995V33.738L156.878 34.3908V34.7071H162.496V34.3908L161.071 33.738V24.6004L162.496 23.9476V23.6314H156.878V23.6304ZM39.7764 26.3011L41.3583 30.0789H38.2138L39.7764 26.3011ZM26.9582 24.541H27.5118C28.9232 24.541 29.6289 25.2272 29.6289 26.5978C29.6289 27.2441 29.461 27.7616 29.1244 28.1501C28.7878 28.5396 28.2704 28.7334 27.5721 28.7334H26.9592V24.541H26.9582ZM39.8162 23.5321L35.405 33.8178L34.5158 34.3241L33.3678 33.7584L30.3216 28.9123C31.7988 28.3977 32.5369 27.5344 32.5369 26.3215C32.5369 25.4906 32.191 24.835 31.4983 24.3537C30.8066 23.8725 29.8598 23.6314 28.6598 23.6314H22.6073V23.9476L24.0716 24.6004V33.739L22.6073 34.3918V34.708H28.2249V34.3918L26.9592 33.7195V29.6635H27.6908L30.559 34.7071H34.3961H38.0757V34.3908L36.6708 33.7974L37.7984 31.0878H41.7942L42.9218 33.7974L41.5178 34.3908V34.7071H47.0566V34.3908L45.8307 33.6982L41.4983 23.5312H39.8162V23.5321ZM135.436 26.3011L137.018 30.0789H133.873L135.436 26.3011ZM135.475 23.5321L131.064 33.8178L130.055 34.3918V34.708H133.734V34.3918L132.329 33.7983L133.457 31.0887H137.453L138.58 33.7983L137.176 34.3918V34.708H142.715V34.3918L141.489 33.6991L137.157 23.5321H135.475ZM147.64 23.8381C146.849 24.1219 146.15 24.5308 145.544 25.065C144.937 25.5991 144.462 26.2324 144.119 26.9641C143.776 27.6957 143.605 28.5043 143.605 29.3871C143.605 30.4813 143.872 31.4439 144.406 32.2747C144.94 33.1056 145.659 33.7519 146.562 34.2137C147.465 34.6755 148.477 34.9064 149.598 34.9064C150.164 34.9064 150.732 34.8471 151.298 34.7284C151.865 34.6097 152.396 34.4446 152.891 34.2341C153.385 34.0236 153.791 33.7788 154.107 33.5025V30.753L155.373 29.9621V29.6653H149.775V29.9621L151.278 30.7336V33.7603C150.922 33.8391 150.566 33.879 150.21 33.879C149.036 33.879 148.126 33.4404 147.48 32.5631C146.833 31.6859 146.511 30.5296 146.511 29.0913C146.511 28.1686 146.662 27.3545 146.966 26.6488C147.269 25.9431 147.708 25.3895 148.282 24.9871C148.856 24.5846 149.545 24.3834 150.349 24.3834C150.731 24.3834 151.064 24.4261 151.348 24.5123C151.631 24.5985 151.951 24.7534 152.307 24.9769L153.751 27.1922H154.088L153.91 24.2248C153.422 24.0004 152.897 23.8094 152.337 23.6508C151.776 23.4923 151.054 23.4134 150.171 23.4134C149.276 23.4134 148.432 23.5553 147.64 23.8381ZM168.905 33.2048C168.417 32.7569 168.034 32.1366 167.758 31.3456C167.481 30.5546 167.343 29.6514 167.343 28.636C167.343 27.8051 167.458 27.0735 167.688 26.4402C167.919 25.8068 168.242 25.3126 168.657 24.9565C169.073 24.6004 169.558 24.4223 170.111 24.4223C170.731 24.4223 171.282 24.6468 171.763 25.0946C172.244 25.5435 172.62 26.1601 172.891 26.9446C173.16 27.7291 173.296 28.6295 173.296 29.6449C173.296 30.8847 173.055 31.9001 172.573 32.6911C172.092 33.4821 171.429 33.8781 170.585 33.8781C169.953 33.8771 169.393 33.6527 168.905 33.2048ZM167.233 24.1451C166.343 24.6468 165.641 25.332 165.126 26.2018C164.612 27.0726 164.355 28.0546 164.355 29.1497C164.355 30.2579 164.612 31.2436 165.126 32.1069C165.641 32.9711 166.343 33.6536 167.233 34.1544C168.123 34.6561 169.148 34.9064 170.309 34.9064C171.469 34.9064 172.497 34.6561 173.395 34.1544C174.292 33.6536 174.997 32.9711 175.511 32.1069C176.026 31.2436 176.283 30.2579 176.283 29.1497C176.283 28.0555 176.026 27.0726 175.511 26.2018C174.997 25.3311 174.292 24.6458 173.395 24.1451C172.498 23.6443 171.47 23.393 170.309 23.393C169.149 23.393 168.123 23.6443 167.233 24.1451ZM86.4187 28.457H87.7837C88.8251 28.457 89.6263 28.6648 90.1873 29.0802C90.7474 29.4956 91.0284 30.1382 91.0284 31.009C91.0284 31.774 90.7548 32.4009 90.2077 32.8886C89.6606 33.3764 88.8983 33.6203 87.9228 33.6203H86.4197V28.457H86.4187ZM86.4187 22.7402H87.091C89.0161 22.7402 89.9786 23.5516 89.9786 25.1735C89.9786 25.8856 89.7348 26.4494 89.247 26.8649C88.7592 27.2803 88.0795 27.488 87.2097 27.488H86.4187V22.7402ZM81.7507 21.6525V21.9687L83.4319 22.7801V33.5804L81.7507 34.3918V34.708H88.5552C89.6365 34.708 90.6027 34.5429 91.4531 34.2137C92.3034 33.8845 92.9729 33.432 93.4607 32.8589C93.9484 32.2849 94.1923 31.6358 94.1923 30.9107C94.1923 30.0399 93.826 29.3185 93.0944 28.7445C92.3627 28.1705 91.3566 27.7987 90.0779 27.6271C91.0274 27.4027 91.7554 27.0077 92.2635 26.4402C92.7708 25.8736 93.0248 25.2532 93.0248 24.5809C93.0248 23.9216 92.8106 23.3773 92.3822 22.9489C91.9538 22.5205 91.3668 22.1968 90.6222 21.9798C89.8766 21.7619 89.03 21.6534 88.0805 21.6534H81.7507V21.6525ZM12.3996 21.9687C11.5029 22.3118 10.7045 22.7996 10.0062 23.4329C9.30705 24.0663 8.75994 24.8081 8.36398 25.6584C7.96802 26.5088 7.77051 27.4416 7.77051 28.457C7.77051 29.3806 7.94484 30.2347 8.29443 31.0183C8.64403 31.8027 9.13179 32.4852 9.75864 33.0657C10.3846 33.6462 11.1107 34.0978 11.935 34.4205C12.7594 34.7432 13.6459 34.9055 14.5955 34.9055C15.162 34.9055 15.7592 34.836 16.3861 34.6978C17.012 34.5596 17.6129 34.3686 18.186 34.1238C18.76 33.8799 19.2505 33.5869 19.6595 33.2438V30.039L21.1431 29.0895V28.7732H14.9321V29.0895L16.6921 30.0195V33.6787C16.4278 33.7315 16.1644 33.7677 15.9011 33.7872C15.6368 33.8066 15.3929 33.8168 15.1695 33.8168C14.3646 33.8168 13.6366 33.5859 12.9838 33.1242C12.331 32.6624 11.8135 32.0068 11.4315 31.1555C11.0485 30.3052 10.8575 29.286 10.8575 28.0991C10.8575 26.965 11.055 25.9728 11.451 25.1225C11.8469 24.2721 12.3801 23.6091 13.0533 23.1343C13.7256 22.6595 14.4777 22.4222 15.3085 22.4222C15.7305 22.4222 16.106 22.4648 16.4361 22.5511C16.7653 22.6373 17.1084 22.7922 17.4645 23.0156L19.3636 25.8838H19.7197L19.5018 22.4027C19.1188 22.2181 18.7331 22.0531 18.3445 21.9084C17.9551 21.7638 17.5137 21.6516 17.0194 21.5718C16.5252 21.493 15.928 21.4531 15.2288 21.4531C14.2394 21.455 13.2963 21.6265 12.3996 21.9687Z" fill="url(#paint6_linear_522_5146)"/>
<path d="M56.5104 23.6304V23.9466L58.429 24.5995V30.9487L51.8424 23.6295H48.2621V23.9457L49.7263 24.5985V33.7176L48.2621 34.3704V34.7071H52.8513V34.3704L50.9327 33.6982V26.735L58.2315 34.7859H59.6355V24.6004L61.0793 23.9476V23.6314H56.5104V23.6304ZM67.0344 24.6393H67.7067C69.144 24.6393 70.2253 25.0316 70.9504 25.8161C71.6756 26.6006 72.0381 27.7115 72.0381 29.1497C72.0381 30.5611 71.6858 31.672 70.9801 32.4825C70.2744 33.2938 69.2488 33.6991 67.9042 33.6991H67.0335V24.6393H67.0344ZM62.6826 23.6304V23.9466L64.1468 24.5995V33.738L62.6826 34.3908V34.7071H68.5181C69.8108 34.7071 70.9439 34.4502 71.9204 33.9355C72.8959 33.4209 73.6572 32.7087 74.2052 31.799C74.7523 30.8894 75.0259 29.8406 75.0259 28.6536C75.0259 27.6781 74.7755 26.8139 74.2739 26.0627C73.7722 25.3107 73.048 24.7172 72.0984 24.2823C71.1488 23.8474 69.9944 23.6295 68.6368 23.6295H62.6826V23.6304ZM95.637 23.6304V23.9466L97.1003 24.5995V33.738L95.637 34.3908V34.7071H105.666V31.1462H105.35L103.985 33.6982H99.9889V29.4455H102.541L103.45 30.8495H103.747V27.0911H103.45L102.541 28.5155H99.9889V24.6384H103.589L104.875 26.5969H105.191V23.6295H95.637V23.6304ZM107.565 23.6304V23.9466L109.029 24.5995V33.738L107.565 34.3908V34.7071H117.356V30.4739H117.04L115.556 33.6982H111.917V24.6004L113.539 23.9476V23.6314H107.565V23.6304ZM119.176 23.6304V23.9466L120.64 24.5995V33.738L119.176 34.3908V34.7071H128.967V30.4739H128.651L127.167 33.6982H123.528V24.6004L125.149 23.9476V23.6314H119.176V23.6304ZM156.878 23.6304V23.9466L158.184 24.5995V33.738L156.878 34.3908V34.7071H162.496V34.3908L161.071 33.738V24.6004L162.496 23.9476V23.6314H156.878V23.6304ZM39.7764 26.3011L41.3583 30.0789H38.2138L39.7764 26.3011ZM26.9582 24.541H27.5118C28.9232 24.541 29.6289 25.2272 29.6289 26.5978C29.6289 27.2441 29.461 27.7616 29.1244 28.1501C28.7878 28.5396 28.2704 28.7334 27.5721 28.7334H26.9592V24.541H26.9582ZM39.8162 23.5321L35.405 33.8178L34.5158 34.3232L33.3678 33.7584L30.3216 28.9123C31.7988 28.3977 32.5369 27.5344 32.5369 26.3215C32.5369 25.4906 32.191 24.835 31.4983 24.3537C30.8066 23.8725 29.8598 23.6314 28.6598 23.6314H22.6073V23.9476L24.0716 24.6004V33.739L22.6073 34.3918V34.708H28.2249V34.3918L26.9592 33.7195V29.6635H27.6908L30.559 34.7071H34.3961H38.0757V34.3908L36.6708 33.7974L37.7984 31.0878H41.7942L42.9218 33.7974L41.5178 34.3908V34.7071H47.0566V34.3908L45.8307 33.6982L41.4983 23.5312H39.8162V23.5321ZM135.436 26.3011L137.018 30.0789H133.873L135.436 26.3011ZM135.475 23.5321L131.064 33.8178L130.055 34.3918V34.708H133.734V34.3918L132.329 33.7983L133.457 31.0887H137.453L138.58 33.7983L137.176 34.3918V34.708H142.715V34.3918L141.489 33.6991L137.157 23.5321H135.475ZM147.64 23.8381C146.849 24.1219 146.15 24.5308 145.544 25.065C144.937 25.5991 144.462 26.2324 144.119 26.9641C143.776 27.6957 143.605 28.5043 143.605 29.3871C143.605 30.4813 143.872 31.4439 144.406 32.2747C144.94 33.1056 145.659 33.7519 146.562 34.2137C147.465 34.6755 148.477 34.9064 149.598 34.9064C150.164 34.9064 150.732 34.8471 151.298 34.7284C151.865 34.6097 152.396 34.4446 152.891 34.2341C153.385 34.0236 153.791 33.7788 154.107 33.5025V30.753L155.373 29.9621V29.6653H149.775V29.9621L151.278 30.7336V33.7603C150.922 33.8391 150.566 33.879 150.21 33.879C149.036 33.879 148.126 33.4404 147.48 32.5631C146.833 31.6859 146.511 30.5296 146.511 29.0913C146.511 28.1686 146.662 27.3545 146.966 26.6488C147.269 25.9431 147.708 25.3895 148.282 24.9871C148.856 24.5846 149.545 24.3834 150.349 24.3834C150.731 24.3834 151.064 24.4261 151.348 24.5123C151.631 24.5985 151.951 24.7534 152.307 24.9769L153.751 27.1922H154.088L153.91 24.2248C153.422 24.0004 152.897 23.8094 152.337 23.6508C151.776 23.4923 151.054 23.4134 150.171 23.4134C149.276 23.4134 148.432 23.5553 147.64 23.8381ZM168.905 33.2048C168.417 32.7569 168.034 32.1366 167.758 31.3456C167.481 30.5546 167.343 29.6514 167.343 28.636C167.343 27.8051 167.458 27.0735 167.688 26.4402C167.919 25.8068 168.242 25.3126 168.657 24.9565C169.073 24.6004 169.558 24.4223 170.111 24.4223C170.731 24.4223 171.282 24.6468 171.763 25.0946C172.244 25.5435 172.62 26.1601 172.891 26.9446C173.16 27.7291 173.296 28.6295 173.296 29.6449C173.296 30.8847 173.055 31.9001 172.573 32.6911C172.092 33.4821 171.429 33.8781 170.585 33.8781C169.953 33.8771 169.393 33.6527 168.905 33.2048ZM167.233 24.1451C166.343 24.6468 165.641 25.332 165.126 26.2018C164.612 27.0726 164.355 28.0546 164.355 29.1497C164.355 30.2579 164.612 31.2436 165.126 32.1069C165.641 32.9711 166.343 33.6536 167.233 34.1544C168.123 34.6561 169.148 34.9064 170.309 34.9064C171.469 34.9064 172.497 34.6561 173.395 34.1544C174.292 33.6536 174.997 32.9711 175.511 32.1069C176.026 31.2436 176.283 30.2579 176.283 29.1497C176.283 28.0555 176.026 27.0726 175.511 26.2018C174.997 25.3311 174.292 24.6458 173.395 24.1451C172.498 23.6443 171.47 23.393 170.309 23.393C169.149 23.393 168.123 23.6443 167.233 24.1451ZM86.4187 28.457H87.7837C88.8251 28.457 89.6263 28.6648 90.1873 29.0802C90.7474 29.4956 91.0284 30.1382 91.0284 31.009C91.0284 31.774 90.7548 32.4009 90.2077 32.8886C89.6606 33.3764 88.8983 33.6203 87.9228 33.6203H86.4197V28.457H86.4187ZM86.4187 22.7402H87.091C89.0161 22.7402 89.9786 23.5516 89.9786 25.1735C89.9786 25.8856 89.7348 26.4494 89.247 26.8649C88.7592 27.2803 88.0795 27.488 87.2097 27.488H86.4187V22.7402ZM81.7507 21.6525V21.9687L83.4319 22.7801V33.5804L81.7507 34.3918V34.708H88.5552C89.6365 34.708 90.6027 34.5429 91.4531 34.2137C92.3034 33.8845 92.9729 33.432 93.4607 32.8589C93.9484 32.2849 94.1923 31.6358 94.1923 30.9107C94.1923 30.0399 93.826 29.3185 93.0944 28.7445C92.3627 28.1705 91.3566 27.7987 90.0779 27.6271C91.0274 27.4027 91.7554 27.0077 92.2635 26.4402C92.7708 25.8736 93.0248 25.2532 93.0248 24.5809C93.0248 23.9216 92.8106 23.3773 92.3822 22.9489C91.9538 22.5205 91.3668 22.1968 90.6222 21.9798C89.8766 21.7619 89.03 21.6534 88.0805 21.6534H81.7507V21.6525ZM12.3996 21.9687C11.5029 22.3118 10.7045 22.7996 10.0062 23.4329C9.30705 24.0663 8.75994 24.8081 8.36398 25.6584C7.96802 26.5088 7.77051 27.4416 7.77051 28.457C7.77051 29.3806 7.94484 30.2347 8.29443 31.0183C8.64403 31.8027 9.13179 32.4852 9.75864 33.0657C10.3846 33.6462 11.1107 34.0978 11.935 34.4205C12.7594 34.7432 13.6459 34.9055 14.5955 34.9055C15.162 34.9055 15.7592 34.836 16.3861 34.6978C17.012 34.5596 17.6129 34.3686 18.186 34.1238C18.76 33.8799 19.2505 33.5869 19.6595 33.2438V30.039L21.1431 29.0895V28.7732H14.9321V29.0895L16.6921 30.0195V33.6787C16.4278 33.7315 16.1644 33.7677 15.9011 33.7872C15.6368 33.8066 15.3929 33.8168 15.1695 33.8168C14.3646 33.8168 13.6366 33.5859 12.9838 33.1242C12.331 32.6624 11.8135 32.0068 11.4315 31.1555C11.0485 30.3052 10.8575 29.286 10.8575 28.0991C10.8575 26.965 11.055 25.9728 11.451 25.1225C11.8469 24.2721 12.3801 23.6091 13.0533 23.1343C13.7256 22.6595 14.4777 22.4222 15.3085 22.4222C15.7305 22.4222 16.106 22.4648 16.4361 22.5511C16.7653 22.6373 17.1084 22.7922 17.4645 23.0156L19.3636 25.8838H19.7197L19.5018 22.4027C19.1188 22.2181 18.7331 22.0531 18.3445 21.9084C17.9551 21.7638 17.5137 21.6516 17.0194 21.5718C16.5252 21.493 15.928 21.4531 15.2288 21.4531C14.2394 21.455 13.2963 21.6265 12.3996 21.9687Z" fill="url(#paint7_linear_522_5146)"/>
<path d="M60.4009 47.7284C60.2507 47.7126 60.1088 47.7052 59.9734 47.7052C58.2792 47.7052 57.708 48.8699 57.555 49.2723C57.389 48.8365 56.7362 47.5142 54.7091 47.7284C52.8174 48.078 52.1878 49.7499 52.4335 51.3467C52.8239 53.8801 56.7019 55.5511 57.5216 57.1201L57.555 57.1822L57.5884 57.1201C58.4081 55.5502 62.2852 53.8801 62.6765 51.3467C62.9232 49.749 62.2935 48.077 60.4009 47.7284Z" fill="url(#paint8_linear_522_5146)"/>
<path d="M48.183 50.8916C47.8566 50.8916 47.5459 50.9556 47.2585 51.0678C47.634 50.6264 47.8612 50.0561 47.8612 49.4311C47.8612 48.0346 46.7299 46.9023 45.3334 46.9023C43.9369 46.9023 42.8037 48.0346 42.8037 49.4311C42.8037 50.0561 43.0318 50.6264 43.4064 51.0678C43.1208 50.9547 42.8093 50.8916 42.4829 50.8916C41.0863 50.8916 39.9541 52.0238 39.9541 53.4194C39.9541 54.8159 41.0854 55.9482 42.4829 55.9482C43.7013 55.9482 44.7158 55.0858 44.956 53.9387C44.9894 55.1257 45.07 55.8759 43.6921 57.1574H46.9729C45.5661 55.8462 45.6644 55.1053 45.7071 53.9304C45.938 55.0876 46.9562 55.9482 48.1821 55.9482C49.5776 55.9482 50.7108 54.8159 50.7108 53.4194C50.7108 52.0238 49.5786 50.8916 48.183 50.8916Z" fill="url(#paint9_linear_522_5146)"/>
<path d="M33.734 46.293C32.7974 48.2051 30.9234 50.7551 29.5176 52.0293C30.9234 53.3043 32.7974 55.8535 33.734 57.7656C34.6706 55.8535 36.5447 53.3043 37.9505 52.0293C36.5447 50.7551 34.6706 48.206 33.734 46.293Z" fill="url(#paint10_linear_522_5146)"/>
<path d="M25.6422 50.0863C25.4382 49.9259 25.2277 49.759 25.0117 49.58C23.4427 48.2762 22.1992 46.5273 22.1973 46.5273C22.1964 46.5264 20.952 48.2762 19.383 49.58C19.1669 49.759 18.9564 49.9259 18.7524 50.0863C17.6934 50.9218 16.857 51.5821 16.8468 52.8376C16.8403 53.5776 17.1342 54.2768 17.673 54.8054C18.2108 55.3321 18.9286 55.626 19.6945 55.6316L19.7233 55.6325C20.5263 55.6325 21.2422 55.307 21.781 54.7414C21.691 55.1346 21.6168 55.6084 21.5065 55.907C21.0864 57.0494 20.3863 57.5344 20.4327 57.5363H23.962C24.0083 57.5354 23.3082 57.0494 22.8882 55.907C22.7787 55.6084 22.7036 55.1346 22.6146 54.7414C23.1534 55.307 23.8692 55.6325 24.6723 55.6325L24.701 55.6316C25.467 55.626 26.1847 55.3321 26.7226 54.8054C27.2613 54.2768 27.5553 53.5776 27.5488 52.8376C27.5377 51.5811 26.7012 50.9209 25.6422 50.0863Z" fill="url(#paint11_linear_522_5146)"/>
<path d="M164.22 47.7284C164.071 47.7126 163.928 47.7052 163.793 47.7052C162.099 47.7052 161.527 48.8699 161.374 49.2723C161.208 48.8365 160.556 47.5142 158.528 47.7284C156.637 48.078 156.007 49.7499 156.253 51.3467C156.643 53.8801 160.521 55.5511 161.341 57.1201L161.374 57.1822L161.408 57.1201C162.227 55.5502 166.105 53.8801 166.496 51.3467C166.742 49.749 166.112 48.077 164.22 47.7284Z" fill="url(#paint12_linear_522_5146)"/>
<path d="M152.001 50.8916C151.675 50.8916 151.363 50.9556 151.077 51.0678C151.452 50.6264 151.68 50.0561 151.68 49.4311C151.68 48.0346 150.548 46.9023 149.152 46.9023C147.755 46.9023 146.622 48.0346 146.622 49.4311C146.622 50.0561 146.85 50.6264 147.225 51.0678C146.939 50.9547 146.628 50.8916 146.301 50.8916C144.905 50.8916 143.772 52.0238 143.772 53.4194C143.772 54.8159 144.904 55.9482 146.301 55.9482C147.52 55.9482 148.534 55.0858 148.774 53.9387C148.808 55.1257 148.888 55.8759 147.51 57.1574H150.791C149.385 55.8462 149.483 55.1053 149.525 53.9304C149.756 55.0876 150.775 55.9482 152 55.9482C153.396 55.9482 154.529 54.8159 154.529 53.4194C154.53 52.0238 153.397 50.8916 152.001 50.8916Z" fill="url(#paint13_linear_522_5146)"/>
<path d="M137.552 46.293C136.616 48.2051 134.742 50.7551 133.336 52.0293C134.742 53.3043 136.616 55.8535 137.552 57.7656C138.49 55.8535 140.363 53.3043 141.769 52.0293C140.363 50.7551 138.49 48.206 137.552 46.293Z" fill="url(#paint14_linear_522_5146)"/>
<path d="M129.461 50.0863C129.257 49.9259 129.045 49.759 128.83 49.58C127.261 48.2762 126.018 46.5273 126.016 46.5273C126.015 46.5264 124.77 48.2762 123.201 49.58C122.985 49.759 122.775 49.9259 122.571 50.0863C121.512 50.9218 120.675 51.5821 120.665 52.8376C120.659 53.5776 120.953 54.2768 121.491 54.8054C122.029 55.3321 122.747 55.626 123.513 55.6316L123.542 55.6325C124.345 55.6325 125.061 55.307 125.599 54.7414C125.509 55.1346 125.435 55.6084 125.325 55.907C124.905 57.0494 124.205 57.5344 124.251 57.5363H127.78C127.827 57.5354 127.127 57.0494 126.707 55.907C126.597 55.6084 126.522 55.1346 126.433 54.7414C126.972 55.307 127.688 55.6325 128.491 55.6325L128.519 55.6316C129.285 55.626 130.003 55.3321 130.541 54.8054C131.08 54.2768 131.373 53.5776 131.367 52.8376C131.356 51.5811 130.52 50.9209 129.461 50.0863Z" fill="url(#paint15_linear_522_5146)"/>
<path d="M93.1018 47.9901V48.1885L93.9197 48.5975V54.3226L93.1018 54.7316V54.93H96.6209V54.7316L95.7288 54.3226V48.5975L96.6209 48.1885V47.9901H93.1018ZM102.866 47.9901V48.1885L104.068 48.5975V52.5756L99.9416 47.9901H97.6984V48.1885L98.6155 48.5975V54.3106L97.6984 54.7195V54.93H100.574V54.7195L99.3722 54.2985V49.9365L103.945 54.9801H104.825V48.5984L105.73 48.1895V47.991H102.866V47.9901ZM81.415 49.6629L82.4063 52.0294H80.4358L81.415 49.6629ZM81.44 47.928L78.6767 54.3718L78.0443 54.7316V54.93H80.3495V54.7316L79.4695 54.3597L80.1761 52.6618H82.6798L83.3864 54.3597L82.5064 54.7316V54.93H85.9764V54.7316L85.2086 54.2976L82.4944 47.928H81.44ZM88.3243 48.1514C87.9321 48.3499 87.6177 48.6123 87.3831 48.9387C87.1476 49.2651 87.0298 49.6259 87.0298 50.0227C87.0298 50.4855 87.1559 50.874 87.4072 51.1874C87.6595 51.5018 88.0415 51.7744 88.5534 52.0053C89.0078 52.2204 89.3731 52.3957 89.6504 52.532C89.9267 52.6683 90.127 52.8046 90.2513 52.941C90.3746 53.0773 90.4367 53.2609 90.4367 53.4927C90.4367 53.8071 90.3208 54.0426 90.0899 54.1993C89.859 54.356 89.541 54.4348 89.1357 54.4348C88.648 54.4348 88.2186 54.3152 87.8468 54.075L86.9918 52.749H86.7934L86.9046 54.509C87.2348 54.6741 87.5797 54.8067 87.9395 54.9059C88.2993 55.0051 88.7138 55.0543 89.1849 55.0543C89.6967 55.0543 90.1613 54.968 90.5795 54.7937C90.9968 54.6203 91.3269 54.3727 91.5708 54.05C91.8147 53.7282 91.9362 53.3517 91.9362 52.9224C91.9362 52.5756 91.8703 52.2779 91.7377 52.0303C91.6061 51.7828 91.3993 51.5556 91.1183 51.3488C90.8373 51.142 90.4775 50.9315 90.0398 50.7164C89.6847 50.543 89.3972 50.3946 89.1784 50.2703C88.9595 50.1461 88.8019 50.0209 88.7073 49.8929C88.6118 49.7649 88.5645 49.6055 88.5645 49.4154C88.5645 49.126 88.6656 48.897 88.8677 48.7273C89.0699 48.5576 89.3369 48.4732 89.6671 48.4732C89.8488 48.4732 90.012 48.4899 90.1567 48.5233C90.3013 48.5567 90.4441 48.6142 90.5842 48.6967L91.4892 50.0227H91.6877L91.5764 48.3369C91.3038 48.1885 91.0024 48.0708 90.6713 47.9836C90.3412 47.8964 89.9851 47.8538 89.6059 47.8538C89.1441 47.8538 88.7166 47.953 88.3243 48.1514ZM109.695 53.9879C109.389 53.7069 109.15 53.3184 108.976 52.8232C108.803 52.3271 108.716 51.7614 108.716 51.1253C108.716 50.6051 108.788 50.1461 108.933 49.7501C109.077 49.3532 109.28 49.0435 109.54 48.821C109.801 48.5984 110.104 48.4862 110.452 48.4862C110.84 48.4862 111.184 48.6271 111.486 48.9072C111.788 49.1882 112.023 49.5748 112.193 50.0663C112.363 50.5578 112.447 51.1216 112.447 51.7577C112.447 52.5339 112.296 53.17 111.995 53.6661C111.693 54.1613 111.278 54.4098 110.749 54.4098C110.351 54.4098 110.001 54.2689 109.695 53.9879ZM108.648 48.3128C108.091 48.6271 107.65 49.0565 107.328 49.6017C107.007 50.147 106.845 50.7627 106.845 51.448C106.845 52.1416 107.007 52.7601 107.328 53.3007C107.65 53.8423 108.091 54.2698 108.648 54.5832C109.205 54.8976 109.848 55.0543 110.575 55.0543C111.302 55.0543 111.946 54.8976 112.508 54.5832C113.07 54.2689 113.512 53.8414 113.834 53.3007C114.156 52.7601 114.318 52.1416 114.318 51.448C114.318 50.7627 114.156 50.147 113.834 49.6017C113.512 49.0565 113.07 48.6271 112.508 48.3128C111.946 47.9994 111.302 47.8417 110.575 47.8417C109.848 47.8417 109.205 47.9984 108.648 48.3128ZM72.5361 46.9617C71.9945 47.1852 71.5114 47.4968 71.0858 47.8974C70.6602 48.298 70.3235 48.7635 70.076 49.292C69.8284 49.8206 69.7041 50.3946 69.7041 51.015C69.7041 51.7837 69.884 52.4708 70.2429 53.0782C70.6027 53.6856 71.108 54.1668 71.7609 54.522C72.4137 54.8772 73.1731 55.0552 74.0411 55.0552C74.6355 55.0552 75.1706 54.9977 75.6463 54.8818C76.121 54.7659 76.5281 54.6092 76.8666 54.4107L77.04 52.3169H76.8295L75.7139 53.9777C75.4914 54.1019 75.2577 54.203 75.0138 54.2809C74.77 54.3597 74.4955 54.3987 74.1895 54.3987C73.71 54.3987 73.2789 54.2559 72.8949 53.9712C72.511 53.6865 72.2069 53.2813 71.9843 52.7564C71.7618 52.2316 71.6496 51.6103 71.6496 50.8916C71.6496 50.1646 71.7655 49.5266 71.9964 48.9767C72.2273 48.4268 72.5435 48.0021 72.9441 47.6998C73.3447 47.3985 73.7972 47.2473 74.3007 47.2473C74.5567 47.2473 74.7755 47.2761 74.9573 47.3336C75.139 47.3911 75.3328 47.4866 75.5396 47.6182L76.7173 49.5387H76.9408L76.8045 47.2214C76.5736 47.1054 76.3417 47.0025 76.1108 46.9116C75.8799 46.8208 75.6194 46.7503 75.33 46.7011C75.0407 46.652 74.6772 46.627 74.2395 46.627C73.6451 46.627 73.0776 46.7382 72.5361 46.9617Z" fill="url(#paint16_linear_522_5146)"/>
<path d="M93.1018 47.9901V48.1885L93.9197 48.5975V54.3226L93.1018 54.7316V54.93H96.6209V54.7316L95.7288 54.3226V48.5975L96.6209 48.1885V47.9901H93.1018ZM102.866 47.9901V48.1885L104.068 48.5975V52.5756L99.9416 47.9901H97.6984V48.1885L98.6155 48.5975V54.3106L97.6984 54.7195V54.93H100.574V54.7195L99.3722 54.2985V49.9365L103.945 54.9801H104.825V48.5984L105.73 48.1895V47.991H102.866V47.9901ZM81.415 49.6629L82.4063 52.0294H80.4358L81.415 49.6629ZM81.44 47.928L78.6767 54.3718L78.0443 54.7316V54.93H80.3495V54.7316L79.4695 54.3597L80.1761 52.6618H82.6798L83.3864 54.3597L82.5064 54.7316V54.93H85.9764V54.7316L85.2086 54.2976L82.4944 47.928H81.44ZM88.3243 48.1514C87.9321 48.3499 87.6177 48.6123 87.3831 48.9387C87.1476 49.2651 87.0298 49.6259 87.0298 50.0227C87.0298 50.4855 87.1559 50.874 87.4072 51.1874C87.6595 51.5018 88.0415 51.7744 88.5534 52.0053C89.0078 52.2204 89.3731 52.3957 89.6504 52.532C89.9267 52.6683 90.127 52.8046 90.2513 52.941C90.3746 53.0773 90.4367 53.2609 90.4367 53.4927C90.4367 53.8071 90.3208 54.0426 90.0899 54.1993C89.859 54.356 89.541 54.4348 89.1357 54.4348C88.648 54.4348 88.2186 54.3152 87.8468 54.075L86.9918 52.749H86.7934L86.9046 54.509C87.2348 54.6741 87.5797 54.8067 87.9395 54.9059C88.2993 55.0051 88.7138 55.0543 89.1849 55.0543C89.6967 55.0543 90.1613 54.968 90.5795 54.7937C90.9968 54.6203 91.3269 54.3727 91.5708 54.05C91.8147 53.7282 91.9362 53.3517 91.9362 52.9224C91.9362 52.5756 91.8703 52.2779 91.7377 52.0303C91.6061 51.7828 91.3993 51.5556 91.1183 51.3488C90.8373 51.142 90.4775 50.9315 90.0398 50.7164C89.6847 50.543 89.3972 50.3946 89.1784 50.2703C88.9595 50.1461 88.8019 50.0209 88.7073 49.8929C88.6118 49.7649 88.5645 49.6055 88.5645 49.4154C88.5645 49.126 88.6656 48.897 88.8677 48.7273C89.0699 48.5576 89.3369 48.4732 89.6671 48.4732C89.8488 48.4732 90.012 48.4899 90.1567 48.5233C90.3013 48.5567 90.4441 48.6142 90.5842 48.6967L91.4892 50.0227H91.6877L91.5764 48.3369C91.3038 48.1885 91.0024 48.0708 90.6713 47.9836C90.3412 47.8964 89.9851 47.8538 89.6059 47.8538C89.1441 47.8538 88.7166 47.953 88.3243 48.1514ZM109.695 53.9879C109.389 53.7069 109.15 53.3184 108.976 52.8232C108.803 52.3271 108.716 51.7614 108.716 51.1253C108.716 50.6051 108.788 50.1461 108.933 49.7501C109.077 49.3532 109.28 49.0435 109.54 48.821C109.801 48.5984 110.104 48.4862 110.452 48.4862C110.84 48.4862 111.184 48.6271 111.486 48.9072C111.788 49.1882 112.023 49.5748 112.193 50.0663C112.363 50.5578 112.447 51.1216 112.447 51.7577C112.447 52.5339 112.296 53.17 111.995 53.6661C111.693 54.1613 111.278 54.4098 110.749 54.4098C110.351 54.4098 110.001 54.2689 109.695 53.9879ZM108.648 48.3128C108.091 48.6271 107.65 49.0565 107.328 49.6017C107.007 50.147 106.845 50.7627 106.845 51.448C106.845 52.1416 107.007 52.7601 107.328 53.3007C107.65 53.8423 108.091 54.2698 108.648 54.5832C109.205 54.8976 109.848 55.0543 110.575 55.0543C111.302 55.0543 111.946 54.8976 112.508 54.5832C113.07 54.2689 113.512 53.8414 113.834 53.3007C114.156 52.7601 114.318 52.1416 114.318 51.448C114.318 50.7627 114.156 50.147 113.834 49.6017C113.512 49.0565 113.07 48.6271 112.508 48.3128C111.946 47.9994 111.302 47.8417 110.575 47.8417C109.848 47.8417 109.205 47.9984 108.648 48.3128ZM72.5361 46.9617C71.9945 47.1852 71.5114 47.4968 71.0858 47.8974C70.6602 48.298 70.3235 48.7635 70.076 49.292C69.8284 49.8206 69.7041 50.3946 69.7041 51.015C69.7041 51.7837 69.884 52.4708 70.2429 53.0782C70.6027 53.6856 71.108 54.1668 71.7609 54.522C72.4137 54.8772 73.1731 55.0552 74.0411 55.0552C74.6355 55.0552 75.1706 54.9977 75.6463 54.8818C76.121 54.7659 76.5281 54.6092 76.8666 54.4107L77.04 52.3169H76.8295L75.7139 53.9777C75.4914 54.1019 75.2577 54.203 75.0138 54.2809C74.77 54.3597 74.4955 54.3987 74.1895 54.3987C73.71 54.3987 73.2789 54.2559 72.8949 53.9712C72.511 53.6865 72.2069 53.2813 71.9843 52.7564C71.7618 52.2316 71.6496 51.6103 71.6496 50.8916C71.6496 50.1646 71.7655 49.5266 71.9964 48.9767C72.2273 48.4268 72.5435 48.0021 72.9441 47.6998C73.3447 47.3985 73.7972 47.2473 74.3007 47.2473C74.5567 47.2473 74.7755 47.2761 74.9573 47.3336C75.139 47.3911 75.3328 47.4866 75.5396 47.6182L76.7173 49.5387H76.9408L76.8045 47.2214C76.5736 47.1054 76.3417 47.0025 76.1108 46.9116C75.8799 46.8208 75.6194 46.7503 75.33 46.7011C75.0407 46.652 74.6772 46.627 74.2395 46.627C73.6451 46.627 73.0776 46.7382 72.5361 46.9617Z" fill="url(#paint17_linear_522_5146)"/>
<defs>
<linearGradient id="paint0_linear_522_5146" x1="7.47738" y1="41.9704" x2="176.289" y2="41.9704" gradientUnits="userSpaceOnUse">
<stop stop-color="#C89135"/>
<stop offset="0.1131" stop-color="#FCC456"/>
<stop offset="0.2624" stop-color="#BF862C"/>
<stop offset="0.4796" stop-color="#FCC456"/>
<stop offset="0.7014" stop-color="#FFD382"/>
<stop offset="0.8371" stop-color="#FCC456"/>
<stop offset="1" stop-color="#815F26"/>
</linearGradient>
<linearGradient id="paint1_linear_522_5146" x1="7.47357" y1="41.9794" x2="176.284" y2="41.9794" gradientUnits="userSpaceOnUse">
<stop stop-color="#C89135"/>
<stop offset="0.1131" stop-color="#FCC456"/>
<stop offset="0.2624" stop-color="#BF862C"/>
<stop offset="0.4796" stop-color="#FCC456"/>
<stop offset="0.7014" stop-color="#FFD382"/>
<stop offset="0.8371" stop-color="#FCC456"/>
<stop offset="1" stop-color="#815F26"/>
</linearGradient>
<linearGradient id="paint2_linear_522_5146" x1="7.77114" y1="15.1739" x2="176.272" y2="15.1739" gradientUnits="userSpaceOnUse">
<stop stop-color="#C89135"/>
<stop offset="0.1131" stop-color="#FCC456"/>
<stop offset="0.2624" stop-color="#BF862C"/>
<stop offset="0.4796" stop-color="#FCC456"/>
<stop offset="0.7014" stop-color="#FFD382"/>
<stop offset="0.8371" stop-color="#FCC456"/>
<stop offset="1" stop-color="#815F26"/>
</linearGradient>
<linearGradient id="paint3_linear_522_5146" x1="43.0541" y1="67.9036" x2="140.705" y2="67.9036" gradientUnits="userSpaceOnUse">
<stop stop-color="#C89135"/>
<stop offset="0.1131" stop-color="#FCC456"/>
<stop offset="0.2624" stop-color="#BF862C"/>
<stop offset="0.4796" stop-color="#FCC456"/>
<stop offset="0.7014" stop-color="#FFD382"/>
<stop offset="0.8371" stop-color="#FCC456"/>
<stop offset="1" stop-color="#815F26"/>
</linearGradient>
<linearGradient id="paint4_linear_522_5146" x1="88.195" y1="10.4875" x2="95.5588" y2="10.4875" gradientUnits="userSpaceOnUse">
<stop stop-color="#C89135"/>
<stop offset="0.1131" stop-color="#FCC456"/>
<stop offset="0.2624" stop-color="#BF862C"/>
<stop offset="0.4796" stop-color="#FCC456"/>
<stop offset="0.7014" stop-color="#FFD382"/>
<stop offset="0.8371" stop-color="#FCC456"/>
<stop offset="1" stop-color="#815F26"/>
</linearGradient>
<linearGradient id="paint5_linear_522_5146" x1="63.6285" y1="10.5708" x2="120.128" y2="10.5708" gradientUnits="userSpaceOnUse">
<stop stop-color="#C89135"/>
<stop offset="0.1131" stop-color="#FCC456"/>
<stop offset="0.2624" stop-color="#BF862C"/>
<stop offset="0.4796" stop-color="#FCC456"/>
<stop offset="0.7014" stop-color="#FFD382"/>
<stop offset="0.8371" stop-color="#FCC456"/>
<stop offset="1" stop-color="#815F26"/>
</linearGradient>
<linearGradient id="paint6_linear_522_5146" x1="7.77109" y1="28.1803" x2="176.283" y2="28.1803" gradientUnits="userSpaceOnUse">
<stop stop-color="#C89135"/>
<stop offset="0.1131" stop-color="#FCC456"/>
<stop offset="0.2624" stop-color="#BF862C"/>
<stop offset="0.4796" stop-color="#FCC456"/>
<stop offset="0.7014" stop-color="#FFD382"/>
<stop offset="0.8371" stop-color="#FCC456"/>
<stop offset="1" stop-color="#815F26"/>
</linearGradient>
<linearGradient id="paint7_linear_522_5146" x1="7.77109" y1="28.1803" x2="176.283" y2="28.1803" gradientUnits="userSpaceOnUse">
<stop stop-color="#C89135"/>
<stop offset="0.1131" stop-color="#FCC456"/>
<stop offset="0.2624" stop-color="#BF862C"/>
<stop offset="0.4796" stop-color="#FCC456"/>
<stop offset="0.7014" stop-color="#FFD382"/>
<stop offset="0.8371" stop-color="#FCC456"/>
<stop offset="1" stop-color="#815F26"/>
</linearGradient>
<linearGradient id="paint8_linear_522_5146" x1="52.3831" y1="52.4435" x2="62.7275" y2="52.4435" gradientUnits="userSpaceOnUse">
<stop stop-color="#C89135"/>
<stop offset="0.1131" stop-color="#FCC456"/>
<stop offset="0.2624" stop-color="#BF862C"/>
<stop offset="0.4796" stop-color="#FCC456"/>
<stop offset="0.7014" stop-color="#FFD382"/>
<stop offset="0.8371" stop-color="#FCC456"/>
<stop offset="1" stop-color="#815F26"/>
</linearGradient>
<linearGradient id="paint9_linear_522_5146" x1="39.9562" y1="52.0302" x2="50.7111" y2="52.0302" gradientUnits="userSpaceOnUse">
<stop stop-color="#C89135"/>
<stop offset="0.1131" stop-color="#FCC456"/>
<stop offset="0.2624" stop-color="#BF862C"/>
<stop offset="0.4796" stop-color="#FCC456"/>
<stop offset="0.7014" stop-color="#FFD382"/>
<stop offset="0.8371" stop-color="#FCC456"/>
<stop offset="1" stop-color="#815F26"/>
</linearGradient>
<linearGradient id="paint10_linear_522_5146" x1="29.5174" y1="52.0301" x2="37.9501" y2="52.0301" gradientUnits="userSpaceOnUse">
<stop stop-color="#C89135"/>
<stop offset="0.1131" stop-color="#FCC456"/>
<stop offset="0.2624" stop-color="#BF862C"/>
<stop offset="0.4796" stop-color="#FCC456"/>
<stop offset="0.7014" stop-color="#FFD382"/>
<stop offset="0.8371" stop-color="#FCC456"/>
<stop offset="1" stop-color="#815F26"/>
</linearGradient>
<linearGradient id="paint11_linear_522_5146" x1="16.8462" y1="52.0317" x2="27.5482" y2="52.0317" gradientUnits="userSpaceOnUse">
<stop stop-color="#C89135"/>
<stop offset="0.1131" stop-color="#FCC456"/>
<stop offset="0.2624" stop-color="#BF862C"/>
<stop offset="0.4796" stop-color="#FCC456"/>
<stop offset="0.7014" stop-color="#FFD382"/>
<stop offset="0.8371" stop-color="#FCC456"/>
<stop offset="1" stop-color="#815F26"/>
</linearGradient>
<linearGradient id="paint12_linear_522_5146" x1="156.202" y1="52.4435" x2="166.546" y2="52.4435" gradientUnits="userSpaceOnUse">
<stop stop-color="#C89135"/>
<stop offset="0.1131" stop-color="#FCC456"/>
<stop offset="0.2624" stop-color="#BF862C"/>
<stop offset="0.4796" stop-color="#FCC456"/>
<stop offset="0.7014" stop-color="#FFD382"/>
<stop offset="0.8371" stop-color="#FCC456"/>
<stop offset="1" stop-color="#815F26"/>
</linearGradient>
<linearGradient id="paint13_linear_522_5146" x1="143.775" y1="52.0302" x2="154.53" y2="52.0302" gradientUnits="userSpaceOnUse">
<stop stop-color="#C89135"/>
<stop offset="0.1131" stop-color="#FCC456"/>
<stop offset="0.2624" stop-color="#BF862C"/>
<stop offset="0.4796" stop-color="#FCC456"/>
<stop offset="0.7014" stop-color="#FFD382"/>
<stop offset="0.8371" stop-color="#FCC456"/>
<stop offset="1" stop-color="#815F26"/>
</linearGradient>
<linearGradient id="paint14_linear_522_5146" x1="133.336" y1="52.0301" x2="141.769" y2="52.0301" gradientUnits="userSpaceOnUse">
<stop stop-color="#C89135"/>
<stop offset="0.1131" stop-color="#FCC456"/>
<stop offset="0.2624" stop-color="#BF862C"/>
<stop offset="0.4796" stop-color="#FCC456"/>
<stop offset="0.7014" stop-color="#FFD382"/>
<stop offset="0.8371" stop-color="#FCC456"/>
<stop offset="1" stop-color="#815F26"/>
</linearGradient>
<linearGradient id="paint15_linear_522_5146" x1="120.665" y1="52.0317" x2="131.367" y2="52.0317" gradientUnits="userSpaceOnUse">
<stop stop-color="#C89135"/>
<stop offset="0.1131" stop-color="#FCC456"/>
<stop offset="0.2624" stop-color="#BF862C"/>
<stop offset="0.4796" stop-color="#FCC456"/>
<stop offset="0.7014" stop-color="#FFD382"/>
<stop offset="0.8371" stop-color="#FCC456"/>
<stop offset="1" stop-color="#815F26"/>
</linearGradient>
<linearGradient id="paint16_linear_522_5146" x1="69.7047" y1="50.8404" x2="114.317" y2="50.8404" gradientUnits="userSpaceOnUse">
<stop stop-color="#C89135"/>
<stop offset="0.1131" stop-color="#FCC456"/>
<stop offset="0.2624" stop-color="#BF862C"/>
<stop offset="0.4796" stop-color="#FCC456"/>
<stop offset="0.7014" stop-color="#FFD382"/>
<stop offset="0.8371" stop-color="#FCC456"/>
<stop offset="1" stop-color="#815F26"/>
</linearGradient>
<linearGradient id="paint17_linear_522_5146" x1="69.7047" y1="50.8404" x2="114.317" y2="50.8404" gradientUnits="userSpaceOnUse">
<stop stop-color="#C89135"/>
<stop offset="0.1131" stop-color="#FCC456"/>
<stop offset="0.2624" stop-color="#BF862C"/>
<stop offset="0.4796" stop-color="#FCC456"/>
<stop offset="0.7014" stop-color="#FFD382"/>
<stop offset="0.8371" stop-color="#FCC456"/>
<stop offset="1" stop-color="#815F26"/>
</linearGradient>
</defs>
</svg>
