<svg width="65" height="64" viewBox="0 0 65 64" fill="none" xmlns="http://www.w3.org/2000/svg">
<g filter="url(#filter0_f_522_5342)">
<path d="M12.7479 28.2706L12.8681 30.5509M14.3228 37.6794L15.2402 40.3491M18.7621 45.7721L20.9589 47.3389M27.1323 49.8608L29.6163 50.3338M36.9487 49.4725L39.6184 48.555M45.9313 44.7273L47.9986 43.0219M50.9191 37.0433L51.9854 34.3552M51.1337 28.0146L50.2163 25.3449M45.9711 16.8537L47.2779 18.7263M26.382 43.817C19.3671 41.8412 16.2473 30.3577 16.8051 22.4941C16.8822 21.406 16.1183 20.4024 15.0328 20.2948L10.4541 19.8411C9.50941 19.7474 8.63735 20.3777 8.45874 21.3101C4.7177 40.8385 15.2419 51.3074 23.288 55.0052C24.2831 55.4626 25.3452 55.7595 26.4281 55.9232C40.1049 57.9904 49.5784 50.3142 52.6892 46.0533C63.069 33.209 52.8045 16.6581 45.3655 8.82358C44.6715 8.09262 43.5243 8.09476 42.7942 8.78973L39.479 11.9455C38.7208 12.6672 38.7025 13.8665 39.3893 14.6564C44.9354 21.0353 46.6613 27.8116 46.6005 31.2307C45.1236 43.1475 31.5228 45.2649 26.382 43.817Z" stroke="#FFA900" stroke-width="3" stroke-linecap="round"/>
</g>
<path d="M12.5418 27.671L12.6621 29.9513M14.1167 37.0798L15.0341 39.7495M18.5561 45.1725L20.7528 46.7393M26.9262 49.2612L29.4103 49.7342M36.7426 48.8728L39.4123 47.9554M45.7253 44.1277L47.7925 42.4223M50.713 36.4437L51.7793 33.7556M50.9276 27.415L50.0102 24.7453M45.765 16.2541L47.0719 18.1267M26.176 43.2173C19.1611 41.2415 16.0412 29.7581 16.599 21.8945C16.6762 20.8064 15.9123 19.8028 14.8267 19.6952L10.2481 19.2415C9.30336 19.1478 8.4313 19.7781 8.25268 20.7105C4.51165 40.2388 15.0358 50.7078 23.0819 54.4056C24.077 54.863 25.1392 55.1599 26.2221 55.3236C39.8988 57.3908 49.3723 49.7146 52.4832 45.4537C62.863 32.6094 52.5984 16.0584 45.1595 8.22397C44.4654 7.49301 43.3183 7.49515 42.5882 8.19012L39.273 11.3459C38.5148 12.0676 38.4964 13.2669 39.1833 14.0568C44.7293 20.4357 46.4553 27.2119 46.3944 30.6311C44.9176 42.5479 31.3167 44.6653 26.176 43.2173Z" stroke="white" stroke-linecap="round"/>
<defs>
<filter id="filter0_f_522_5342" x="0.179688" y="0.771484" width="64.4111" height="63" filterUnits="userSpaceOnUse" color-interpolation-filters="sRGB">
<feFlood flood-opacity="0" result="BackgroundImageFix"/>
<feBlend mode="normal" in="SourceGraphic" in2="BackgroundImageFix" result="shape"/>
<feGaussianBlur stdDeviation="3" result="effect1_foregroundBlur_522_5342"/>
</filter>
</defs>
</svg>
