<svg width="177" height="76" viewBox="0 0 177 76" fill="none" xmlns="http://www.w3.org/2000/svg">
<g filter="url(#filter0_f_499_383)">
<path d="M15 21C15 17.6863 17.6863 15 21 15H156C159.314 15 162 17.6863 162 21V55C162 58.3137 159.314 61 156 61H20.9998C17.6861 61 14.9998 58.3137 14.9998 55L15 21Z" fill="#DF84F9"/>
</g>
<path d="M21 25C21 21.6863 23.6863 19 27 19H150C153.314 19 156 21.6863 156 25V51C156 54.3137 153.314 57 150 57H87.8806H27.0002C23.6865 57 21.0002 54.3137 21.0002 51L21 25Z" fill="#FFF6FF"/>
<path d="M35.0114 44V32.3636H37.4716V41.9716H42.4602V44H35.0114ZM44.4095 44V32.3636H52.2504V34.392H46.8697V37.1648H51.847V39.1932H46.8697V41.9716H52.2731V44H44.4095ZM56.532 44H53.8957L57.9127 32.3636H61.0832L65.0945 44H62.4582L59.5434 35.0227H59.4525L56.532 44ZM56.3673 39.4261H62.5945V41.3466H56.3673V39.4261ZM66.8151 44V32.3636H71.406C72.2848 32.3636 73.0348 32.5208 73.656 32.8352C74.281 33.1458 74.7564 33.5871 75.0822 34.1591C75.4117 34.7273 75.5765 35.3958 75.5765 36.1648C75.5765 36.9375 75.4098 37.6023 75.0765 38.1591C74.7431 38.7121 74.2602 39.1364 73.6276 39.4318C72.9988 39.7273 72.2375 39.875 71.3435 39.875H68.2697V37.8977H70.9458C71.4155 37.8977 71.8056 37.8333 72.1162 37.7045C72.4269 37.5758 72.6579 37.3826 72.8094 37.125C72.9647 36.8674 73.0424 36.5473 73.0424 36.1648C73.0424 35.7784 72.9647 35.4527 72.8094 35.1875C72.6579 34.9223 72.425 34.7216 72.1106 34.5852C71.8 34.4451 71.4079 34.375 70.9344 34.375H69.2753V44H66.8151ZM73.0992 38.7045L75.9912 44H73.2753L70.4458 38.7045H73.0992ZM87.3681 32.3636V44H85.2431L80.1806 36.6761H80.0953V44H77.6351V32.3636H79.7942L84.8169 39.6818H84.9192V32.3636H87.3681ZM93.7439 32.3636H96.778L99.9825 40.1818H100.119L103.323 32.3636H106.357V44H103.971V36.4261H103.875L100.863 43.9432H99.2382L96.2268 36.3977H96.1302V44H93.7439V32.3636ZM119.398 38.1818C119.398 39.4508 119.157 40.5303 118.676 41.4205C118.199 42.3106 117.547 42.9905 116.722 43.4602C115.9 43.9261 114.975 44.1591 113.949 44.1591C112.915 44.1591 111.987 43.9242 111.165 43.4545C110.343 42.9848 109.693 42.3049 109.216 41.4148C108.739 40.5246 108.5 39.447 108.5 38.1818C108.5 36.9129 108.739 35.8333 109.216 34.9432C109.693 34.053 110.343 33.375 111.165 32.9091C111.987 32.4394 112.915 32.2045 113.949 32.2045C114.975 32.2045 115.9 32.4394 116.722 32.9091C117.547 33.375 118.199 34.053 118.676 34.9432C119.157 35.8333 119.398 36.9129 119.398 38.1818ZM116.903 38.1818C116.903 37.3598 116.78 36.6667 116.534 36.1023C116.292 35.5379 115.949 35.1098 115.506 34.8182C115.062 34.5265 114.544 34.3807 113.949 34.3807C113.354 34.3807 112.835 34.5265 112.392 34.8182C111.949 35.1098 111.604 35.5379 111.358 36.1023C111.115 36.6667 110.994 37.3598 110.994 38.1818C110.994 39.0038 111.115 39.697 111.358 40.2614C111.604 40.8258 111.949 41.2538 112.392 41.5455C112.835 41.8371 113.354 41.983 113.949 41.983C114.544 41.983 115.062 41.8371 115.506 41.5455C115.949 41.2538 116.292 40.8258 116.534 40.2614C116.78 39.697 116.903 39.0038 116.903 38.1818ZM121.54 44V32.3636H126.131C127.01 32.3636 127.76 32.5208 128.381 32.8352C129.006 33.1458 129.481 33.5871 129.807 34.1591C130.137 34.7273 130.301 35.3958 130.301 36.1648C130.301 36.9375 130.135 37.6023 129.801 38.1591C129.468 38.7121 128.985 39.1364 128.353 39.4318C127.724 39.7273 126.962 39.875 126.069 39.875H122.995V37.8977H125.671C126.14 37.8977 126.531 37.8333 126.841 37.7045C127.152 37.5758 127.383 37.3826 127.534 37.125C127.69 36.8674 127.767 36.5473 127.767 36.1648C127.767 35.7784 127.69 35.4527 127.534 35.1875C127.383 34.9223 127.15 34.7216 126.836 34.5852C126.525 34.4451 126.133 34.375 125.659 34.375H124V44H121.54ZM127.824 38.7045L130.716 44H128L125.171 38.7045H127.824ZM132.36 44V32.3636H140.201V34.392H134.82V37.1648H139.798V39.1932H134.82V41.9716H140.224V44H132.36Z" fill="#24094E"/>
<defs>
<filter id="filter0_f_499_383" x="0.6" y="0.6" width="175.8" height="74.8" filterUnits="userSpaceOnUse" color-interpolation-filters="sRGB">
<feFlood flood-opacity="0" result="BackgroundImageFix"/>
<feBlend mode="normal" in="SourceGraphic" in2="BackgroundImageFix" result="shape"/>
<feGaussianBlur stdDeviation="7.2" result="effect1_foregroundBlur_499_383"/>
</filter>
</defs>
</svg>
