<svg width="63" height="68" viewBox="0 0 63 68" fill="none" xmlns="http://www.w3.org/2000/svg">
<g filter="url(#filter0_f_522_5341)">
<path d="M46.6106 7.5465C39.641 4.25576 22.6917 1.47005 14.5931 17.3144C14.5611 17.3771 14.6028 17.4552 14.6726 17.4638C20.437 18.1703 21.6702 18.5435 30.0337 22.2654C31.0955 22.7379 32.2177 23.13 33.377 23.0497C35.2793 22.9178 38.0899 22.1687 40.874 19.8827C44.7323 16.7149 47.389 13.5877 48.2351 12.4201C44.3431 11.2694 33.9394 10.0138 23.4612 14.1969" stroke="#00FF0A" stroke-width="3" stroke-linecap="round"/>
</g>
<g filter="url(#filter1_f_522_5341)">
<path fill-rule="evenodd" clip-rule="evenodd" d="M53.667 16.3063C53.0098 15.8019 52.0682 15.9257 51.5638 16.5828C51.0594 17.24 51.1832 18.1816 51.8404 18.6861C55.1368 21.2163 56.5275 25.0943 56.849 29.1316C57.1708 33.1708 56.3982 37.1604 55.5955 39.5606L55.5918 39.5716L55.5883 39.5826C54.2015 43.952 51.3086 47.9545 48.1749 51.2121C45.0472 54.4634 41.7683 56.881 39.748 58.0916L39.7294 58.1027L39.7112 58.1144C32.3838 62.7979 23.1771 62.1122 19.426 61.1522C16.1389 59.7922 12.2851 60.5928 9.98801 61.3871C8.93785 61.7502 8.28248 61.957 7.6722 61.8835C6.84402 61.7838 6.49271 61.5051 6.3248 61.2967C6.13516 61.0613 6.01057 60.7027 6.0004 60.1998C5.99208 59.7882 6.11028 59.3389 6.35791 58.7396C6.45771 58.4981 6.56545 58.2616 6.68594 57.9971L6.77985 57.7906C6.93231 57.4542 7.0993 57.0771 7.24335 56.6814C7.73948 55.3186 8.02678 53.8627 8.18544 52.6145C8.38569 51.0391 8.13955 49.438 7.93251 48.0912L7.93249 48.0911C7.88978 47.8133 7.84874 47.5463 7.81362 47.2926C7.22641 43.0505 8.43227 38.4859 10.328 34.3782C12.2165 30.2861 14.7183 26.8025 16.5104 24.7882C17.0611 24.1693 17.0057 23.2212 16.3868 22.6705C15.7679 22.1199 14.8198 22.1752 14.2691 22.7941C12.2989 25.0086 9.62727 28.7373 7.60412 33.121C5.58826 37.4891 4.14426 42.6637 4.84195 47.7039C4.88981 48.0497 4.93937 48.3788 4.98695 48.6948L4.98696 48.6949C5.18675 50.0218 5.35165 51.117 5.20939 52.2362C5.06851 53.3445 4.82053 54.5669 4.42435 55.6552C4.32207 55.9361 4.19561 56.2251 4.04737 56.5522L3.96567 56.7318L3.96561 56.7319C3.84321 57.0004 3.70759 57.298 3.58531 57.5939C3.28226 58.3273 2.98022 59.2322 3.00102 60.2605C3.0199 61.1944 3.25678 62.2704 3.98866 63.1789C4.74227 64.1142 5.87254 64.6885 7.31364 64.862C8.66349 65.0245 9.94014 64.5801 10.8249 64.2722L10.9683 64.2224C13.0962 63.4866 16.0995 62.986 18.3506 63.9545L18.4528 63.9984L18.5604 64.0269C22.6899 65.1173 32.9472 65.9874 41.3085 60.6539C43.5532 59.3062 47.0314 56.7281 50.3369 53.2919C53.643 49.8551 56.8651 45.4681 58.4443 40.501C59.3493 37.7899 60.1984 33.3987 59.8396 28.8934C59.48 24.3799 57.884 19.5431 53.667 16.3063ZM52.924 30.9679C53.0185 30.1448 52.4279 29.401 51.6049 29.3065C50.7819 29.212 50.0381 29.8026 49.9435 30.6256C49.5712 33.8681 47.0261 42.1924 39.8901 48.3976C32.8865 54.4877 24.2217 54.2868 20.8794 53.4551C20.0754 53.255 19.2616 53.7446 19.0615 54.5485C18.8615 55.3524 19.351 56.1662 20.1549 56.3663C24.1567 57.3621 33.9167 57.5674 41.8587 50.6614C49.6683 43.8704 52.484 34.7988 52.924 30.9679Z" fill="#FAFF00"/>
</g>
<path d="M46.6106 7.5465C39.641 4.25576 22.6917 1.47005 14.5931 17.3144C14.5611 17.3771 14.6028 17.4552 14.6726 17.4638C20.437 18.1703 21.6702 18.5435 30.0337 22.2654C31.0955 22.7379 32.2177 23.13 33.377 23.0497C35.2793 22.9178 38.0899 22.1687 40.874 19.8827C44.7323 16.7149 47.389 13.5877 48.2351 12.4201C44.3431 11.2694 33.9394 10.0138 23.4612 14.1969" stroke="white" stroke-linecap="round"/>
<path fill-rule="evenodd" clip-rule="evenodd" d="M53.0581 17.0995C52.8391 16.9314 52.5252 16.9726 52.357 17.1917C52.1889 17.4107 52.2302 17.7246 52.4492 17.8927C56.0525 20.6585 57.5117 24.8561 57.8459 29.0521C58.1802 33.2488 57.3811 37.3742 56.5439 39.8777L56.5438 39.8777L56.5415 39.8851C55.0909 44.4552 52.0875 48.5871 48.8955 51.9053C45.7056 55.2214 42.3569 57.6941 40.262 58.9493L40.2558 58.9531L40.2497 58.957C32.5561 63.8746 22.9637 63.1103 19.106 62.1023C16.155 60.8504 12.5637 61.5545 10.3148 62.3321L10.3136 62.3325C9.31835 62.6766 8.43407 62.9824 7.55268 62.8763C6.5202 62.752 5.90923 62.3748 5.54609 61.924C5.1757 61.4643 5.01369 60.8666 5.00061 60.22C4.98813 59.6029 5.16761 59.0016 5.43371 58.3577C5.54097 58.0981 5.65794 57.8414 5.77935 57.5749L5.86902 57.3777C6.02008 57.0444 6.17356 56.6967 6.30369 56.3393C6.7665 55.068 7.0407 53.6899 7.19343 52.4883C7.37415 51.0666 7.15584 49.6362 6.95031 48.2896C6.90591 47.9987 6.86212 47.7118 6.82307 47.4297C6.19903 42.9215 7.48427 38.1536 9.42007 33.9591C11.3534 29.7698 13.9119 26.2044 15.7633 24.1235C15.9469 23.9172 15.9284 23.6011 15.7221 23.4176C15.5158 23.234 15.1998 23.2525 15.0162 23.4588C13.1054 25.6065 10.4904 29.2535 8.5121 33.54C6.53626 37.8213 5.17165 42.7926 5.83251 47.5668C5.87578 47.8794 5.9224 48.1869 5.96841 48.4905L5.96841 48.4905C6.17157 49.8308 6.3628 51.0925 6.20141 52.3622C6.05461 53.5172 5.79352 54.8174 5.36402 55.9972C5.24781 56.3164 5.10785 56.6348 4.9582 56.965L4.87261 57.1531L4.8726 57.1531C4.75055 57.421 4.62428 57.698 4.50951 57.9758C4.22493 58.6644 3.98417 59.4175 4.00081 60.2402C4.0168 61.0304 4.21624 61.8674 4.76738 62.5514C5.32575 63.2445 6.19637 63.7202 7.43316 63.8691C8.54644 64.0031 9.62306 63.6301 10.5432 63.3113L10.6416 63.2772C12.8344 62.519 16.1415 61.9153 18.7458 63.0358L18.7799 63.0505L18.8157 63.0599C22.7982 64.1116 32.7425 64.9386 40.7822 59.8034C42.952 58.5023 46.3671 55.9762 49.6162 52.5986C52.8657 49.2207 55.9788 44.9606 57.4935 40.1912C58.3649 37.5839 59.1894 33.3247 58.8427 28.9727C58.4959 24.618 56.9682 20.1008 53.0581 17.0995ZM51.9305 30.8537C51.962 30.5794 51.7651 30.3315 51.4908 30.3C51.2165 30.2684 50.9685 30.4653 50.937 30.7396C50.5422 34.1783 47.9068 42.7517 40.5463 49.1521C33.2299 55.5142 24.2 55.3119 20.6379 54.4254C20.3699 54.3587 20.0986 54.5219 20.0319 54.7899C19.9652 55.0579 20.1284 55.3292 20.3964 55.3958C24.1784 56.337 33.5733 56.5408 41.2025 49.9067C48.7875 43.311 51.5131 34.4885 51.9305 30.8537Z" fill="white"/>
<defs>
<filter id="filter0_f_522_5341" x="10.1859" y="0.604823" width="43.4036" height="26.8509" filterUnits="userSpaceOnUse" color-interpolation-filters="sRGB">
<feFlood flood-opacity="0" result="BackgroundImageFix"/>
<feBlend mode="normal" in="SourceGraphic" in2="BackgroundImageFix" result="shape"/>
<feGaussianBlur stdDeviation="1.44759" result="effect1_foregroundBlur_522_5341"/>
</filter>
<filter id="filter1_f_522_5341" x="0.167085" y="13.1632" width="62.5897" height="54.5662" filterUnits="userSpaceOnUse" color-interpolation-filters="sRGB">
<feFlood flood-opacity="0" result="BackgroundImageFix"/>
<feBlend mode="normal" in="SourceGraphic" in2="BackgroundImageFix" result="shape"/>
<feGaussianBlur stdDeviation="1.41646" result="effect1_foregroundBlur_522_5341"/>
</filter>
</defs>
</svg>
