<svg width="69" height="75" viewBox="0 0 69 75" fill="none" xmlns="http://www.w3.org/2000/svg">
<g filter="url(#filter0_f_522_5334)">
<path d="M34.7273 18.0417L34.7002 7.41677C34.6998 7.24897 34.506 7.15274 34.3673 7.24716C31.883 8.93825 28.8074 8.91382 27.3498 8.65115C27.2235 8.62839 27.0951 8.6839 27.0243 8.79096C24.5332 12.5589 20.7641 12.674 18.9533 12.2121C18.8137 12.1765 18.6665 12.2363 18.5923 12.3598C16.953 15.0906 14.2613 15.9529 12.735 16.0841C12.5561 16.0995 12.4616 16.3218 12.5844 16.4528L19.9037 24.2627M34.7273 18.0417C40.7571 21.1422 54.0727 28.9169 59.0967 35.2116C64.1207 41.5064 63.0564 48.8185 61.8962 51.6878C55.6897 63.6052 39.3937 67.7369 29.2483 68.2045C18.5701 67.5312 15.2674 58.0271 14.9508 53.3592C14.3509 44.5147 17.5431 31.2814 19.9037 24.2627M34.7273 18.0417C36.7735 16.2084 42.0839 12.5287 46.9565 12.4764M34.7273 18.0417C38.1683 16.9947 46.574 16.0805 52.6694 20.7994M34.7273 18.0417C33.8675 18.8853 32.4137 20.054 30.5638 21.1513M19.9037 24.2627C21.9041 24.3143 23.8507 23.9616 25.6537 23.3851M25.6537 23.3851L21.2806 19.0285M25.6537 23.3851C27.4662 22.8055 29.1334 21.9998 30.5638 21.1513M30.5638 21.1513L29.0092 12.1573M37.2585 58.7787C45.9568 56.6263 60.8301 49.2764 50.737 37.0956M38.5311 35.2334C37.9907 34.1608 36.0236 32.3549 32.4784 33.7127M32.4784 33.7127C30.0514 34.6423 29.3092 36.2808 29.177 37.5992C29.0757 38.6098 29.4467 39.642 30.196 40.3277C31.1902 41.2375 32.8668 41.8641 35.4344 40.7562C39.1018 39.1738 41.0748 41.2949 41.6029 42.5532C42.0924 43.7194 42.1312 46.3923 38.371 47.7537M32.4784 33.7127L38.371 47.7537M32.4784 33.7127L31.1261 30.4902M38.371 47.7537C34.6108 49.1152 32.79 47.4428 32.3496 46.4365M38.371 47.7537L39.7427 51.0223" stroke="#FF00B8" stroke-width="3" stroke-linecap="round"/>
</g>
<path d="M34.7273 18.0417L34.7002 7.41677C34.6998 7.24897 34.506 7.15274 34.3673 7.24716C31.883 8.93825 28.8074 8.91382 27.3498 8.65115C27.2235 8.62839 27.0951 8.6839 27.0243 8.79096C24.5332 12.5589 20.7641 12.674 18.9533 12.2121C18.8137 12.1765 18.6665 12.2363 18.5923 12.3598C16.953 15.0906 14.2613 15.9529 12.735 16.0841C12.5561 16.0995 12.4616 16.3218 12.5844 16.4528L19.9037 24.2627M34.7273 18.0417C40.7571 21.1422 54.0727 28.9169 59.0967 35.2116C64.1207 41.5064 63.0564 48.8185 61.8962 51.6878C55.6897 63.6052 39.3937 67.7369 29.2483 68.2045C18.5701 67.5312 15.2674 58.0271 14.9508 53.3592C14.3509 44.5147 17.5431 31.2814 19.9037 24.2627M34.7273 18.0417C36.7735 16.2084 42.0839 12.5287 46.9565 12.4764M34.7273 18.0417C38.1683 16.9947 46.574 16.0805 52.6694 20.7994M34.7273 18.0417C33.8675 18.8853 32.4137 20.054 30.5638 21.1513M19.9037 24.2627C21.9041 24.3143 23.8507 23.9616 25.6537 23.3851M25.6537 23.3851L21.2806 19.0285M25.6537 23.3851C27.4662 22.8055 29.1334 21.9998 30.5638 21.1513M30.5638 21.1513L29.0092 12.1573M37.2585 58.7787C45.9568 56.6263 60.8301 49.2764 50.737 37.0956M38.5311 35.2334C37.9907 34.1608 36.0236 32.3549 32.4784 33.7127M32.4784 33.7127C30.0514 34.6423 29.3092 36.2808 29.177 37.5992C29.0757 38.6098 29.4467 39.642 30.196 40.3277C31.1902 41.2375 32.8668 41.8641 35.4344 40.7562C39.1018 39.1738 41.0748 41.2949 41.6029 42.5532C42.0924 43.7194 42.1312 46.3923 38.371 47.7537M32.4784 33.7127L38.371 47.7537M32.4784 33.7127L31.1261 30.4902M38.371 47.7537C34.6108 49.1152 32.79 47.4428 32.3496 46.4365M38.371 47.7537L39.7427 51.0223" stroke="white" stroke-linecap="round"/>
<defs>
<filter id="filter0_f_522_5334" x="8.18271" y="2.88193" width="59.0125" height="69.658" filterUnits="userSpaceOnUse" color-interpolation-filters="sRGB">
<feFlood flood-opacity="0" result="BackgroundImageFix"/>
<feBlend mode="normal" in="SourceGraphic" in2="BackgroundImageFix" result="shape"/>
<feGaussianBlur stdDeviation="1.41646" result="effect1_foregroundBlur_522_5334"/>
</filter>
</defs>
</svg>
