<svg width="67" height="56" viewBox="0 0 67 56" fill="none" xmlns="http://www.w3.org/2000/svg">
<g filter="url(#filter0_f_522_5343)">
<path d="M39.0313 8.31445L34.0127 10.8238" stroke="#00FF0A" stroke-width="3" stroke-linecap="round"/>
</g>
<g filter="url(#filter1_f_522_5343)">
<path d="M43.4216 8C48.6977 10.4829 59.8086 12.3516 58.8265 33.0531C58.8096 33.4099 58.4784 33.6886 58.1236 33.6473C34.4061 30.8891 38.7595 13.594 43.4216 8ZM43.4216 8C44.258 12.0776 46.9346 21.0484 50.9495 24.3104" stroke="#00FF0A" stroke-width="3" stroke-linecap="round"/>
</g>
<g filter="url(#filter2_f_522_5343)">
<path fill-rule="evenodd" clip-rule="evenodd" d="M28.7153 9.01247C26.3801 8.95551 22.6886 9.41086 19.0009 10.9375C15.2994 12.4698 11.5022 15.126 9.16162 19.5318L9.15592 19.5426L9.1504 19.5534C7.82405 22.1507 6.30645 26.4141 6.04054 30.8652C5.77439 35.3203 6.75944 40.2108 10.7648 43.6439C11.3937 44.183 12.3407 44.1102 12.8798 43.4812C13.419 42.8522 13.3461 41.9053 12.7171 41.3661C9.69641 38.777 8.79949 34.9897 9.0352 31.0441C9.27079 27.1006 10.635 23.2463 11.8167 20.9286C13.7424 17.311 16.8951 15.0562 20.1484 13.7094C23.4188 12.3555 26.6906 11.964 28.6421 12.0116C29.4703 12.0318 30.1581 11.3768 30.1783 10.5486C30.1985 9.72042 29.5435 9.03267 28.7153 9.01247ZM37.2236 12.8247C32.5476 11.5701 23.2469 11.7968 16.8369 19.932L16.8369 19.932C14.0293 23.4956 9.40081 31.5883 12.5277 40.1928L12.5277 40.1929C13.8148 43.734 16.9582 49.6315 23.9031 49.9622C31.158 50.3078 37.4192 45.4158 40.1664 42.2292L40.2069 42.1822L40.2434 42.132C42.7944 38.6244 44.6172 34.9757 44.9124 32.3192C45.0039 31.4958 44.4105 30.7542 43.5872 30.6627C42.7638 30.5712 42.0222 31.1645 41.9307 31.9879C41.7251 33.8389 40.2991 36.9433 37.8541 40.3166C35.3553 43.1915 29.9331 47.246 24.0458 46.9656C19.0751 46.7289 16.569 42.5295 15.3473 39.1682C12.772 32.0815 16.564 25.126 19.1933 21.7887C24.6443 14.8707 32.5487 14.6765 36.4462 15.7222C37.2463 15.9369 38.069 15.4622 38.2837 14.6621C38.4983 13.862 38.0237 13.0393 37.2236 12.8247Z" fill="#6C4BF0"/>
</g>
<path d="M38.0313 9.31445L33.0127 11.8238" stroke="white" stroke-linecap="round"/>
<path d="M42.4216 9C47.6977 11.4829 58.8086 13.3516 57.8265 34.0531C57.8096 34.4099 57.4784 34.6886 57.1236 34.6473C33.4061 31.8891 37.7595 14.594 42.4216 9ZM42.4216 9C43.258 13.0776 45.9346 22.0484 49.9495 25.3104" stroke="white" stroke-linecap="round"/>
<path fill-rule="evenodd" clip-rule="evenodd" d="M27.6911 11.0122C25.4838 10.9583 21.9322 11.3924 18.3836 12.8615C14.8304 14.3324 11.2471 16.8558 9.04492 21.001L9.04486 21.001L9.04118 21.0082C7.76263 23.5119 6.29486 27.6409 6.03894 31.9248C5.78294 36.2101 6.73861 40.7329 10.4157 43.8847C10.6254 44.0644 10.941 44.0401 11.1208 43.8304C11.3005 43.6208 11.2762 43.3051 11.0665 43.1254C7.7176 40.2549 6.79131 36.0999 7.03716 31.9844C7.28298 27.8697 8.69961 23.8771 9.92993 21.4666C11.9938 17.5841 15.3623 15.1945 18.7661 13.7854C22.1756 12.374 25.5873 11.9612 27.6667 12.0119C27.9428 12.0186 28.172 11.8003 28.1787 11.5242C28.1855 11.2482 27.9671 11.0189 27.6911 11.0122ZM35.9646 14.7905C31.5482 13.6056 22.7129 13.8215 16.6226 21.5509L16.6226 21.5509C13.8745 25.039 9.52477 32.7527 12.4678 40.8513L12.4678 40.8513C13.7331 44.3325 16.664 49.664 22.9509 49.9634C29.7605 50.2877 35.7509 45.6598 38.4092 42.5762L38.4227 42.5606L38.4348 42.5439C40.958 39.0745 42.653 35.5998 42.9187 33.2088C42.9492 32.9343 42.7514 32.6871 42.4769 32.6566C42.2025 32.6261 41.9553 32.8239 41.9248 33.0983C41.689 35.2205 40.1266 38.5137 37.6383 41.9389C35.0624 44.919 29.3516 49.2671 22.9984 48.9645C17.3697 48.6964 14.6512 43.931 13.4077 40.5098C10.6485 32.9171 14.7194 25.5825 17.4081 22.1698C23.1787 14.8461 31.5485 14.6411 35.7055 15.7563C35.9722 15.8279 36.2464 15.6697 36.318 15.403C36.3896 15.1363 36.2314 14.8621 35.9646 14.7905Z" fill="white"/>
<defs>
<filter id="filter0_f_522_5343" x="26.5127" y="0.814453" width="20.0186" height="17.5098" filterUnits="userSpaceOnUse" color-interpolation-filters="sRGB">
<feFlood flood-opacity="0" result="BackgroundImageFix"/>
<feBlend mode="normal" in="SourceGraphic" in2="BackgroundImageFix" result="shape"/>
<feGaussianBlur stdDeviation="3" result="effect1_foregroundBlur_522_5343"/>
</filter>
<filter id="filter1_f_522_5343" x="32.251" y="0.148438" width="34.1367" height="41.0039" filterUnits="userSpaceOnUse" color-interpolation-filters="sRGB">
<feFlood flood-opacity="0" result="BackgroundImageFix"/>
<feBlend mode="normal" in="SourceGraphic" in2="BackgroundImageFix" result="shape"/>
<feGaussianBlur stdDeviation="3" result="effect1_foregroundBlur_522_5343"/>
</filter>
<filter id="filter2_f_522_5343" x="0" y="3.00781" width="50.9219" height="52.9727" filterUnits="userSpaceOnUse" color-interpolation-filters="sRGB">
<feFlood flood-opacity="0" result="BackgroundImageFix"/>
<feBlend mode="normal" in="SourceGraphic" in2="BackgroundImageFix" result="shape"/>
<feGaussianBlur stdDeviation="3" result="effect1_foregroundBlur_522_5343"/>
</filter>
</defs>
</svg>
