<svg width="245" height="71" viewBox="0 0 245 71" fill="none" xmlns="http://www.w3.org/2000/svg">
<g filter="url(#filter0_f_499_350)">
<mask id="path-1-outside-1_499_350" maskUnits="userSpaceOnUse" x="7.8291" y="8.72656" width="229" height="54" fill="black">
<rect fill="white" x="7.8291" y="8.72656" width="229" height="54"/>
<path d="M26.6302 53.4766C24.1757 53.4766 21.9939 53.0561 20.0848 52.2152C18.1871 51.3743 16.6871 50.2038 15.5848 48.7038C14.4825 47.2038 13.8973 45.4709 13.8291 43.505H20.2382C20.295 44.4482 20.6075 45.272 21.1757 45.9766C21.7439 46.6697 22.4996 47.2095 23.4427 47.5959C24.3859 47.9822 25.4427 48.1754 26.6132 48.1754C27.8632 48.1754 28.9711 47.9595 29.9371 47.5277C30.903 47.0845 31.6586 46.4709 32.2041 45.6868C32.7496 44.9027 33.0166 43.9993 33.0052 42.9766C33.0166 41.9197 32.7439 40.9879 32.1871 40.1811C31.6302 39.3743 30.8234 38.7436 29.7666 38.2891C28.7211 37.8345 27.4598 37.6072 25.9825 37.6072H22.8973V32.7322H25.9825C27.1984 32.7322 28.2609 32.522 29.17 32.1016C30.0905 31.6811 30.8121 31.0902 31.3348 30.3288C31.8575 29.5561 32.1132 28.6641 32.1018 27.6527C32.1132 26.6641 31.8916 25.8061 31.4371 25.0788C30.9939 24.3402 30.3632 23.7663 29.545 23.3572C28.7382 22.9482 27.7893 22.7436 26.6984 22.7436C25.6302 22.7436 24.6416 22.9368 23.7325 23.3232C22.8234 23.7095 22.0905 24.2607 21.5336 24.9766C20.9768 25.6811 20.6814 26.522 20.6473 27.4993H14.5621C14.6075 25.5447 15.17 23.8288 16.2496 22.3516C17.3405 20.8629 18.795 19.7038 20.6132 18.8743C22.4314 18.0334 24.4711 17.6129 26.7325 17.6129C29.0621 17.6129 31.0848 18.0504 32.8007 18.9254C34.528 19.7891 35.8632 20.9538 36.8064 22.4197C37.7496 23.8857 38.2211 25.505 38.2211 27.2777C38.2325 29.2436 37.653 30.8913 36.4825 32.2209C35.3234 33.5504 33.8007 34.4197 31.9143 34.8288V35.1016C34.3689 35.4425 36.2496 36.3516 37.5564 37.8288C38.8746 39.2947 39.528 41.1186 39.5166 43.3004C39.5166 45.255 38.9598 47.005 37.8461 48.5504C36.7439 50.0845 35.2211 51.2891 33.278 52.1641C31.3461 53.0391 29.1302 53.4766 26.6302 53.4766ZM58.2709 53.6641C55.464 53.6641 53.055 52.9538 51.0436 51.5334C49.0436 50.1016 47.5038 48.0391 46.4243 45.3459C45.3561 42.6413 44.822 39.3857 44.822 35.5788C44.8334 31.772 45.3731 28.5334 46.4413 25.8629C47.5209 23.1811 49.0606 21.1357 51.0606 19.7266C53.072 18.3175 55.4754 17.6129 58.2709 17.6129C61.0663 17.6129 63.4697 18.3175 65.4811 19.7266C67.4925 21.1357 69.0322 23.1811 70.1004 25.8629C71.18 28.5447 71.7197 31.7834 71.7197 35.5788C71.7197 39.397 71.18 42.6584 70.1004 45.3629C69.0322 48.0561 67.4925 50.1129 65.4811 51.5334C63.4811 52.9538 61.0777 53.6641 58.2709 53.6641ZM58.2709 48.3288C60.4527 48.3288 62.1743 47.255 63.4356 45.1072C64.7084 42.9482 65.3447 39.772 65.3447 35.5788C65.3447 32.8061 65.055 30.4766 64.4754 28.5902C63.8959 26.7038 63.0777 25.2834 62.0209 24.3288C60.964 23.3629 59.714 22.88 58.2709 22.88C56.1004 22.88 54.3845 23.9595 53.1231 26.1186C51.8618 28.2663 51.2254 31.4197 51.214 35.5788C51.2027 38.3629 51.4811 40.7038 52.0493 42.6016C52.6288 44.4993 53.447 45.9311 54.5038 46.897C55.5606 47.8516 56.8163 48.3288 58.2709 48.3288ZM90.2865 53.6641C87.4797 53.6641 85.0706 52.9538 83.0592 51.5334C81.0592 50.1016 79.5194 48.0391 78.4399 45.3459C77.3717 42.6413 76.8376 39.3857 76.8376 35.5788C76.849 31.772 77.3888 28.5334 78.4569 25.8629C79.5365 23.1811 81.0763 21.1357 83.0763 19.7266C85.0876 18.3175 87.491 17.6129 90.2865 17.6129C93.0819 17.6129 95.4854 18.3175 97.4967 19.7266C99.5081 21.1357 101.048 23.1811 102.116 25.8629C103.196 28.5447 103.735 31.7834 103.735 35.5788C103.735 39.397 103.196 42.6584 102.116 45.3629C101.048 48.0561 99.5081 50.1129 97.4967 51.5334C95.4967 52.9538 93.0933 53.6641 90.2865 53.6641ZM90.2865 48.3288C92.4683 48.3288 94.1899 47.255 95.4513 45.1072C96.724 42.9482 97.3604 39.772 97.3604 35.5788C97.3604 32.8061 97.0706 30.4766 96.491 28.5902C95.9115 26.7038 95.0933 25.2834 94.0365 24.3288C92.9797 23.3629 91.7297 22.88 90.2865 22.88C88.116 22.88 86.4001 23.9595 85.1388 26.1186C83.8774 28.2663 83.241 31.4197 83.2297 35.5788C83.2183 38.3629 83.4967 40.7038 84.0649 42.6016C84.6444 44.4993 85.4626 45.9311 86.5194 46.897C87.5763 47.8516 88.8319 48.3288 90.2865 48.3288ZM122.302 53.6641C119.495 53.6641 117.086 52.9538 115.075 51.5334C113.075 50.1016 111.535 48.0391 110.456 45.3459C109.387 42.6413 108.853 39.3857 108.853 35.5788C108.865 31.772 109.404 28.5334 110.473 25.8629C111.552 23.1811 113.092 21.1357 115.092 19.7266C117.103 18.3175 119.507 17.6129 122.302 17.6129C125.098 17.6129 127.501 18.3175 129.512 19.7266C131.524 21.1357 133.063 23.1811 134.132 25.8629C135.211 28.5447 135.751 31.7834 135.751 35.5788C135.751 39.397 135.211 42.6584 134.132 45.3629C133.063 48.0561 131.524 50.1129 129.512 51.5334C127.512 52.9538 125.109 53.6641 122.302 53.6641ZM122.302 48.3288C124.484 48.3288 126.206 47.255 127.467 45.1072C128.74 42.9482 129.376 39.772 129.376 35.5788C129.376 32.8061 129.086 30.4766 128.507 28.5902C127.927 26.7038 127.109 25.2834 126.052 24.3288C124.995 23.3629 123.745 22.88 122.302 22.88C120.132 22.88 118.416 23.9595 117.154 26.1186C115.893 28.2663 115.257 31.4197 115.245 35.5788C115.234 38.3629 115.512 40.7038 116.081 42.6016C116.66 44.4993 117.478 45.9311 118.535 46.897C119.592 47.8516 120.848 48.3288 122.302 48.3288ZM154.318 53.6641C151.511 53.6641 149.102 52.9538 147.09 51.5334C145.09 50.1016 143.551 48.0391 142.471 45.3459C141.403 42.6413 140.869 39.3857 140.869 35.5788C140.88 31.772 141.42 28.5334 142.488 25.8629C143.568 23.1811 145.108 21.1357 147.108 19.7266C149.119 18.3175 151.522 17.6129 154.318 17.6129C157.113 17.6129 159.517 18.3175 161.528 19.7266C163.539 21.1357 165.079 23.1811 166.147 25.8629C167.227 28.5447 167.767 31.7834 167.767 35.5788C167.767 39.397 167.227 42.6584 166.147 45.3629C165.079 48.0561 163.539 50.1129 161.528 51.5334C159.528 52.9538 157.125 53.6641 154.318 53.6641ZM154.318 48.3288C156.5 48.3288 158.221 47.255 159.483 45.1072C160.755 42.9482 161.392 39.772 161.392 35.5788C161.392 32.8061 161.102 30.4766 160.522 28.5902C159.943 26.7038 159.125 25.2834 158.068 24.3288C157.011 23.3629 155.761 22.88 154.318 22.88C152.147 22.88 150.431 23.9595 149.17 26.1186C147.909 28.2663 147.272 31.4197 147.261 35.5788C147.25 38.3629 147.528 40.7038 148.096 42.6016C148.676 44.4993 149.494 45.9311 150.551 46.897C151.608 47.8516 152.863 48.3288 154.318 48.3288ZM186.333 53.6641C183.527 53.6641 181.117 52.9538 179.106 51.5334C177.106 50.1016 175.566 48.0391 174.487 45.3459C173.419 42.6413 172.885 39.3857 172.885 35.5788C172.896 31.772 173.436 28.5334 174.504 25.8629C175.583 23.1811 177.123 21.1357 179.123 19.7266C181.135 18.3175 183.538 17.6129 186.333 17.6129C189.129 17.6129 191.532 18.3175 193.544 19.7266C195.555 21.1357 197.095 23.1811 198.163 25.8629C199.242 28.5447 199.782 31.7834 199.782 35.5788C199.782 39.397 199.242 42.6584 198.163 45.3629C197.095 48.0561 195.555 50.1129 193.544 51.5334C191.544 52.9538 189.14 53.6641 186.333 53.6641ZM186.333 48.3288C188.515 48.3288 190.237 47.255 191.498 45.1072C192.771 42.9482 193.407 39.772 193.407 35.5788C193.407 32.8061 193.117 30.4766 192.538 28.5902C191.958 26.7038 191.14 25.2834 190.083 24.3288C189.027 23.3629 187.777 22.88 186.333 22.88C184.163 22.88 182.447 23.9595 181.186 26.1186C179.924 28.2663 179.288 31.4197 179.277 35.5788C179.265 38.3629 179.544 40.7038 180.112 42.6016C180.691 44.4993 181.509 45.9311 182.566 46.897C183.623 47.8516 184.879 48.3288 186.333 48.3288ZM216.696 57.3629V13.7266H219.491V57.3629H216.696ZM224.758 27.6868C224.599 26.1982 223.929 25.0391 222.747 24.2095C221.576 23.38 220.054 22.9652 218.179 22.9652C216.86 22.9652 215.73 23.1641 214.786 23.5618C213.843 23.9595 213.122 24.4993 212.622 25.1811C212.122 25.8629 211.866 26.6413 211.855 27.5163C211.855 28.2436 212.019 28.8743 212.349 29.4084C212.69 29.9425 213.15 30.397 213.73 30.772C214.309 31.1357 214.951 31.4425 215.656 31.6925C216.36 31.9425 217.071 32.1527 217.786 32.3232L221.059 33.1413C222.377 33.4482 223.644 33.8629 224.86 34.3857C226.088 34.9084 227.184 35.5675 228.15 36.3629C229.127 37.1584 229.9 38.1186 230.468 39.2436C231.036 40.3686 231.321 41.6868 231.321 43.1982C231.321 45.2436 230.798 47.0447 229.752 48.6016C228.707 50.147 227.196 51.3572 225.218 52.2322C223.252 53.0959 220.872 53.5277 218.076 53.5277C215.36 53.5277 213.002 53.1072 211.002 52.2663C209.014 51.4254 207.457 50.1982 206.332 48.5845C205.218 46.9709 204.616 45.005 204.525 42.6868H210.747C210.838 43.9027 211.213 44.9141 211.872 45.7209C212.531 46.5277 213.389 47.13 214.446 47.5277C215.514 47.9254 216.707 48.1243 218.025 48.1243C219.4 48.1243 220.605 47.9197 221.639 47.5107C222.684 47.0902 223.502 46.5107 224.093 45.772C224.684 45.022 224.985 44.147 224.997 43.147C224.985 42.2379 224.718 41.4879 224.196 40.897C223.673 40.2947 222.94 39.7947 221.997 39.397C221.065 38.9879 219.974 38.6243 218.724 38.3061L214.752 37.2834C211.877 36.5447 209.605 35.4254 207.934 33.9254C206.275 32.4141 205.446 30.4084 205.446 27.9084C205.446 25.8516 206.002 24.0504 207.116 22.505C208.241 20.9595 209.769 19.7607 211.701 18.9084C213.633 18.0447 215.821 17.6129 218.264 17.6129C220.741 17.6129 222.911 18.0447 224.775 18.9084C226.65 19.7607 228.122 20.9482 229.19 22.4709C230.258 23.9822 230.809 25.7209 230.843 27.6868H224.758Z"/>
</mask>
<path d="M26.6302 53.4766C24.1757 53.4766 21.9939 53.0561 20.0848 52.2152C18.1871 51.3743 16.6871 50.2038 15.5848 48.7038C14.4825 47.2038 13.8973 45.4709 13.8291 43.505H20.2382C20.295 44.4482 20.6075 45.272 21.1757 45.9766C21.7439 46.6697 22.4996 47.2095 23.4427 47.5959C24.3859 47.9822 25.4427 48.1754 26.6132 48.1754C27.8632 48.1754 28.9711 47.9595 29.9371 47.5277C30.903 47.0845 31.6586 46.4709 32.2041 45.6868C32.7496 44.9027 33.0166 43.9993 33.0052 42.9766C33.0166 41.9197 32.7439 40.9879 32.1871 40.1811C31.6302 39.3743 30.8234 38.7436 29.7666 38.2891C28.7211 37.8345 27.4598 37.6072 25.9825 37.6072H22.8973V32.7322H25.9825C27.1984 32.7322 28.2609 32.522 29.17 32.1016C30.0905 31.6811 30.8121 31.0902 31.3348 30.3288C31.8575 29.5561 32.1132 28.6641 32.1018 27.6527C32.1132 26.6641 31.8916 25.8061 31.4371 25.0788C30.9939 24.3402 30.3632 23.7663 29.545 23.3572C28.7382 22.9482 27.7893 22.7436 26.6984 22.7436C25.6302 22.7436 24.6416 22.9368 23.7325 23.3232C22.8234 23.7095 22.0905 24.2607 21.5336 24.9766C20.9768 25.6811 20.6814 26.522 20.6473 27.4993H14.5621C14.6075 25.5447 15.17 23.8288 16.2496 22.3516C17.3405 20.8629 18.795 19.7038 20.6132 18.8743C22.4314 18.0334 24.4711 17.6129 26.7325 17.6129C29.0621 17.6129 31.0848 18.0504 32.8007 18.9254C34.528 19.7891 35.8632 20.9538 36.8064 22.4197C37.7496 23.8857 38.2211 25.505 38.2211 27.2777C38.2325 29.2436 37.653 30.8913 36.4825 32.2209C35.3234 33.5504 33.8007 34.4197 31.9143 34.8288V35.1016C34.3689 35.4425 36.2496 36.3516 37.5564 37.8288C38.8746 39.2947 39.528 41.1186 39.5166 43.3004C39.5166 45.255 38.9598 47.005 37.8461 48.5504C36.7439 50.0845 35.2211 51.2891 33.278 52.1641C31.3461 53.0391 29.1302 53.4766 26.6302 53.4766ZM58.2709 53.6641C55.464 53.6641 53.055 52.9538 51.0436 51.5334C49.0436 50.1016 47.5038 48.0391 46.4243 45.3459C45.3561 42.6413 44.822 39.3857 44.822 35.5788C44.8334 31.772 45.3731 28.5334 46.4413 25.8629C47.5209 23.1811 49.0606 21.1357 51.0606 19.7266C53.072 18.3175 55.4754 17.6129 58.2709 17.6129C61.0663 17.6129 63.4697 18.3175 65.4811 19.7266C67.4925 21.1357 69.0322 23.1811 70.1004 25.8629C71.18 28.5447 71.7197 31.7834 71.7197 35.5788C71.7197 39.397 71.18 42.6584 70.1004 45.3629C69.0322 48.0561 67.4925 50.1129 65.4811 51.5334C63.4811 52.9538 61.0777 53.6641 58.2709 53.6641ZM58.2709 48.3288C60.4527 48.3288 62.1743 47.255 63.4356 45.1072C64.7084 42.9482 65.3447 39.772 65.3447 35.5788C65.3447 32.8061 65.055 30.4766 64.4754 28.5902C63.8959 26.7038 63.0777 25.2834 62.0209 24.3288C60.964 23.3629 59.714 22.88 58.2709 22.88C56.1004 22.88 54.3845 23.9595 53.1231 26.1186C51.8618 28.2663 51.2254 31.4197 51.214 35.5788C51.2027 38.3629 51.4811 40.7038 52.0493 42.6016C52.6288 44.4993 53.447 45.9311 54.5038 46.897C55.5606 47.8516 56.8163 48.3288 58.2709 48.3288ZM90.2865 53.6641C87.4797 53.6641 85.0706 52.9538 83.0592 51.5334C81.0592 50.1016 79.5194 48.0391 78.4399 45.3459C77.3717 42.6413 76.8376 39.3857 76.8376 35.5788C76.849 31.772 77.3888 28.5334 78.4569 25.8629C79.5365 23.1811 81.0763 21.1357 83.0763 19.7266C85.0876 18.3175 87.491 17.6129 90.2865 17.6129C93.0819 17.6129 95.4854 18.3175 97.4967 19.7266C99.5081 21.1357 101.048 23.1811 102.116 25.8629C103.196 28.5447 103.735 31.7834 103.735 35.5788C103.735 39.397 103.196 42.6584 102.116 45.3629C101.048 48.0561 99.5081 50.1129 97.4967 51.5334C95.4967 52.9538 93.0933 53.6641 90.2865 53.6641ZM90.2865 48.3288C92.4683 48.3288 94.1899 47.255 95.4513 45.1072C96.724 42.9482 97.3604 39.772 97.3604 35.5788C97.3604 32.8061 97.0706 30.4766 96.491 28.5902C95.9115 26.7038 95.0933 25.2834 94.0365 24.3288C92.9797 23.3629 91.7297 22.88 90.2865 22.88C88.116 22.88 86.4001 23.9595 85.1388 26.1186C83.8774 28.2663 83.241 31.4197 83.2297 35.5788C83.2183 38.3629 83.4967 40.7038 84.0649 42.6016C84.6444 44.4993 85.4626 45.9311 86.5194 46.897C87.5763 47.8516 88.8319 48.3288 90.2865 48.3288ZM122.302 53.6641C119.495 53.6641 117.086 52.9538 115.075 51.5334C113.075 50.1016 111.535 48.0391 110.456 45.3459C109.387 42.6413 108.853 39.3857 108.853 35.5788C108.865 31.772 109.404 28.5334 110.473 25.8629C111.552 23.1811 113.092 21.1357 115.092 19.7266C117.103 18.3175 119.507 17.6129 122.302 17.6129C125.098 17.6129 127.501 18.3175 129.512 19.7266C131.524 21.1357 133.063 23.1811 134.132 25.8629C135.211 28.5447 135.751 31.7834 135.751 35.5788C135.751 39.397 135.211 42.6584 134.132 45.3629C133.063 48.0561 131.524 50.1129 129.512 51.5334C127.512 52.9538 125.109 53.6641 122.302 53.6641ZM122.302 48.3288C124.484 48.3288 126.206 47.255 127.467 45.1072C128.74 42.9482 129.376 39.772 129.376 35.5788C129.376 32.8061 129.086 30.4766 128.507 28.5902C127.927 26.7038 127.109 25.2834 126.052 24.3288C124.995 23.3629 123.745 22.88 122.302 22.88C120.132 22.88 118.416 23.9595 117.154 26.1186C115.893 28.2663 115.257 31.4197 115.245 35.5788C115.234 38.3629 115.512 40.7038 116.081 42.6016C116.66 44.4993 117.478 45.9311 118.535 46.897C119.592 47.8516 120.848 48.3288 122.302 48.3288ZM154.318 53.6641C151.511 53.6641 149.102 52.9538 147.09 51.5334C145.09 50.1016 143.551 48.0391 142.471 45.3459C141.403 42.6413 140.869 39.3857 140.869 35.5788C140.88 31.772 141.42 28.5334 142.488 25.8629C143.568 23.1811 145.108 21.1357 147.108 19.7266C149.119 18.3175 151.522 17.6129 154.318 17.6129C157.113 17.6129 159.517 18.3175 161.528 19.7266C163.539 21.1357 165.079 23.1811 166.147 25.8629C167.227 28.5447 167.767 31.7834 167.767 35.5788C167.767 39.397 167.227 42.6584 166.147 45.3629C165.079 48.0561 163.539 50.1129 161.528 51.5334C159.528 52.9538 157.125 53.6641 154.318 53.6641ZM154.318 48.3288C156.5 48.3288 158.221 47.255 159.483 45.1072C160.755 42.9482 161.392 39.772 161.392 35.5788C161.392 32.8061 161.102 30.4766 160.522 28.5902C159.943 26.7038 159.125 25.2834 158.068 24.3288C157.011 23.3629 155.761 22.88 154.318 22.88C152.147 22.88 150.431 23.9595 149.17 26.1186C147.909 28.2663 147.272 31.4197 147.261 35.5788C147.25 38.3629 147.528 40.7038 148.096 42.6016C148.676 44.4993 149.494 45.9311 150.551 46.897C151.608 47.8516 152.863 48.3288 154.318 48.3288ZM186.333 53.6641C183.527 53.6641 181.117 52.9538 179.106 51.5334C177.106 50.1016 175.566 48.0391 174.487 45.3459C173.419 42.6413 172.885 39.3857 172.885 35.5788C172.896 31.772 173.436 28.5334 174.504 25.8629C175.583 23.1811 177.123 21.1357 179.123 19.7266C181.135 18.3175 183.538 17.6129 186.333 17.6129C189.129 17.6129 191.532 18.3175 193.544 19.7266C195.555 21.1357 197.095 23.1811 198.163 25.8629C199.242 28.5447 199.782 31.7834 199.782 35.5788C199.782 39.397 199.242 42.6584 198.163 45.3629C197.095 48.0561 195.555 50.1129 193.544 51.5334C191.544 52.9538 189.14 53.6641 186.333 53.6641ZM186.333 48.3288C188.515 48.3288 190.237 47.255 191.498 45.1072C192.771 42.9482 193.407 39.772 193.407 35.5788C193.407 32.8061 193.117 30.4766 192.538 28.5902C191.958 26.7038 191.14 25.2834 190.083 24.3288C189.027 23.3629 187.777 22.88 186.333 22.88C184.163 22.88 182.447 23.9595 181.186 26.1186C179.924 28.2663 179.288 31.4197 179.277 35.5788C179.265 38.3629 179.544 40.7038 180.112 42.6016C180.691 44.4993 181.509 45.9311 182.566 46.897C183.623 47.8516 184.879 48.3288 186.333 48.3288ZM216.696 57.3629V13.7266H219.491V57.3629H216.696ZM224.758 27.6868C224.599 26.1982 223.929 25.0391 222.747 24.2095C221.576 23.38 220.054 22.9652 218.179 22.9652C216.86 22.9652 215.73 23.1641 214.786 23.5618C213.843 23.9595 213.122 24.4993 212.622 25.1811C212.122 25.8629 211.866 26.6413 211.855 27.5163C211.855 28.2436 212.019 28.8743 212.349 29.4084C212.69 29.9425 213.15 30.397 213.73 30.772C214.309 31.1357 214.951 31.4425 215.656 31.6925C216.36 31.9425 217.071 32.1527 217.786 32.3232L221.059 33.1413C222.377 33.4482 223.644 33.8629 224.86 34.3857C226.088 34.9084 227.184 35.5675 228.15 36.3629C229.127 37.1584 229.9 38.1186 230.468 39.2436C231.036 40.3686 231.321 41.6868 231.321 43.1982C231.321 45.2436 230.798 47.0447 229.752 48.6016C228.707 50.147 227.196 51.3572 225.218 52.2322C223.252 53.0959 220.872 53.5277 218.076 53.5277C215.36 53.5277 213.002 53.1072 211.002 52.2663C209.014 51.4254 207.457 50.1982 206.332 48.5845C205.218 46.9709 204.616 45.005 204.525 42.6868H210.747C210.838 43.9027 211.213 44.9141 211.872 45.7209C212.531 46.5277 213.389 47.13 214.446 47.5277C215.514 47.9254 216.707 48.1243 218.025 48.1243C219.4 48.1243 220.605 47.9197 221.639 47.5107C222.684 47.0902 223.502 46.5107 224.093 45.772C224.684 45.022 224.985 44.147 224.997 43.147C224.985 42.2379 224.718 41.4879 224.196 40.897C223.673 40.2947 222.94 39.7947 221.997 39.397C221.065 38.9879 219.974 38.6243 218.724 38.3061L214.752 37.2834C211.877 36.5447 209.605 35.4254 207.934 33.9254C206.275 32.4141 205.446 30.4084 205.446 27.9084C205.446 25.8516 206.002 24.0504 207.116 22.505C208.241 20.9595 209.769 19.7607 211.701 18.9084C213.633 18.0447 215.821 17.6129 218.264 17.6129C220.741 17.6129 222.911 18.0447 224.775 18.9084C226.65 19.7607 228.122 20.9482 229.19 22.4709C230.258 23.9822 230.809 25.7209 230.843 27.6868H224.758Z" stroke="#FF00B8" stroke-width="10" mask="url(#path-1-outside-1_499_350)"/>
</g>
<mask id="path-2-outside-2_499_350" maskUnits="userSpaceOnUse" x="11" y="11" width="223" height="49" fill="black">
<rect fill="white" x="11" y="11" width="223" height="49"/>
<path d="M26.6307 53.4773C24.1761 53.4773 21.9943 53.0568 20.0852 52.2159C18.1875 51.375 16.6875 50.2045 15.5852 48.7045C14.483 47.2045 13.8977 45.4716 13.8295 43.5057H20.2386C20.2955 44.4489 20.608 45.2727 21.1761 45.9773C21.7443 46.6705 22.5 47.2102 23.4432 47.5966C24.3864 47.983 25.4432 48.1761 26.6136 48.1761C27.8636 48.1761 28.9716 47.9602 29.9375 47.5284C30.9034 47.0852 31.6591 46.4716 32.2045 45.6875C32.75 44.9034 33.017 44 33.0057 42.9773C33.017 41.9205 32.7443 40.9886 32.1875 40.1818C31.6307 39.375 30.8239 38.7443 29.767 38.2898C28.7216 37.8352 27.4602 37.608 25.983 37.608H22.8977V32.733H25.983C27.1989 32.733 28.2614 32.5227 29.1705 32.1023C30.0909 31.6818 30.8125 31.0909 31.3352 30.3295C31.858 29.5568 32.1136 28.6648 32.1023 27.6534C32.1136 26.6648 31.892 25.8068 31.4375 25.0795C30.9943 24.3409 30.3636 23.767 29.5455 23.358C28.7386 22.9489 27.7898 22.7443 26.6989 22.7443C25.6307 22.7443 24.642 22.9375 23.733 23.3239C22.8239 23.7102 22.0909 24.2614 21.5341 24.9773C20.9773 25.6818 20.6818 26.5227 20.6477 27.5H14.5625C14.608 25.5455 15.1705 23.8295 16.25 22.3523C17.3409 20.8636 18.7955 19.7045 20.6136 18.875C22.4318 18.0341 24.4716 17.6136 26.733 17.6136C29.0625 17.6136 31.0852 18.0511 32.8011 18.9261C34.5284 19.7898 35.8636 20.9545 36.8068 22.4205C37.75 23.8864 38.2216 25.5057 38.2216 27.2784C38.233 29.2443 37.6534 30.892 36.483 32.2216C35.3239 33.5511 33.8011 34.4205 31.9148 34.8295V35.1023C34.3693 35.4432 36.25 36.3523 37.5568 37.8295C38.875 39.2955 39.5284 41.1193 39.517 43.3011C39.517 45.2557 38.9602 47.0057 37.8466 48.5511C36.7443 50.0852 35.2216 51.2898 33.2784 52.1648C31.3466 53.0398 29.1307 53.4773 26.6307 53.4773ZM58.2713 53.6648C55.4645 53.6648 53.0554 52.9545 51.044 51.5341C49.044 50.1023 47.5043 48.0398 46.4247 45.3466C45.3565 42.642 44.8224 39.3864 44.8224 35.5795C44.8338 31.7727 45.3736 28.5341 46.4418 25.8636C47.5213 23.1818 49.0611 21.1364 51.0611 19.7273C53.0724 18.3182 55.4759 17.6136 58.2713 17.6136C61.0668 17.6136 63.4702 18.3182 65.4815 19.7273C67.4929 21.1364 69.0327 23.1818 70.1009 25.8636C71.1804 28.5455 71.7202 31.7841 71.7202 35.5795C71.7202 39.3977 71.1804 42.6591 70.1009 45.3636C69.0327 48.0568 67.4929 50.1136 65.4815 51.5341C63.4815 52.9545 61.0781 53.6648 58.2713 53.6648ZM58.2713 48.3295C60.4531 48.3295 62.1747 47.2557 63.4361 45.108C64.7088 42.9489 65.3452 39.7727 65.3452 35.5795C65.3452 32.8068 65.0554 30.4773 64.4759 28.5909C63.8963 26.7045 63.0781 25.2841 62.0213 24.3295C60.9645 23.3636 59.7145 22.8807 58.2713 22.8807C56.1009 22.8807 54.3849 23.9602 53.1236 26.1193C51.8622 28.267 51.2259 31.4205 51.2145 35.5795C51.2031 38.3636 51.4815 40.7045 52.0497 42.6023C52.6293 44.5 53.4474 45.9318 54.5043 46.8977C55.5611 47.8523 56.8168 48.3295 58.2713 48.3295ZM90.2869 53.6648C87.4801 53.6648 85.071 52.9545 83.0597 51.5341C81.0597 50.1023 79.5199 48.0398 78.4403 45.3466C77.3722 42.642 76.8381 39.3864 76.8381 35.5795C76.8494 31.7727 77.3892 28.5341 78.4574 25.8636C79.5369 23.1818 81.0767 21.1364 83.0767 19.7273C85.0881 18.3182 87.4915 17.6136 90.2869 17.6136C93.0824 17.6136 95.4858 18.3182 97.4972 19.7273C99.5085 21.1364 101.048 23.1818 102.116 25.8636C103.196 28.5455 103.736 31.7841 103.736 35.5795C103.736 39.3977 103.196 42.6591 102.116 45.3636C101.048 48.0568 99.5085 50.1136 97.4972 51.5341C95.4972 52.9545 93.0938 53.6648 90.2869 53.6648ZM90.2869 48.3295C92.4688 48.3295 94.1903 47.2557 95.4517 45.108C96.7244 42.9489 97.3608 39.7727 97.3608 35.5795C97.3608 32.8068 97.071 30.4773 96.4915 28.5909C95.9119 26.7045 95.0938 25.2841 94.0369 24.3295C92.9801 23.3636 91.7301 22.8807 90.2869 22.8807C88.1165 22.8807 86.4006 23.9602 85.1392 26.1193C83.8778 28.267 83.2415 31.4205 83.2301 35.5795C83.2188 38.3636 83.4972 40.7045 84.0653 42.6023C84.6449 44.5 85.4631 45.9318 86.5199 46.8977C87.5767 47.8523 88.8324 48.3295 90.2869 48.3295ZM122.303 53.6648C119.496 53.6648 117.087 52.9545 115.075 51.5341C113.075 50.1023 111.536 48.0398 110.456 45.3466C109.388 42.642 108.854 39.3864 108.854 35.5795C108.865 31.7727 109.405 28.5341 110.473 25.8636C111.553 23.1818 113.092 21.1364 115.092 19.7273C117.104 18.3182 119.507 17.6136 122.303 17.6136C125.098 17.6136 127.501 18.3182 129.513 19.7273C131.524 21.1364 133.064 23.1818 134.132 25.8636C135.212 28.5455 135.751 31.7841 135.751 35.5795C135.751 39.3977 135.212 42.6591 134.132 45.3636C133.064 48.0568 131.524 50.1136 129.513 51.5341C127.513 52.9545 125.109 53.6648 122.303 53.6648ZM122.303 48.3295C124.484 48.3295 126.206 47.2557 127.467 45.108C128.74 42.9489 129.376 39.7727 129.376 35.5795C129.376 32.8068 129.087 30.4773 128.507 28.5909C127.928 26.7045 127.109 25.2841 126.053 24.3295C124.996 23.3636 123.746 22.8807 122.303 22.8807C120.132 22.8807 118.416 23.9602 117.155 26.1193C115.893 28.267 115.257 31.4205 115.246 35.5795C115.234 38.3636 115.513 40.7045 116.081 42.6023C116.661 44.5 117.479 45.9318 118.536 46.8977C119.592 47.8523 120.848 48.3295 122.303 48.3295ZM154.318 53.6648C151.511 53.6648 149.102 52.9545 147.091 51.5341C145.091 50.1023 143.551 48.0398 142.472 45.3466C141.403 42.642 140.869 39.3864 140.869 35.5795C140.881 31.7727 141.42 28.5341 142.489 25.8636C143.568 23.1818 145.108 21.1364 147.108 19.7273C149.119 18.3182 151.523 17.6136 154.318 17.6136C157.114 17.6136 159.517 18.3182 161.528 19.7273C163.54 21.1364 165.08 23.1818 166.148 25.8636C167.227 28.5455 167.767 31.7841 167.767 35.5795C167.767 39.3977 167.227 42.6591 166.148 45.3636C165.08 48.0568 163.54 50.1136 161.528 51.5341C159.528 52.9545 157.125 53.6648 154.318 53.6648ZM154.318 48.3295C156.5 48.3295 158.222 47.2557 159.483 45.108C160.756 42.9489 161.392 39.7727 161.392 35.5795C161.392 32.8068 161.102 30.4773 160.523 28.5909C159.943 26.7045 159.125 25.2841 158.068 24.3295C157.011 23.3636 155.761 22.8807 154.318 22.8807C152.148 22.8807 150.432 23.9602 149.17 26.1193C147.909 28.267 147.273 31.4205 147.261 35.5795C147.25 38.3636 147.528 40.7045 148.097 42.6023C148.676 44.5 149.494 45.9318 150.551 46.8977C151.608 47.8523 152.864 48.3295 154.318 48.3295ZM186.334 53.6648C183.527 53.6648 181.118 52.9545 179.107 51.5341C177.107 50.1023 175.567 48.0398 174.487 45.3466C173.419 42.642 172.885 39.3864 172.885 35.5795C172.896 31.7727 173.436 28.5341 174.504 25.8636C175.584 23.1818 177.124 21.1364 179.124 19.7273C181.135 18.3182 183.538 17.6136 186.334 17.6136C189.129 17.6136 191.533 18.3182 193.544 19.7273C195.555 21.1364 197.095 23.1818 198.163 25.8636C199.243 28.5455 199.783 31.7841 199.783 35.5795C199.783 39.3977 199.243 42.6591 198.163 45.3636C197.095 48.0568 195.555 50.1136 193.544 51.5341C191.544 52.9545 189.141 53.6648 186.334 53.6648ZM186.334 48.3295C188.516 48.3295 190.237 47.2557 191.499 45.108C192.771 42.9489 193.408 39.7727 193.408 35.5795C193.408 32.8068 193.118 30.4773 192.538 28.5909C191.959 26.7045 191.141 25.2841 190.084 24.3295C189.027 23.3636 187.777 22.8807 186.334 22.8807C184.163 22.8807 182.447 23.9602 181.186 26.1193C179.925 28.267 179.288 31.4205 179.277 35.5795C179.266 38.3636 179.544 40.7045 180.112 42.6023C180.692 44.5 181.51 45.9318 182.567 46.8977C183.624 47.8523 184.879 48.3295 186.334 48.3295ZM216.696 57.3636V13.7273H219.491V57.3636H216.696ZM224.759 27.6875C224.599 26.1989 223.929 25.0398 222.747 24.2102C221.577 23.3807 220.054 22.9659 218.179 22.9659C216.861 22.9659 215.73 23.1648 214.787 23.5625C213.844 23.9602 213.122 24.5 212.622 25.1818C212.122 25.8636 211.866 26.642 211.855 27.517C211.855 28.2443 212.02 28.875 212.349 29.4091C212.69 29.9432 213.151 30.3977 213.73 30.7727C214.31 31.1364 214.952 31.4432 215.656 31.6932C216.361 31.9432 217.071 32.1534 217.787 32.3239L221.06 33.142C222.378 33.4489 223.645 33.8636 224.861 34.3864C226.088 34.9091 227.185 35.5682 228.151 36.3636C229.128 37.1591 229.901 38.1193 230.469 39.2443C231.037 40.3693 231.321 41.6875 231.321 43.1989C231.321 45.2443 230.798 47.0455 229.753 48.6023C228.707 50.1477 227.196 51.358 225.219 52.233C223.253 53.0966 220.872 53.5284 218.077 53.5284C215.361 53.5284 213.003 53.108 211.003 52.267C209.014 51.4261 207.457 50.1989 206.332 48.5852C205.219 46.9716 204.616 45.0057 204.526 42.6875H210.747C210.838 43.9034 211.213 44.9148 211.872 45.7216C212.531 46.5284 213.389 47.1307 214.446 47.5284C215.514 47.9261 216.707 48.125 218.026 48.125C219.401 48.125 220.605 47.9205 221.639 47.5114C222.685 47.0909 223.503 46.5114 224.094 45.7727C224.685 45.0227 224.986 44.1477 224.997 43.1477C224.986 42.2386 224.719 41.4886 224.196 40.8977C223.673 40.2955 222.94 39.7955 221.997 39.3977C221.065 38.9886 219.974 38.625 218.724 38.3068L214.753 37.2841C211.878 36.5455 209.605 35.4261 207.935 33.9261C206.276 32.4148 205.446 30.4091 205.446 27.9091C205.446 25.8523 206.003 24.0511 207.116 22.5057C208.241 20.9602 209.77 19.7614 211.702 18.9091C213.634 18.0455 215.821 17.6136 218.264 17.6136C220.741 17.6136 222.912 18.0455 224.776 18.9091C226.651 19.7614 228.122 20.9489 229.19 22.4716C230.259 23.983 230.81 25.7216 230.844 27.6875H224.759Z"/>
</mask>
<path d="M20.0852 52.2159L19.275 54.0444L19.279 54.0462L20.0852 52.2159ZM15.5852 48.7045L17.1969 47.5202L15.5852 48.7045ZM13.8295 43.5057V41.5057H11.759L11.8307 43.575L13.8295 43.5057ZM20.2386 43.5057L22.235 43.3854L22.1218 41.5057H20.2386V43.5057ZM21.1761 45.9773L19.6193 47.2328L19.6243 47.239L19.6294 47.2451L21.1761 45.9773ZM23.4432 47.5966L22.685 49.4473H22.685L23.4432 47.5966ZM29.9375 47.5284L30.7538 49.3543L30.7627 49.3503L30.7715 49.3462L29.9375 47.5284ZM32.2045 45.6875L30.5627 44.5454H30.5627L32.2045 45.6875ZM33.0057 42.9773L31.0058 42.9558L31.0056 42.9776L31.0058 42.9995L33.0057 42.9773ZM32.1875 40.1818L30.5414 41.3178L32.1875 40.1818ZM29.767 38.2898L28.9696 40.1239L28.9768 40.127L29.767 38.2898ZM22.8977 37.608H20.8977V39.608H22.8977V37.608ZM22.8977 32.733V30.733H20.8977V32.733H22.8977ZM29.1705 32.1023L28.3395 30.2831L28.3309 30.287L29.1705 32.1023ZM31.3352 30.3295L32.9841 31.4616L32.9918 31.4502L31.3352 30.3295ZM32.1023 27.6534L30.1024 27.6304L30.1021 27.6532L30.1024 27.6759L32.1023 27.6534ZM31.4375 25.0795L29.7225 26.1085L29.7319 26.1241L29.7415 26.1395L31.4375 25.0795ZM29.5455 23.358L28.641 25.1418L28.651 25.1468L29.5455 23.358ZM23.733 23.3239L24.5152 25.1645L23.733 23.3239ZM21.5341 24.9773L23.1032 26.2174L23.108 26.2113L23.1128 26.2052L21.5341 24.9773ZM20.6477 27.5V29.5H22.5792L22.6465 27.5697L20.6477 27.5ZM14.5625 27.5L12.563 27.4535L12.5154 29.5H14.5625V27.5ZM16.25 22.3523L14.6368 21.1701L14.6352 21.1722L16.25 22.3523ZM20.6136 18.875L21.4438 20.6946L21.4532 20.6903L20.6136 18.875ZM32.8011 18.9261L31.8926 20.7079L31.8996 20.7114L31.9067 20.715L32.8011 18.9261ZM36.8068 22.4205L35.1249 23.5026L36.8068 22.4205ZM38.2216 27.2784H36.2216L36.2216 27.29L38.2216 27.2784ZM36.483 32.2216L34.9818 30.9L34.9754 30.9073L36.483 32.2216ZM31.9148 34.8295L31.4909 32.875L29.9148 33.2168V34.8295H31.9148ZM31.9148 35.1023H29.9148V36.8437L31.6396 37.0833L31.9148 35.1023ZM37.5568 37.8295L36.0588 39.1547L36.0642 39.1608L36.0697 39.1668L37.5568 37.8295ZM39.517 43.3011L37.517 43.2907V43.3011H39.517ZM37.8466 48.5511L36.224 47.3819L36.2224 47.3841L37.8466 48.5511ZM33.2784 52.1648L32.4572 50.3411L32.4532 50.3429L33.2784 52.1648ZM26.6307 51.4773C24.4053 51.4773 22.5056 51.0966 20.8914 50.3856L19.279 54.0462C21.483 55.017 23.947 55.4773 26.6307 55.4773V51.4773ZM20.8955 50.3874C19.279 49.6711 18.0697 48.708 17.1969 47.5202L13.9736 49.8889C15.3053 51.7011 17.096 53.0789 19.275 54.0444L20.8955 50.3874ZM17.1969 47.5202C16.3468 46.3634 15.8834 45.0242 15.8283 43.4364L11.8307 43.575C11.912 45.919 12.6191 48.0457 13.9736 49.8889L17.1969 47.5202ZM13.8295 45.5057H20.2386V41.5057H13.8295V45.5057ZM18.2423 43.6259C18.3229 44.9646 18.7783 46.1899 19.6193 47.2328L22.733 44.7218C22.4376 44.3556 22.268 43.9331 22.235 43.3854L18.2423 43.6259ZM19.6294 47.2451C20.4354 48.2285 21.4773 48.9526 22.685 49.4473L24.2013 45.7459C23.5227 45.4679 23.0533 45.1124 22.7229 44.7094L19.6294 47.2451ZM22.685 49.4473C23.9018 49.9458 25.2214 50.1761 26.6136 50.1761V46.1761C25.665 46.1761 24.8709 46.0201 24.2013 45.7459L22.685 49.4473ZM26.6136 50.1761C28.0946 50.1761 29.4887 49.9198 30.7538 49.3543L29.1212 45.7026C28.4545 46.0006 27.6327 46.1761 26.6136 46.1761V50.1761ZM30.7715 49.3462C32.0247 48.7712 33.0745 47.9392 33.8464 46.8296L30.5627 44.5454C30.2437 45.004 29.7821 45.3992 29.1035 45.7106L30.7715 49.3462ZM33.8464 46.8296C34.6465 45.6794 35.0212 44.3626 35.0056 42.9551L31.0058 42.9995C31.0129 43.6374 30.8535 44.1274 30.5627 44.5454L33.8464 46.8296ZM35.0056 42.9988C35.021 41.5628 34.6436 40.2196 33.8336 39.0458L30.5414 41.3178C30.845 41.7577 31.0131 42.2781 31.0058 42.9558L35.0056 42.9988ZM33.8336 39.0458C33.0283 37.879 31.8987 37.0295 30.5573 36.4525L28.9768 40.127C29.749 40.4592 30.2331 40.871 30.5414 41.3178L33.8336 39.0458ZM30.5645 36.4556C29.2048 35.8645 27.6569 35.608 25.983 35.608V39.608C27.2635 39.608 28.2384 39.806 28.9696 40.1239L30.5645 36.4556ZM25.983 35.608H22.8977V39.608H25.983V35.608ZM24.8977 37.608V32.733H20.8977V37.608H24.8977ZM22.8977 34.733H25.983V30.733H22.8977V34.733ZM25.983 34.733C27.4279 34.733 28.7876 34.4829 30.01 33.9175L28.3309 30.287C27.7351 30.5626 26.9698 30.733 25.983 30.733V34.733ZM30.0014 33.9215C31.2192 33.3652 32.2367 32.5501 32.984 31.4616L29.6864 29.1975C29.3883 29.6317 28.9626 29.9984 28.3395 30.2831L30.0014 33.9215ZM32.9918 31.4502C33.762 30.3116 34.1177 29.0134 34.1021 27.6309L30.1024 27.6759C30.1096 28.3161 29.9539 28.802 29.6787 29.2089L32.9918 31.4502ZM34.1021 27.6764C34.1172 26.365 33.8204 25.1186 33.1335 24.0195L29.7415 26.1395C29.9637 26.4951 30.1101 26.9646 30.1024 27.6304L34.1021 27.6764ZM33.1525 24.0506C32.5013 22.9652 31.5762 22.1373 30.4399 21.5691L28.651 25.1468C29.1511 25.3968 29.4873 25.7166 29.7225 26.1085L33.1525 24.0506ZM30.4499 21.5742C29.3108 20.9966 28.04 20.7443 26.6989 20.7443V24.7443C27.5395 24.7443 28.1665 24.9012 28.641 25.1418L30.4499 21.5742ZM26.6989 20.7443C25.384 20.7443 24.1267 20.9834 22.9507 21.4832L24.5152 25.1645C25.1574 24.8916 25.8774 24.7443 26.6989 24.7443V20.7443ZM22.9507 21.4832C21.757 21.9905 20.7395 22.7412 19.9554 23.7494L23.1128 26.2052C23.4423 25.7815 23.8908 25.4299 24.5152 25.1645L22.9507 21.4832ZM19.965 23.7372C19.1201 24.8062 18.6965 26.0671 18.6489 27.4303L22.6465 27.5697C22.6671 26.9784 22.8344 26.5575 23.1032 26.2174L19.965 23.7372ZM20.6477 25.5H14.5625V29.5H20.6477V25.5ZM16.562 27.5465C16.5986 25.9707 17.043 24.6568 17.8648 23.5323L14.6352 21.1722C13.2979 23.0023 12.6173 25.1202 12.563 27.4535L16.562 27.5465ZM17.8632 23.5345C18.7353 22.3444 19.9103 21.3942 21.4438 20.6946L19.7835 17.0554C17.6806 18.0149 15.9465 19.3829 14.6368 21.1701L17.8632 23.5345ZM21.4532 20.6903C22.9762 19.9859 24.7241 19.6136 26.733 19.6136V15.6136C24.2191 15.6136 21.8874 16.0823 19.7741 17.0597L21.4532 20.6903ZM26.733 19.6136C28.8121 19.6136 30.511 20.0034 31.8926 20.7079L33.7097 17.1444C31.6594 16.0989 29.3129 15.6136 26.733 15.6136V19.6136ZM31.9067 20.715C33.3484 21.4358 34.3965 22.3705 35.1249 23.5026L38.4888 21.3383C37.3308 19.5386 35.7084 18.1437 33.6956 17.1373L31.9067 20.715ZM35.1249 23.5026C35.8567 24.64 36.2216 25.8825 36.2216 27.2784H40.2216C40.2216 25.1288 39.6433 23.1327 38.4888 21.3383L35.1249 23.5026ZM36.2216 27.29C36.2305 28.8234 35.7917 29.98 34.9818 30.9L37.9841 33.5431C39.5151 31.8041 40.2354 29.6652 40.2216 27.2668L36.2216 27.29ZM34.9754 30.9073C34.1262 31.8815 32.9984 32.548 31.4909 32.875L32.3387 36.7841C34.6038 36.2929 36.5216 35.2208 37.9905 33.5359L34.9754 30.9073ZM29.9148 34.8295V35.1023H33.9148V34.8295H29.9148ZM31.6396 37.0833C33.7463 37.3759 35.1429 38.1193 36.0588 39.1547L39.0548 36.5044C37.3571 34.5852 34.9923 33.5105 32.1899 33.1213L31.6396 37.0833ZM36.0697 39.1668C37.0188 40.2223 37.5261 41.5489 37.5171 43.2907L41.517 43.3116C41.5307 40.6897 40.7312 38.3686 39.044 36.4923L36.0697 39.1668ZM37.517 43.3011C37.517 44.8477 37.0855 46.1863 36.224 47.3819L39.4692 49.7204C40.835 47.825 41.517 45.6637 41.517 43.3011H37.517ZM36.2224 47.3841C35.3506 48.5974 34.1216 49.5917 32.4572 50.3411L34.0996 53.9884C36.3216 52.9879 38.138 51.5731 39.4708 49.7182L36.2224 47.3841ZM32.4532 50.3429C30.8229 51.0814 28.8964 51.4773 26.6307 51.4773V55.4773C29.365 55.4773 31.8703 54.9982 34.1036 53.9866L32.4532 50.3429ZM51.044 51.5341L49.8798 53.1603L49.8903 53.1678L51.044 51.5341ZM46.4247 45.3466L44.5645 46.0813L44.5683 46.0907L46.4247 45.3466ZM44.8224 35.5795L42.8224 35.5736V35.5795H44.8224ZM46.4418 25.8636L44.5864 25.1168L44.5848 25.1209L46.4418 25.8636ZM51.0611 19.7273L49.9135 18.0892L49.9092 18.0923L51.0611 19.7273ZM65.4815 19.7273L64.334 21.3653V21.3653L65.4815 19.7273ZM70.1009 25.8636L68.2428 26.6037L68.2455 26.6105L70.1009 25.8636ZM70.1009 45.3636L68.2434 44.6222L68.2417 44.6263L70.1009 45.3636ZM65.4815 51.5341L64.3278 49.9004L64.3234 49.9035L65.4815 51.5341ZM63.4361 45.108L61.7131 44.0923L61.7115 44.0951L63.4361 45.108ZM64.4759 28.5909L66.3877 28.0035L64.4759 28.5909ZM62.0213 24.3295L60.672 25.8059L60.6807 25.8138L62.0213 24.3295ZM53.1236 26.1193L54.8482 27.1322L54.8505 27.1282L53.1236 26.1193ZM51.2145 35.5795L53.2145 35.5877L53.2145 35.585L51.2145 35.5795ZM52.0497 42.6023L50.1337 43.1759L50.1369 43.1864L52.0497 42.6023ZM54.5043 46.8977L53.1549 48.374L53.1637 48.3819L54.5043 46.8977ZM58.2713 51.6648C55.8177 51.6648 53.8257 51.0501 52.1978 49.9004L49.8903 53.1678C52.285 54.859 55.1113 55.6648 58.2713 55.6648V51.6648ZM52.2083 49.9079C50.5705 48.7354 49.2447 47.0062 48.2811 44.6025L44.5683 46.0907C45.7639 49.0733 47.5176 51.4692 49.8798 53.1603L52.2083 49.9079ZM48.2849 44.6119C47.3328 42.2013 46.8224 39.2086 46.8224 35.5795H42.8224C42.8224 39.5641 43.3803 43.0828 44.5645 46.0813L48.2849 44.6119ZM46.8224 35.5855C46.8333 31.9539 47.3492 28.9801 48.2987 26.6064L44.5848 25.1209C43.3979 28.0881 42.8343 31.5916 42.8225 35.5736L46.8224 35.5855ZM48.2971 26.6105C49.2592 24.2203 50.5817 22.5115 52.213 21.3622L49.9092 18.0923C47.5405 19.7612 45.7834 22.1434 44.5864 25.1168L48.2971 26.6105ZM52.2086 21.3653C53.8385 20.2235 55.8276 19.6136 58.2713 19.6136V15.6136C55.1241 15.6136 52.3064 16.4129 49.9135 18.0892L52.2086 21.3653ZM58.2713 19.6136C60.715 19.6136 62.7041 20.2235 64.334 21.3653L66.6291 18.0892C64.2362 16.4129 61.4185 15.6136 58.2713 15.6136V19.6136ZM64.334 21.3653C65.9734 22.5138 67.2931 24.2193 68.2428 26.6037L71.9589 25.1236C70.7723 22.1444 69.0124 19.7589 66.6291 18.0892L64.334 21.3653ZM68.2455 26.6105C69.2047 28.9934 69.7202 31.964 69.7202 35.5795H73.7202C73.7202 31.6041 73.1561 28.0976 71.9562 25.1168L68.2455 26.6105ZM69.7202 35.5795C69.7202 39.2188 69.2045 42.2144 68.2434 44.6222L71.9583 46.1051C73.1563 43.1038 73.7202 39.5767 73.7202 35.5795H69.7202ZM68.2417 44.6263C67.2909 47.0235 65.9694 48.7411 64.3278 49.9004L66.6353 53.1678C69.0164 51.4862 70.7744 49.0901 71.96 46.101L68.2417 44.6263ZM64.3234 49.9035C62.7091 51.0501 60.7252 51.6648 58.2713 51.6648V55.6648C61.4311 55.6648 64.254 54.859 66.6396 53.1647L64.3234 49.9035ZM58.2713 50.3295C61.2747 50.3295 63.6009 48.7766 65.1607 46.1208L61.7115 44.0951C60.7485 45.7348 59.6315 46.3295 58.2713 46.3295V50.3295ZM65.159 46.1236C66.6972 43.5141 67.3452 39.9167 67.3452 35.5795H63.3452C63.3452 39.6288 62.7204 42.3836 61.7131 44.0923L65.159 46.1236ZM67.3452 35.5795C67.3452 32.6816 67.044 30.1399 66.3877 28.0035L62.564 29.1783C63.0668 30.8146 63.3452 32.932 63.3452 35.5795H67.3452ZM66.3877 28.0035C65.7412 25.8995 64.7706 24.1177 63.3619 22.8453L60.6807 25.8138C61.3857 26.4505 62.0514 27.5096 62.564 29.1783L66.3877 28.0035ZM63.3706 22.8533C61.9419 21.5475 60.2094 20.8807 58.2713 20.8807V24.8807C59.2195 24.8807 59.9871 25.1798 60.672 25.8058L63.3706 22.8533ZM58.2713 20.8807C55.2698 20.8807 52.9516 22.4489 51.3967 25.1104L54.8505 27.1282C55.8183 25.4715 56.9319 24.8807 58.2713 24.8807V20.8807ZM51.399 25.1065C49.8754 27.7007 49.2263 31.2712 49.2145 35.5741L53.2145 35.585C53.2255 31.5697 53.849 28.8334 54.8482 27.1322L51.399 25.1065ZM49.2145 35.5714C49.2026 38.4793 49.4913 41.0302 50.1337 43.1759L53.9657 42.0286C53.4717 40.3788 53.2036 38.248 53.2145 35.5877L49.2145 35.5714ZM50.1369 43.1864C50.7825 45.3003 51.7509 47.0908 53.155 48.374L55.8536 45.4214C55.1439 44.7729 54.476 43.6997 53.9625 42.0181L50.1369 43.1864ZM53.1637 48.3819C54.5967 49.6762 56.3331 50.3295 58.2713 50.3295V46.3295C57.3004 46.3295 56.5255 46.0283 55.8448 45.4135L53.1637 48.3819ZM83.0597 51.5341L81.8954 53.1603L81.9059 53.1678L83.0597 51.5341ZM78.4403 45.3466L76.5801 46.0813L76.5839 46.0907L78.4403 45.3466ZM76.8381 35.5795L74.8381 35.5736V35.5795H76.8381ZM78.4574 25.8636L76.6021 25.1168L76.6004 25.1209L78.4574 25.8636ZM83.0767 19.7273L81.9292 18.0892L81.9248 18.0923L83.0767 19.7273ZM97.4972 19.7273L96.3496 21.3653L96.3496 21.3653L97.4972 19.7273ZM102.116 25.8636L100.258 26.6037L100.261 26.6105L102.116 25.8636ZM102.116 45.3636L100.259 44.6222L100.257 44.6263L102.116 45.3636ZM97.4972 51.5341L96.3434 49.9004L96.3391 49.9035L97.4972 51.5341ZM95.4517 45.108L93.7288 44.0923L93.7271 44.0951L95.4517 45.108ZM96.4915 28.5909L98.4033 28.0035L96.4915 28.5909ZM94.0369 24.3295L92.6876 25.8059L92.6964 25.8138L94.0369 24.3295ZM85.1392 26.1193L86.8638 27.1322L86.8661 27.1282L85.1392 26.1193ZM83.2301 35.5795L85.2301 35.5877L85.2301 35.585L83.2301 35.5795ZM84.0653 42.6023L82.1493 43.1759L82.1525 43.1864L84.0653 42.6023ZM86.5199 46.8977L85.1706 48.374L85.1793 48.3819L86.5199 46.8977ZM90.2869 51.6648C87.8333 51.6648 85.8414 51.0501 84.2134 49.9004L81.9059 53.1678C84.3007 54.859 87.1269 55.6648 90.2869 55.6648V51.6648ZM84.2239 49.9079C82.5861 48.7354 81.2603 47.0062 80.2968 44.6025L76.5839 46.0907C77.7795 49.0733 79.5332 51.4692 81.8954 53.1603L84.2239 49.9079ZM80.3005 44.6119C79.3484 42.2013 78.8381 39.2086 78.8381 35.5795H74.8381C74.8381 39.5641 75.3959 43.0828 76.5802 46.0813L80.3005 44.6119ZM78.8381 35.5855C78.8489 31.9539 79.3649 28.9801 80.3143 26.6064L76.6004 25.1209C75.4136 28.0881 74.85 31.5916 74.8381 35.5736L78.8381 35.5855ZM80.3127 26.6105C81.2749 24.2203 82.5973 22.5115 84.2286 21.3622L81.9248 18.0923C79.5561 19.7612 77.799 22.1434 76.6021 25.1168L80.3127 26.6105ZM84.2243 21.3653C85.8541 20.2235 87.8432 19.6136 90.2869 19.6136V15.6136C87.1397 15.6136 84.322 16.4129 81.9292 18.0892L84.2243 21.3653ZM90.2869 19.6136C92.7307 19.6136 94.7197 20.2235 96.3496 21.3653L98.6447 18.0892C96.2519 16.4129 93.4341 15.6136 90.2869 15.6136V19.6136ZM96.3496 21.3653C97.989 22.5138 99.3087 24.2193 100.258 26.6037L103.975 25.1236C102.788 22.1444 101.028 19.7589 98.6447 18.0892L96.3496 21.3653ZM100.261 26.6105C101.22 28.9934 101.736 31.964 101.736 35.5795H105.736C105.736 31.6041 105.172 28.0976 103.972 25.1168L100.261 26.6105ZM101.736 35.5795C101.736 39.2188 101.22 42.2144 100.259 44.6222L103.974 46.1051C105.172 43.1038 105.736 39.5767 105.736 35.5795H101.736ZM100.257 44.6263C99.3066 47.0235 97.985 48.7411 96.3434 49.9004L98.6509 53.1678C101.032 51.4862 102.79 49.0901 103.976 46.101L100.257 44.6263ZM96.3391 49.9035C94.7247 51.0501 92.7408 51.6648 90.2869 51.6648V55.6648C93.4467 55.6648 96.2696 54.859 98.6553 53.1647L96.3391 49.9035ZM90.2869 50.3295C93.2903 50.3295 95.6165 48.7766 97.1763 46.1208L93.7271 44.0951C92.7641 45.7348 91.6472 46.3295 90.2869 46.3295V50.3295ZM97.1746 46.1236C98.7129 43.5141 99.3608 39.9167 99.3608 35.5795H95.3608C95.3608 39.6288 94.736 42.3836 93.7288 44.0923L97.1746 46.1236ZM99.3608 35.5795C99.3608 32.6816 99.0596 30.1399 98.4033 28.0035L94.5797 29.1783C95.0824 30.8146 95.3608 32.932 95.3608 35.5795H99.3608ZM98.4033 28.0035C97.7568 25.8995 96.7862 24.1177 95.3775 22.8453L92.6964 25.8138C93.4013 26.4505 94.067 27.5096 94.5797 29.1783L98.4033 28.0035ZM95.3862 22.8533C93.9575 21.5475 92.2251 20.8807 90.2869 20.8807V24.8807C91.2352 24.8807 92.0027 25.1798 92.6876 25.8058L95.3862 22.8533ZM90.2869 20.8807C87.2854 20.8807 84.9672 22.4489 83.4123 25.1104L86.8661 27.1282C87.834 25.4715 88.9475 24.8807 90.2869 24.8807V20.8807ZM83.4146 25.1065C81.891 27.7007 81.2419 31.2712 81.2301 35.5741L85.2301 35.585C85.2411 31.5697 85.8647 28.8334 86.8638 27.1322L83.4146 25.1065ZM81.2301 35.5714C81.2183 38.4793 81.507 41.0302 82.1494 43.1759L85.9813 42.0286C85.4874 40.3788 85.2192 38.248 85.2301 35.5877L81.2301 35.5714ZM82.1525 43.1864C82.7981 45.3003 83.7666 47.0908 85.1706 48.374L87.8692 45.4214C87.1596 44.7729 86.4917 43.6997 85.9781 42.0181L82.1525 43.1864ZM85.1793 48.3819C86.6123 49.6762 88.3488 50.3295 90.2869 50.3295V46.3295C89.316 46.3295 88.5411 46.0283 87.8605 45.4135L85.1793 48.3819ZM115.075 51.5341L113.911 53.1603L113.922 53.1678L115.075 51.5341ZM110.456 45.3466L108.596 46.0813L108.6 46.0907L110.456 45.3466ZM108.854 35.5795L106.854 35.5736V35.5795H108.854ZM110.473 25.8636L108.618 25.1168L108.616 25.1209L110.473 25.8636ZM115.092 19.7273L113.945 18.0892L113.94 18.0923L115.092 19.7273ZM129.513 19.7273L128.365 21.3653L128.365 21.3653L129.513 19.7273ZM134.132 25.8636L132.274 26.6037L132.277 26.6105L134.132 25.8636ZM134.132 45.3636L132.275 44.6222L132.273 44.6263L134.132 45.3636ZM129.513 51.5341L128.359 49.9004L128.355 49.9035L129.513 51.5341ZM127.467 45.108L125.744 44.0923L125.743 44.0951L127.467 45.108ZM128.507 28.5909L130.419 28.0035L128.507 28.5909ZM126.053 24.3295L124.703 25.8059L124.712 25.8138L126.053 24.3295ZM117.155 26.1193L118.879 27.1322L118.882 27.1282L117.155 26.1193ZM115.246 35.5795L117.246 35.5877L117.246 35.585L115.246 35.5795ZM116.081 42.6023L114.165 43.1759L114.168 43.1864L116.081 42.6023ZM118.536 46.8977L117.186 48.374L117.195 48.3819L118.536 46.8977ZM122.303 51.6648C119.849 51.6648 117.857 51.0501 116.229 49.9004L113.922 53.1678C116.316 54.859 119.143 55.6648 122.303 55.6648V51.6648ZM116.24 49.9079C114.602 48.7354 113.276 47.0062 112.312 44.6025L108.6 46.0907C109.795 49.0733 111.549 51.4692 113.911 53.1603L116.24 49.9079ZM112.316 44.6119C111.364 42.2013 110.854 39.2086 110.854 35.5795H106.854C106.854 39.5641 107.412 43.0828 108.596 46.0813L112.316 44.6119ZM110.854 35.5855C110.865 31.9539 111.38 28.9801 112.33 26.6064L108.616 25.1209C107.429 28.0881 106.866 31.5916 106.854 35.5736L110.854 35.5855ZM112.328 26.6105C113.29 24.2203 114.613 22.5115 116.244 21.3622L113.94 18.0923C111.572 19.7612 109.815 22.1434 108.618 25.1168L112.328 26.6105ZM116.24 21.3653C117.87 20.2235 119.859 19.6136 122.303 19.6136V15.6136C119.155 15.6136 116.338 16.4129 113.945 18.0892L116.24 21.3653ZM122.303 19.6136C124.746 19.6136 126.735 20.2235 128.365 21.3653L130.66 18.0892C128.267 16.4129 125.45 15.6136 122.303 15.6136V19.6136ZM128.365 21.3653C130.005 22.5138 131.324 24.2193 132.274 26.6037L135.99 25.1236C134.804 22.1444 133.044 19.7589 130.66 18.0892L128.365 21.3653ZM132.277 26.6105C133.236 28.9934 133.751 31.964 133.751 35.5795H137.751C137.751 31.6041 137.187 28.0976 135.987 25.1168L132.277 26.6105ZM133.751 35.5795C133.751 39.2188 133.236 42.2144 132.275 44.6222L135.99 46.1051C137.188 43.1038 137.751 39.5767 137.751 35.5795H133.751ZM132.273 44.6263C131.322 47.0235 130.001 48.7411 128.359 49.9004L130.667 53.1678C133.048 51.4862 134.806 49.0901 135.991 46.101L132.273 44.6263ZM128.355 49.9035C126.74 51.0501 124.756 51.6648 122.303 51.6648V55.6648C125.462 55.6648 128.285 54.859 130.671 53.1647L128.355 49.9035ZM122.303 50.3295C125.306 50.3295 127.632 48.7766 129.192 46.1208L125.743 44.0951C124.78 45.7348 123.663 46.3295 122.303 46.3295V50.3295ZM129.19 46.1236C130.728 43.5141 131.376 39.9167 131.376 35.5795H127.376C127.376 39.6288 126.752 42.3836 125.744 44.0923L129.19 46.1236ZM131.376 35.5795C131.376 32.6816 131.075 30.1399 130.419 28.0035L126.595 29.1783C127.098 30.8146 127.376 32.932 127.376 35.5795H131.376ZM130.419 28.0035C129.772 25.8995 128.802 24.1177 127.393 22.8453L124.712 25.8138C125.417 26.4505 126.083 27.5096 126.595 29.1783L130.419 28.0035ZM127.402 22.8533C125.973 21.5475 124.241 20.8807 122.303 20.8807V24.8807C123.251 24.8807 124.018 25.1798 124.703 25.8058L127.402 22.8533ZM122.303 20.8807C119.301 20.8807 116.983 22.4489 115.428 25.1104L118.882 27.1282C119.85 25.4715 120.963 24.8807 122.303 24.8807V20.8807ZM115.43 25.1065C113.907 27.7007 113.257 31.2712 113.246 35.5741L117.246 35.585C117.257 31.5697 117.88 28.8334 118.879 27.1322L115.43 25.1065ZM113.246 35.5714C113.234 38.4793 113.523 41.0302 114.165 43.1759L117.997 42.0286C117.503 40.3788 117.235 38.248 117.246 35.5877L113.246 35.5714ZM114.168 43.1864C114.814 45.3003 115.782 47.0908 117.186 48.374L119.885 45.4214C119.175 44.7729 118.507 43.6997 117.994 42.0181L114.168 43.1864ZM117.195 48.3819C118.628 49.6762 120.364 50.3295 122.303 50.3295V46.3295C121.332 46.3295 120.557 46.0283 119.876 45.4135L117.195 48.3819ZM147.091 51.5341L145.927 53.1603L145.937 53.1678L147.091 51.5341ZM142.472 45.3466L140.611 46.0813L140.615 46.0907L142.472 45.3466ZM140.869 35.5795L138.869 35.5736V35.5795H140.869ZM142.489 25.8636L140.633 25.1168L140.632 25.1209L142.489 25.8636ZM147.108 19.7273L145.96 18.0892L145.956 18.0923L147.108 19.7273ZM161.528 19.7273L160.381 21.3653V21.3653L161.528 19.7273ZM166.148 25.8636L164.29 26.6037L164.292 26.6105L166.148 25.8636ZM166.148 45.3636L164.29 44.6222L164.289 44.6263L166.148 45.3636ZM161.528 51.5341L160.375 49.9004L160.37 49.9035L161.528 51.5341ZM159.483 45.108L157.76 44.0923L157.758 44.0951L159.483 45.108ZM160.523 28.5909L162.435 28.0035L160.523 28.5909ZM158.068 24.3295L156.719 25.8059L156.728 25.8138L158.068 24.3295ZM149.17 26.1193L150.895 27.1322L150.897 27.1282L149.17 26.1193ZM147.261 35.5795L149.261 35.5877V35.585L147.261 35.5795ZM148.097 42.6023L146.181 43.1759L146.184 43.1864L148.097 42.6023ZM150.551 46.8977L149.202 48.374L149.211 48.3819L150.551 46.8977ZM154.318 51.6648C151.865 51.6648 149.873 51.0501 148.245 49.9004L145.937 53.1678C148.332 54.859 151.158 55.6648 154.318 55.6648V51.6648ZM148.255 49.9079C146.617 48.7354 145.292 47.0062 144.328 44.6025L140.615 46.0907C141.811 49.0733 143.564 51.4692 145.927 53.1603L148.255 49.9079ZM144.332 44.6119C143.38 42.2013 142.869 39.2086 142.869 35.5795H138.869C138.869 39.5641 139.427 43.0828 140.611 46.0813L144.332 44.6119ZM142.869 35.5855C142.88 31.9539 143.396 28.9801 144.346 26.6064L140.632 25.1209C139.445 28.0881 138.881 31.5916 138.869 35.5736L142.869 35.5855ZM144.344 26.6105C145.306 24.2203 146.629 22.5115 148.26 21.3622L145.956 18.0923C143.587 19.7612 141.83 22.1434 140.633 25.1168L144.344 26.6105ZM148.256 21.3653C149.885 20.2235 151.874 19.6136 154.318 19.6136V15.6136C151.171 15.6136 148.353 16.4129 145.96 18.0892L148.256 21.3653ZM154.318 19.6136C156.762 19.6136 158.751 20.2235 160.381 21.3653L162.676 18.0892C160.283 16.4129 157.465 15.6136 154.318 15.6136V19.6136ZM160.381 21.3653C162.02 22.5138 163.34 24.2193 164.29 26.6037L168.006 25.1236C166.819 22.1444 165.059 19.7589 162.676 18.0892L160.381 21.3653ZM164.292 26.6105C165.252 28.9934 165.767 31.964 165.767 35.5795H169.767C169.767 31.6041 169.203 28.0976 168.003 25.1168L164.292 26.6105ZM165.767 35.5795C165.767 39.2188 165.251 42.2144 164.29 44.6222L168.005 46.1051C169.203 43.1038 169.767 39.5767 169.767 35.5795H165.767ZM164.289 44.6263C163.338 47.0235 162.016 48.7411 160.375 49.9004L162.682 53.1678C165.063 51.4862 166.821 49.0901 168.007 46.101L164.289 44.6263ZM160.37 49.9035C158.756 51.0501 156.772 51.6648 154.318 51.6648V55.6648C157.478 55.6648 160.301 54.859 162.686 53.1647L160.37 49.9035ZM154.318 50.3295C157.322 50.3295 159.648 48.7766 161.208 46.1208L157.758 44.0951C156.795 45.7348 155.678 46.3295 154.318 46.3295V50.3295ZM161.206 46.1236C162.744 43.5141 163.392 39.9167 163.392 35.5795H159.392C159.392 39.6288 158.767 42.3836 157.76 44.0923L161.206 46.1236ZM163.392 35.5795C163.392 32.6816 163.091 30.1399 162.435 28.0035L158.611 29.1783C159.114 30.8146 159.392 32.932 159.392 35.5795H163.392ZM162.435 28.0035C161.788 25.8995 160.817 24.1177 159.409 22.8453L156.728 25.8138C157.433 26.4505 158.098 27.5096 158.611 29.1783L162.435 28.0035ZM159.417 22.8533C157.989 21.5475 156.256 20.8807 154.318 20.8807V24.8807C155.266 24.8807 156.034 25.1798 156.719 25.8058L159.417 22.8533ZM154.318 20.8807C151.317 20.8807 148.998 22.4489 147.444 25.1104L150.897 27.1282C151.865 25.4715 152.979 24.8807 154.318 24.8807V20.8807ZM147.446 25.1065C145.922 27.7007 145.273 31.2712 145.261 35.5741L149.261 35.585C149.272 31.5697 149.896 28.8334 150.895 27.1322L147.446 25.1065ZM145.261 35.5714C145.25 38.4793 145.538 41.0302 146.181 43.1759L150.013 42.0286C149.519 40.3788 149.25 38.248 149.261 35.5877L145.261 35.5714ZM146.184 43.1864C146.829 45.3003 147.798 47.0908 149.202 48.374L151.9 45.4214C151.191 44.7729 150.523 43.6997 150.009 42.0181L146.184 43.1864ZM149.211 48.3819C150.644 49.6762 152.38 50.3295 154.318 50.3295V46.3295C153.347 46.3295 152.572 46.0283 151.892 45.4135L149.211 48.3819ZM179.107 51.5341L177.942 53.1603L177.953 53.1678L179.107 51.5341ZM174.487 45.3466L172.627 46.0813L172.631 46.0907L174.487 45.3466ZM172.885 35.5795L170.885 35.5736V35.5795H172.885ZM174.504 25.8636L172.649 25.1168L172.647 25.1209L174.504 25.8636ZM179.124 19.7273L177.976 18.0892L177.972 18.0923L179.124 19.7273ZM193.544 19.7273L192.396 21.3653V21.3653L193.544 19.7273ZM198.163 25.8636L196.305 26.6037L196.308 26.6105L198.163 25.8636ZM198.163 45.3636L196.306 44.6222L196.304 44.6263L198.163 45.3636ZM193.544 51.5341L192.39 49.9004L192.386 49.9035L193.544 51.5341ZM191.499 45.108L189.776 44.0923L189.774 44.0951L191.499 45.108ZM192.538 28.5909L194.45 28.0035L192.538 28.5909ZM190.084 24.3295L188.734 25.8059L188.743 25.8138L190.084 24.3295ZM181.186 26.1193L182.911 27.1322L182.913 27.1282L181.186 26.1193ZM179.277 35.5795L181.277 35.5877V35.585L179.277 35.5795ZM180.112 42.6023L178.196 43.1759L178.199 43.1864L180.112 42.6023ZM182.567 46.8977L181.217 48.374L181.226 48.3819L182.567 46.8977ZM186.334 51.6648C183.88 51.6648 181.888 51.0501 180.26 49.9004L177.953 53.1678C180.348 54.859 183.174 55.6648 186.334 55.6648V51.6648ZM180.271 49.9079C178.633 48.7354 177.307 47.0062 176.344 44.6025L172.631 46.0907C173.826 49.0733 175.58 51.4692 177.942 53.1603L180.271 49.9079ZM176.347 44.6119C175.395 42.2013 174.885 39.2086 174.885 35.5795H170.885C170.885 39.5641 171.443 43.0828 172.627 46.0813L176.347 44.6119ZM174.885 35.5855C174.896 31.9539 175.412 28.9801 176.361 26.6064L172.647 25.1209C171.46 28.0881 170.897 31.5916 170.885 35.5736L174.885 35.5855ZM176.36 26.6105C177.322 24.2203 178.644 22.5115 180.275 21.3622L177.972 18.0923C175.603 19.7612 173.846 22.1434 172.649 25.1168L176.36 26.6105ZM180.271 21.3653C181.901 20.2235 183.89 19.6136 186.334 19.6136V15.6136C183.187 15.6136 180.369 16.4129 177.976 18.0892L180.271 21.3653ZM186.334 19.6136C188.778 19.6136 190.767 20.2235 192.396 21.3653L194.692 18.0892C192.299 16.4129 189.481 15.6136 186.334 15.6136V19.6136ZM192.396 21.3653C194.036 22.5138 195.356 24.2193 196.305 26.6037L200.021 25.1236C198.835 22.1444 197.075 19.7589 194.692 18.0892L192.396 21.3653ZM196.308 26.6105C197.267 28.9934 197.783 31.964 197.783 35.5795H201.783C201.783 31.6041 201.219 28.0976 200.019 25.1168L196.308 26.6105ZM197.783 35.5795C197.783 39.2188 197.267 42.2144 196.306 44.6222L200.021 46.1051C201.219 43.1038 201.783 39.5767 201.783 35.5795H197.783ZM196.304 44.6263C195.353 47.0235 194.032 48.7411 192.39 49.9004L194.698 53.1678C197.079 51.4862 198.837 49.0901 200.022 46.101L196.304 44.6263ZM192.386 49.9035C190.772 51.0501 188.788 51.6648 186.334 51.6648V55.6648C189.494 55.6648 192.316 54.859 194.702 53.1647L192.386 49.9035ZM186.334 50.3295C189.337 50.3295 191.663 48.7766 193.223 46.1208L189.774 44.0951C188.811 45.7348 187.694 46.3295 186.334 46.3295V50.3295ZM193.222 46.1236C194.76 43.5141 195.408 39.9167 195.408 35.5795H191.408C191.408 39.6288 190.783 42.3836 189.776 44.0923L193.222 46.1236ZM195.408 35.5795C195.408 32.6816 195.107 30.1399 194.45 28.0035L190.627 29.1783C191.129 30.8146 191.408 32.932 191.408 35.5795H195.408ZM194.45 28.0035C193.804 25.8995 192.833 24.1177 191.424 22.8453L188.743 25.8138C189.448 26.4505 190.114 27.5096 190.627 29.1783L194.45 28.0035ZM191.433 22.8533C190.004 21.5475 188.272 20.8807 186.334 20.8807V24.8807C187.282 24.8807 188.05 25.1798 188.735 25.8058L191.433 22.8533ZM186.334 20.8807C183.332 20.8807 181.014 22.4489 179.459 25.1104L182.913 27.1282C183.881 25.4715 184.994 24.8807 186.334 24.8807V20.8807ZM179.462 25.1065C177.938 27.7007 177.289 31.2712 177.277 35.5741L181.277 35.585C181.288 31.5697 181.912 28.8334 182.911 27.1322L179.462 25.1065ZM177.277 35.5714C177.265 38.4793 177.554 41.0302 178.196 43.1759L182.028 42.0286C181.534 40.3788 181.266 38.248 181.277 35.5877L177.277 35.5714ZM178.199 43.1864C178.845 45.3003 179.813 47.0908 181.217 48.374L183.916 45.4214C183.206 44.7729 182.539 43.6997 182.025 42.0181L178.199 43.1864ZM181.226 48.3819C182.659 49.6762 184.396 50.3295 186.334 50.3295V46.3295C185.363 46.3295 184.588 46.0283 183.907 45.4135L181.226 48.3819ZM216.696 57.3636H214.696V59.3636H216.696V57.3636ZM216.696 13.7273V11.7273H214.696V13.7273H216.696ZM219.491 13.7273H221.491V11.7273H219.491V13.7273ZM219.491 57.3636V59.3636H221.491V57.3636H219.491ZM224.759 27.6875L222.77 27.9L222.961 29.6875H224.759V27.6875ZM222.747 24.2102L221.591 25.842L221.598 25.8472L222.747 24.2102ZM214.787 23.5625L215.564 25.4054V25.4054L214.787 23.5625ZM212.622 25.1818L211.009 23.9991V23.9991L212.622 25.1818ZM211.855 27.517L209.855 27.4911L209.855 27.5041V27.517H211.855ZM212.349 29.4091L210.647 30.4593L210.655 30.4723L210.664 30.4852L212.349 29.4091ZM213.73 30.7727L212.644 32.4519L212.655 32.4594L212.667 32.4669L213.73 30.7727ZM215.656 31.6932L214.987 33.578L215.656 31.6932ZM217.787 32.3239L218.272 30.3836L218.261 30.3809L218.25 30.3783L217.787 32.3239ZM221.06 33.142L220.575 35.0823L220.59 35.0863L220.606 35.09L221.06 33.142ZM224.861 34.3864L224.071 36.2238L224.077 36.2264L224.861 34.3864ZM228.151 36.3636L226.879 37.9075L226.888 37.9148L228.151 36.3636ZM229.753 48.6023L231.409 49.7229L231.413 49.7173L229.753 48.6023ZM225.219 52.233L226.023 54.0641L226.028 54.0619L225.219 52.233ZM211.003 52.267L210.224 54.1091L210.228 54.1107L211.003 52.267ZM206.332 48.5852L204.686 49.7212L204.692 49.729L206.332 48.5852ZM204.526 42.6875V40.6875H202.446L202.527 42.7659L204.526 42.6875ZM210.747 42.6875L212.742 42.5384L212.603 40.6875H210.747V42.6875ZM211.872 45.7216L213.421 44.4563L211.872 45.7216ZM214.446 47.5284L213.742 49.4002L213.748 49.4027L214.446 47.5284ZM221.639 47.5114L222.375 49.3712L222.385 49.3669L221.639 47.5114ZM224.094 45.7727L225.655 47.0221L225.66 47.0163L225.665 47.0105L224.094 45.7727ZM224.997 43.1477L226.997 43.1705L226.997 43.1466L226.997 43.1227L224.997 43.1477ZM224.196 40.8977L222.686 42.2087L222.692 42.2158L222.698 42.2229L224.196 40.8977ZM221.997 39.3977L221.193 41.229L221.207 41.2349L221.22 41.2406L221.997 39.3977ZM218.724 38.3068L218.226 40.2436L218.231 40.245L218.724 38.3068ZM214.753 37.2841L215.252 35.3473L215.251 35.347L214.753 37.2841ZM207.935 33.9261L206.588 35.4046L206.593 35.4095L206.598 35.4142L207.935 33.9261ZM207.116 22.5057L205.499 21.3286L205.494 21.3364L207.116 22.5057ZM211.702 18.9091L212.509 20.7389L212.518 20.7349L211.702 18.9091ZM224.776 18.9091L223.935 20.7237L223.941 20.7268L223.948 20.7298L224.776 18.9091ZM229.19 22.4716L227.553 23.6202L227.557 23.6259L229.19 22.4716ZM230.844 27.6875V29.6875H232.879L232.843 27.6528L230.844 27.6875ZM218.696 57.3636V13.7273H214.696V57.3636H218.696ZM216.696 15.7273H219.491V11.7273H216.696V15.7273ZM217.491 13.7273V57.3636H221.491V13.7273H217.491ZM219.491 55.3636H216.696V59.3636H219.491V55.3636ZM226.747 27.475C226.529 25.4368 225.57 23.748 223.896 22.5732L221.598 25.8472C222.288 26.3316 222.669 26.961 222.77 27.9L226.747 27.475ZM223.904 22.5785C222.305 21.4454 220.342 20.9659 218.179 20.9659V24.9659C219.766 24.9659 220.849 25.316 221.591 25.842L223.904 22.5785ZM218.179 20.9659C216.667 20.9659 215.259 21.193 214.01 21.7196L215.564 25.4054C216.202 25.1365 217.054 24.9659 218.179 24.9659V20.9659ZM214.01 21.7196C212.804 22.2282 211.764 22.9698 211.009 23.9991L214.235 26.3645C214.48 26.0302 214.884 25.6922 215.564 25.4054L214.01 21.7196ZM211.009 23.9991C210.254 25.0291 209.872 26.2151 209.855 27.4911L213.855 27.543C213.861 27.069 213.99 26.6982 214.235 26.3645L211.009 23.9991ZM209.855 27.517C209.855 28.5553 210.094 29.5621 210.647 30.4593L214.051 28.3589C213.946 28.1879 213.855 27.9334 213.855 27.517H209.855ZM210.664 30.4852C211.172 31.2819 211.845 31.9352 212.644 32.4519L214.817 29.0936C214.456 28.8602 214.209 28.6045 214.035 28.333L210.664 30.4852ZM212.667 32.4669C213.382 32.9151 214.158 33.2836 214.987 33.578L216.325 29.8083C215.746 29.6028 215.238 29.3576 214.793 29.0786L212.667 32.4669ZM214.987 33.578C215.758 33.8516 216.537 34.0822 217.324 34.2695L218.25 30.3783C217.605 30.2246 216.963 30.0348 216.325 29.8083L214.987 33.578ZM217.302 34.2641L220.575 35.0823L221.545 31.2018L218.272 30.3836L217.302 34.2641ZM220.606 35.09C221.812 35.3706 222.966 35.7488 224.071 36.2238L225.651 32.549C224.324 31.9785 222.944 31.5271 221.513 31.1941L220.606 35.09ZM224.077 36.2264C225.14 36.6792 226.07 37.2413 226.879 37.9075L229.422 34.8198C228.299 33.895 227.036 33.139 225.645 32.5463L224.077 36.2264ZM226.888 37.9148C227.647 38.5328 228.242 39.2717 228.684 40.146L232.254 38.3427C231.559 36.9669 230.608 35.7854 229.413 34.8125L226.888 37.9148ZM228.684 40.146C229.085 40.941 229.321 41.9389 229.321 43.1989H233.321C233.321 41.4361 232.989 39.7976 232.254 38.3427L228.684 40.146ZM229.321 43.1989C229.321 44.8848 228.896 46.2901 228.092 47.4873L231.413 49.7173C232.7 47.8008 233.321 45.6038 233.321 43.1989H229.321ZM228.096 47.4817C227.293 48.6694 226.099 49.6563 224.409 50.404L226.028 54.0619C228.293 53.0596 230.122 51.626 231.409 49.7229L228.096 47.4817ZM224.414 50.4019C222.766 51.1259 220.675 51.5284 218.077 51.5284V55.5284C221.069 55.5284 223.74 55.0673 226.023 54.0641L224.414 50.4019ZM218.077 51.5284C215.562 51.5284 213.479 51.1387 211.778 50.4234L210.228 54.1107C212.526 55.0772 215.159 55.5284 218.077 55.5284V51.5284ZM211.782 50.425C210.105 49.7161 208.862 48.7158 207.973 47.4414L204.692 49.729C206.053 51.6819 207.923 53.1362 210.224 54.1091L211.782 50.425ZM207.978 47.4492C207.117 46.2009 206.603 44.6189 206.524 42.6091L202.527 42.7659C202.63 45.3925 203.321 47.7423 204.686 49.7212L207.978 47.4492ZM204.526 44.6875H210.747V40.6875H204.526V44.6875ZM208.753 42.8366C208.869 44.3898 209.363 45.8111 210.323 46.9869L213.421 44.4563C213.063 44.0185 212.807 43.417 212.742 42.5384L208.753 42.8366ZM210.323 46.9869C211.224 48.0895 212.383 48.8891 213.742 49.4002L215.15 45.6566C214.395 45.3723 213.839 44.9673 213.421 44.4563L210.323 46.9869ZM213.748 49.4027C215.072 49.8955 216.506 50.125 218.026 50.125V46.125C216.909 46.125 215.957 45.9568 215.144 45.6541L213.748 49.4027ZM218.026 50.125C219.595 50.125 221.058 49.8919 222.375 49.3711L220.903 45.6516C220.152 45.949 219.206 46.125 218.026 46.125V50.125ZM222.385 49.3669C223.689 48.8426 224.812 48.0768 225.655 47.0221L222.532 44.5233C222.194 44.9459 221.68 45.3392 220.893 45.6558L222.385 49.3669ZM225.665 47.0105C226.542 45.8966 226.981 44.5892 226.997 43.1705L222.997 43.125C222.991 43.7062 222.827 44.1488 222.523 44.535L225.665 47.0105ZM226.997 43.1227C226.981 41.8116 226.582 40.5768 225.694 39.5726L222.698 42.2229C222.855 42.4005 222.991 42.6657 222.997 43.1727L226.997 43.1227ZM225.706 39.5868C224.935 38.6975 223.922 38.0389 222.774 37.5549L221.22 41.2406C221.959 41.552 222.412 41.8934 222.686 42.2087L225.706 39.5868ZM222.801 37.5664C221.746 37.1034 220.547 36.7071 219.218 36.3686L218.231 40.245C219.401 40.5429 220.384 40.8739 221.193 41.229L222.801 37.5664ZM219.223 36.37L215.252 35.3473L214.254 39.2209L218.226 40.2436L219.223 36.37ZM215.251 35.347C212.591 34.6636 210.637 33.6652 209.271 32.438L206.598 35.4142C208.573 37.1871 211.165 38.4273 214.255 39.2212L215.251 35.347ZM209.282 32.4476C208.088 31.3607 207.446 29.9176 207.446 27.9091H203.446C203.446 30.9006 204.463 33.4688 206.588 35.4046L209.282 32.4476ZM207.446 27.9091C207.446 26.2366 207.891 24.8523 208.739 23.6749L205.494 21.3364C204.115 23.25 203.446 25.4679 203.446 27.9091H207.446ZM208.733 23.6827C209.63 22.4516 210.865 21.4641 212.509 20.7389L210.894 17.0793C208.675 18.0586 206.853 19.4689 205.5 21.3286L208.733 23.6827ZM212.518 20.7349C214.156 20.0025 216.059 19.6136 218.264 19.6136V15.6136C215.583 15.6136 213.111 16.0884 210.885 17.0832L212.518 20.7349ZM218.264 19.6136C220.51 19.6136 222.383 20.0047 223.935 20.7237L225.616 17.0945C223.441 16.0862 220.973 15.6136 218.264 15.6136V19.6136ZM223.948 20.7298C225.534 21.4506 226.711 22.4204 227.553 23.6202L230.828 21.323C229.533 19.4774 227.767 18.0721 225.603 17.0884L223.948 20.7298ZM227.557 23.6259C228.379 24.7884 228.816 26.1314 228.844 27.7222L232.843 27.6528C232.803 25.3118 232.138 23.1775 230.824 21.3173L227.557 23.6259ZM230.844 25.6875H224.759V29.6875H230.844V25.6875Z" fill="white" mask="url(#path-2-outside-2_499_350)"/>
<defs>
<filter id="filter0_f_499_350" x="0.752344" y="0.826562" width="243.468" height="69.4367" filterUnits="userSpaceOnUse" color-interpolation-filters="sRGB">
<feFlood flood-opacity="0" result="BackgroundImageFix"/>
<feBlend mode="normal" in="SourceGraphic" in2="BackgroundImageFix" result="shape"/>
<feGaussianBlur stdDeviation="3.95" result="effect1_foregroundBlur_499_350"/>
</filter>
</defs>
</svg>
