<svg width="288" height="118" viewBox="0 0 288 118" fill="none" xmlns="http://www.w3.org/2000/svg">
<g filter="url(#filter0_f_499_376)">
<path d="M152.227 94.1183L152.217 94.1126C146.685 90.8245 142.346 86.1279 139.193 80.1525L139.188 80.1436L139.183 80.1345C136.009 74.0437 134.509 66.9042 134.509 58.8627C134.509 50.8012 136.008 43.6579 139.186 37.5846L139.189 37.579C142.342 31.5784 146.685 26.8745 152.229 23.6056L152.236 23.6015C157.777 20.3497 164.001 18.7617 170.801 18.7617C177.601 18.7617 183.816 20.3494 189.338 23.6047C189.338 23.605 189.339 23.6053 189.339 23.6056L187.307 27.0513C192.18 29.911 196.024 34.0404 198.838 39.4395L152.227 94.1183ZM152.227 94.1183L152.236 94.1239M152.227 94.1183L152.236 94.1239M152.236 94.1239C157.777 97.3756 164.001 98.9636 170.801 98.9636C177.601 98.9636 183.817 97.3757 189.339 94.1199L152.236 94.1239ZM59.7563 43.4678L60.1384 47.0428H63.7337H75.9847H80.0546L79.9841 42.9734C79.9025 38.2675 78.5674 33.9779 75.9263 30.2386C73.3257 26.5339 69.7813 23.7117 65.4365 21.7343C61.0635 19.7106 56.1041 18.7617 50.6591 18.7617C45.2678 18.7617 40.2977 19.7156 35.8237 21.7141C31.3624 23.6839 27.7029 26.519 24.9822 30.2565L24.9765 30.2643L24.9709 30.2721C22.1984 34.1196 20.8531 38.5793 20.8531 43.4889C20.8531 49.505 22.8975 54.668 27.1696 58.5596L27.1802 58.5693L27.1908 58.5788C31.1616 62.1444 36.3764 64.6396 42.5946 66.2372L50.5881 68.2956L50.5989 68.2983C52.9563 68.8984 54.9362 69.5651 56.5665 70.2808L56.5933 70.2926L56.6202 70.3039C58.1099 70.9321 59.0262 71.6215 59.5804 72.26L59.5928 72.2742L59.6053 72.2884C59.9215 72.6458 60.1931 73.1751 60.2137 74.1706C60.192 75.3169 59.8646 76.1968 59.2624 76.9656C58.58 77.8141 57.5468 78.6024 55.9719 79.2375C54.4565 79.8351 52.5529 80.1883 50.1787 80.1883C47.9308 80.1883 46.0128 79.8501 44.3742 79.2409C42.853 78.6672 41.7305 77.8502 40.8882 76.8191C40.1642 75.9328 39.647 74.7164 39.5144 72.9431L39.2376 69.2413H35.5255H23H18.8401L19.0031 73.398C19.2103 78.6819 20.5992 83.4075 23.3454 87.3868L23.3508 87.3947L23.3563 87.4025C26.0941 91.3295 29.8544 94.2544 34.4824 96.2113L34.4899 96.2145C39.114 98.1587 44.4109 99.0666 50.2816 99.0666C56.3036 99.0666 61.6758 98.1386 66.2691 96.1208L66.2789 96.1164C70.8351 94.1002 74.5129 91.2171 77.1016 87.3904L77.1092 87.3791C79.6969 83.5256 80.9455 79.1077 80.9455 74.2708C80.9455 70.7252 80.2774 67.4309 78.8002 64.5061C77.4048 61.7431 75.4959 59.3698 73.0967 57.4149C70.842 55.5596 68.3066 54.0421 65.5134 52.8518C62.8551 51.7094 60.0914 50.8046 57.2261 50.1357L50.6684 48.4963L50.6466 48.4908L50.6247 48.4856C49.3247 48.1761 48.0321 47.7937 46.7463 47.3374C45.5894 46.9269 44.5728 46.4377 43.6816 45.8813C42.9771 45.4216 42.4876 44.9187 42.1411 44.3848C41.9342 44.0398 41.7598 43.534 41.7562 42.7257C41.773 41.7783 42.0345 41.0339 42.526 40.3637C43.023 39.6859 43.8396 39.0029 45.2127 38.4239L43.6585 34.7382L45.2128 38.4239C46.5002 37.881 48.2205 37.5371 50.4875 37.5371C53.6864 37.5371 55.8715 38.2427 57.3714 39.3057L57.3788 39.3109L57.3863 39.3162C58.782 40.2959 59.5535 41.57 59.7563 43.4678ZM84.2957 94.0028V98.0028H88.2957H131.981H135.981V94.0028V83.3304V79.3304H131.981H105.027V23.7226V19.7226H101.027H88.2957H84.2957V23.7226V94.0028ZM207.093 58.8627C207.093 50.8014 205.583 43.6574 202.381 37.5837L189.339 94.1197C194.901 90.8538 199.247 86.163 202.38 80.1788C205.582 74.084 207.093 66.9287 207.093 58.8627ZM184.136 47.0093L184.143 47.023L184.149 47.0366C185.517 50.0357 186.293 53.9279 186.293 58.8627C186.293 63.7962 185.517 67.7044 184.145 70.7316L184.14 70.7419C182.762 73.8052 180.944 75.9402 178.757 77.3608C176.537 78.7796 173.93 79.5363 170.801 79.5363C167.672 79.5363 165.065 78.7795 162.845 77.3604C160.656 75.9383 158.826 73.8007 157.425 70.7361C156.073 67.7053 155.309 63.7947 155.309 58.8627C155.309 53.9227 156.076 50.024 157.427 47.0197C158.831 43.9274 160.66 41.7992 162.836 40.4055L162.845 40.3996L162.854 40.3936C165.073 38.9545 167.677 38.1891 170.801 38.1891C173.925 38.1891 176.529 38.9545 178.748 40.3936L178.758 40.3996L178.767 40.4055C180.939 41.797 182.755 43.9208 184.136 47.0093ZM204.927 38.395H208.927H226.649V94.0028V98.0028H230.649H243.278H247.278V94.0028V38.395H265H269V34.395V23.7226V19.7226H265H208.927H204.927V23.7226V34.395V38.395Z" stroke="#45CFF1" stroke-width="8"/>
</g>
<mask id="path-2-outside-1_499_376" maskUnits="userSpaceOnUse" x="19" y="19" width="249" height="81" fill="black">
<rect fill="white" x="19" y="19" width="249" height="81"/>
<path d="M63.8295 43.375C63.5114 40.3977 62.1705 38.0795 59.8068 36.4205C57.4659 34.7614 54.4205 33.9318 50.6705 33.9318C48.0341 33.9318 45.7727 34.3295 43.8864 35.125C42 35.9205 40.5568 37 39.5568 38.3636C38.5568 39.7273 38.0455 41.2841 38.0227 43.0341C38.0227 44.4886 38.3523 45.75 39.0114 46.8182C39.6932 47.8864 40.6136 48.7955 41.7727 49.5455C42.9318 50.2727 44.2159 50.8864 45.625 51.3864C47.0341 51.8864 48.4545 52.3068 49.8864 52.6477L56.4318 54.2841C59.0682 54.8977 61.6023 55.7273 64.0341 56.7727C66.4886 57.8182 68.6818 59.1364 70.6136 60.7273C72.5682 62.3182 74.1136 64.2386 75.25 66.4886C76.3864 68.7386 76.9545 71.375 76.9545 74.3977C76.9545 78.4886 75.9091 82.0909 73.8182 85.2045C71.7273 88.2955 68.7045 90.7159 64.75 92.4659C60.8182 94.1932 56.0568 95.0568 50.4659 95.0568C45.0341 95.0568 40.3182 94.2159 36.3182 92.5341C32.3409 90.8523 29.2273 88.3977 26.9773 85.1705C24.75 81.9432 23.5455 78.0114 23.3636 73.375H35.8068C35.9886 75.8068 36.7386 77.8295 38.0568 79.4432C39.375 81.0568 41.0909 82.2614 43.2045 83.0568C45.3409 83.8523 47.7273 84.25 50.3636 84.25C53.1136 84.25 55.5227 83.8409 57.5909 83.0227C59.6818 82.1818 61.3182 81.0227 62.5 79.5455C63.6818 78.0455 64.2841 76.2955 64.3068 74.2955C64.2841 72.4773 63.75 70.9773 62.7045 69.7955C61.6591 68.5909 60.1932 67.5909 58.3068 66.7955C56.4432 65.9773 54.2614 65.25 51.7614 64.6136L43.8182 62.5682C38.0682 61.0909 33.5227 58.8523 30.1818 55.8523C26.8636 52.8295 25.2045 48.8182 25.2045 43.8182C25.2045 39.7045 26.3182 36.1023 28.5455 33.0114C30.7955 29.9205 33.8523 27.5227 37.7159 25.8182C41.5795 24.0909 45.9545 23.2273 50.8409 23.2273C55.7955 23.2273 60.1364 24.0909 63.8636 25.8182C67.6136 27.5227 70.5568 29.8977 72.6932 32.9432C74.8295 35.9659 75.9318 39.4432 76 43.375H63.8295ZM88.2301 94V24.1818H100.878V83.3977H131.628V94H88.2301ZM202.273 59.0909C202.273 66.6136 200.864 73.0568 198.045 78.4205C195.25 83.7614 191.432 87.8523 186.591 90.6932C181.773 93.5341 176.307 94.9545 170.193 94.9545C164.08 94.9545 158.602 93.5341 153.761 90.6932C148.943 87.8295 145.125 83.7273 142.307 78.3864C139.511 73.0227 138.114 66.5909 138.114 59.0909C138.114 51.5682 139.511 45.1364 142.307 39.7955C145.125 34.4318 148.943 30.3295 153.761 27.4886C158.602 24.6477 164.08 23.2273 170.193 23.2273C176.307 23.2273 181.773 24.6477 186.591 27.4886C191.432 30.3295 195.25 34.4318 198.045 39.7955C200.864 45.1364 202.273 51.5682 202.273 59.0909ZM189.557 59.0909C189.557 53.7955 188.727 49.3295 187.068 45.6932C185.432 42.0341 183.159 39.2727 180.25 37.4091C177.341 35.5227 173.989 34.5795 170.193 34.5795C166.398 34.5795 163.045 35.5227 160.136 37.4091C157.227 39.2727 154.943 42.0341 153.284 45.6932C151.648 49.3295 150.83 53.7955 150.83 59.0909C150.83 64.3864 151.648 68.8636 153.284 72.5227C154.943 76.1591 157.227 78.9205 160.136 80.8068C163.045 82.6705 166.398 83.6023 170.193 83.6023C173.989 83.6023 177.341 82.6705 180.25 80.8068C183.159 78.9205 185.432 76.1591 187.068 72.5227C188.727 68.8636 189.557 64.3864 189.557 59.0909ZM208.068 34.7841V24.1818H263.773V34.7841H242.193V94H229.648V34.7841H208.068Z"/>
</mask>
<path d="M63.8295 43.375L59.8522 43.8001L60.2342 47.375H63.8295V43.375ZM59.8068 36.4205L57.4939 39.6839L57.5013 39.6892L57.5087 39.6944L59.8068 36.4205ZM43.8864 35.125L45.4406 38.8107L45.4406 38.8107L43.8864 35.125ZM39.5568 38.3636L36.3312 35.9982L36.3312 35.9982L39.5568 38.3636ZM38.0227 43.0341L34.0231 42.9821L34.0227 43.0081V43.0341H38.0227ZM39.0114 46.8182L35.6072 48.9186L35.6233 48.9446L35.6397 48.9703L39.0114 46.8182ZM41.7727 49.5455L39.5997 52.9037L39.6231 52.9189L39.6468 52.9337L41.7727 49.5455ZM45.625 51.3864L44.2874 55.1561H44.2874L45.625 51.3864ZM49.8864 52.6477L50.8565 48.7672L50.8347 48.7617L50.8128 48.7565L49.8864 52.6477ZM56.4318 54.2841L55.4617 58.1647L55.4933 58.1726L55.525 58.18L56.4318 54.2841ZM64.0341 56.7727L62.4543 60.4475L62.4666 60.4528L64.0341 56.7727ZM70.6136 60.7273L68.0708 63.815L68.0797 63.8223L68.0886 63.8295L70.6136 60.7273ZM73.8182 85.2045L77.1313 87.4458L77.1389 87.4345L73.8182 85.2045ZM64.75 92.4659L66.3588 96.1281L66.3687 96.1237L64.75 92.4659ZM36.3182 92.5341L34.7603 96.2183L34.7678 96.2214L36.3182 92.5341ZM26.9773 85.1705L23.6852 87.4425L23.6906 87.4503L23.696 87.4581L26.9773 85.1705ZM23.3636 73.375V69.375H19.2037L19.3667 73.5317L23.3636 73.375ZM35.8068 73.375L39.7957 73.0768L39.5189 69.375H35.8068V73.375ZM38.0568 79.4432L41.1546 76.9126L38.0568 79.4432ZM43.2045 83.0568L41.7956 86.8005L41.8088 86.8054L43.2045 83.0568ZM57.5909 83.0227L59.0624 86.7422L59.0729 86.7381L59.0834 86.7338L57.5909 83.0227ZM62.5 79.5455L65.6235 82.0442L65.6328 82.0326L65.642 82.0209L62.5 79.5455ZM64.3068 74.2955L68.3066 74.3409L68.3071 74.2932L68.3065 74.2455L64.3068 74.2955ZM62.7045 69.7955L59.6837 72.4173L59.696 72.4316L59.7086 72.4458L62.7045 69.7955ZM58.3068 66.7955L56.6989 70.458L56.7256 70.4698L56.7526 70.4812L58.3068 66.7955ZM51.7614 64.6136L50.7639 68.4873L50.7746 68.49L51.7614 64.6136ZM43.8182 62.5682L44.8157 58.6946L44.8135 58.694L43.8182 62.5682ZM30.1818 55.8523L27.4881 58.8093L27.4987 58.8189L27.5093 58.8285L30.1818 55.8523ZM28.5455 33.0114L25.3115 30.6573L25.3059 30.6651L25.3002 30.6729L28.5455 33.0114ZM37.7159 25.8182L39.3305 29.4778L39.3395 29.4739L39.3484 29.4699L37.7159 25.8182ZM63.8636 25.8182L62.1818 29.4474L62.1951 29.4536L62.2084 29.4596L63.8636 25.8182ZM72.6932 32.9432L69.4185 35.2403L69.4267 35.2518L72.6932 32.9432ZM76 43.375V47.375H80.07L79.9994 43.3056L76 43.375ZM67.8069 42.9499C67.3713 38.8735 65.452 35.4959 62.1049 33.1465L57.5087 39.6944C58.8889 40.6632 59.6515 41.9219 59.8522 43.8001L67.8069 42.9499ZM62.1198 33.157C58.9223 30.8908 54.9964 29.9318 50.6705 29.9318V37.9318C53.8445 37.9318 56.0095 38.6319 57.4939 39.6839L62.1198 33.157ZM50.6705 29.9318C47.6473 29.9318 44.8299 30.386 42.3321 31.4393L45.4406 38.8107C46.7156 38.2731 48.4209 37.9318 50.6705 37.9318V29.9318ZM42.3322 31.4393C39.9201 32.4564 37.8408 33.9397 36.3312 35.9982L42.7824 40.7291C43.2729 40.0603 44.0799 39.3845 45.4406 38.8107L42.3322 31.4393ZM36.3312 35.9982C34.8205 38.0582 34.0562 40.4303 34.0231 42.9821L42.0224 43.086C42.0347 42.1379 42.2931 41.3963 42.7824 40.7291L36.3312 35.9982ZM34.0227 43.0341C34.0227 45.1105 34.5001 47.1242 35.6072 48.9186L42.4155 44.7178C42.2045 44.3758 42.0227 43.8667 42.0227 43.0341H34.0227ZM35.6397 48.9703C36.6567 50.5637 38.0028 51.8704 39.5997 52.9037L43.9457 46.1872C43.2245 45.7205 42.7296 45.209 42.3831 44.666L35.6397 48.9703ZM39.6468 52.9337C41.0756 53.8302 42.6275 54.5671 44.2874 55.1561L46.9626 47.6166C45.8043 47.2056 44.7881 46.7152 43.8987 46.1572L39.6468 52.9337ZM44.2874 55.1561C45.8291 55.7031 47.3868 56.1644 48.9599 56.539L50.8128 48.7565C49.5223 48.4492 48.2391 48.0696 46.9626 47.6166L44.2874 55.1561ZM48.9162 56.5283L55.4617 58.1647L57.402 50.4035L50.8565 48.7672L48.9162 56.5283ZM55.525 58.18C57.9362 58.7412 60.2447 59.4976 62.4543 60.4475L65.6139 53.0979C62.9599 51.9569 60.2002 51.0543 57.3386 50.3882L55.525 58.18ZM62.4666 60.4528C64.5926 61.3583 66.453 62.4827 68.0708 63.815L73.1565 57.6396C70.9106 55.79 68.3846 54.278 65.6015 53.0926L62.4666 60.4528ZM68.0886 63.8295C69.6072 65.0656 70.7965 66.5434 71.6795 68.2919L78.8205 64.6854C77.4308 61.9339 75.5292 59.5708 73.1387 57.625L68.0886 63.8295ZM71.6795 68.2919C72.4826 69.882 72.9545 71.8778 72.9545 74.3977H80.9545C80.9545 70.8722 80.2901 67.5953 78.8205 64.6854L71.6795 68.2919ZM72.9545 74.3977C72.9545 77.7697 72.1054 80.5802 70.4975 82.9746L77.1389 87.4345C79.7128 83.6016 80.9545 79.2076 80.9545 74.3977H72.9545ZM70.5051 82.9633C68.8981 85.3388 66.5104 87.3127 63.1313 88.8081L66.3687 96.1237C70.8987 94.1191 74.5565 91.2521 77.1313 87.4458L70.5051 82.9633ZM63.1412 88.8037C59.8448 90.2518 55.6628 91.0568 50.4659 91.0568V99.0568C56.4509 99.0568 61.7916 98.1345 66.3588 96.1281L63.1412 88.8037ZM50.4659 91.0568C45.437 91.0568 41.271 90.2773 37.8685 88.8468L34.7678 96.2214C39.3654 98.1545 44.6312 99.0568 50.4659 99.0568V91.0568ZM37.8761 88.8499C34.5232 87.4321 32.0356 85.4317 30.2585 82.8828L23.696 87.4581C26.419 91.3638 30.1587 94.2724 34.7603 96.2183L37.8761 88.8499ZM30.2694 82.8984C28.5464 80.4018 27.5182 77.2378 27.3606 73.2183L19.3667 73.5317C19.5727 78.7849 20.9536 83.4845 23.6852 87.4425L30.2694 82.8984ZM23.3636 77.375H35.8068V69.375H23.3636V77.375ZM31.818 73.6732C32.0502 76.7797 33.038 79.6221 34.959 81.9738L41.1546 76.9126C40.4393 76.037 39.9271 74.834 39.7957 73.0768L31.818 73.6732ZM34.959 81.9738C36.7605 84.179 39.0791 85.7781 41.7956 86.8005L44.6134 79.3132C43.1027 78.7446 41.9895 77.9347 41.1546 76.9126L34.959 81.9738ZM41.8088 86.8054C44.4557 87.7909 47.3242 88.25 50.3636 88.25V80.25C48.1304 80.25 46.2261 79.9136 44.6003 79.3082L41.8088 86.8054ZM50.3636 88.25C53.5022 88.25 56.4294 87.7839 59.0624 86.7422L56.1195 79.3032C54.6161 79.898 52.725 80.25 50.3636 80.25V88.25ZM59.0834 86.7338C61.6909 85.6852 63.9359 84.1537 65.6235 82.0442L59.3765 77.0467C58.7004 77.8918 57.6727 78.6785 56.0984 79.3116L59.0834 86.7338ZM65.642 82.0209C67.3971 79.7933 68.2743 77.1785 68.3066 74.3409L60.3071 74.25C60.2939 75.4124 59.9665 76.2976 59.358 77.07L65.642 82.0209ZM68.3065 74.2455C68.2737 71.6232 67.4772 69.1535 65.7005 67.1452L59.7086 72.4458C60.0228 72.801 60.2945 73.3314 60.3071 74.3454L68.3065 74.2455ZM65.7254 67.1736C64.1817 65.395 62.1566 64.0777 59.861 63.1097L56.7526 70.4812C58.2298 71.1041 59.1365 71.7869 59.6837 72.4173L65.7254 67.1736ZM59.9148 63.1329C57.8055 62.2068 55.4073 61.4141 52.7481 60.7372L50.7746 68.49C53.1154 69.0859 55.0809 69.7477 56.6989 70.458L59.9148 63.1329ZM52.7589 60.74L44.8157 58.6946L42.8207 66.4418L50.7639 68.4873L52.7589 60.74ZM44.8135 58.694C39.4936 57.3272 35.5875 55.3303 32.8543 52.8761L27.5093 58.8285C31.458 62.3742 36.6428 64.8546 42.8228 66.4424L44.8135 58.694ZM32.8755 52.8953C30.4893 50.7215 29.2045 47.8352 29.2045 43.8182H21.2045C21.2045 49.8012 23.238 54.9376 27.4881 58.8093L32.8755 52.8953ZM29.2045 43.8182C29.2045 40.4732 30.0939 37.7046 31.7907 35.3498L25.3002 30.6729C22.5425 34.5 21.2045 38.9359 21.2045 43.8182H29.2045ZM31.7794 35.3655C33.5718 32.9032 36.043 30.9282 39.3305 29.4778L36.1013 22.1585C31.6615 24.1173 28.0192 26.9377 25.3115 30.6573L31.7794 35.3655ZM39.3484 29.4699C42.625 28.0051 46.4307 27.2273 50.8409 27.2273V19.2273C45.4784 19.2273 40.5341 20.1767 36.0834 22.1665L39.3484 29.4699ZM50.8409 27.2273C55.3323 27.2273 59.0788 28.0095 62.1818 29.4474L65.5455 22.1889C61.1939 20.1724 56.2587 19.2273 50.8409 19.2273V27.2273ZM62.2084 29.4596C65.3799 30.9012 67.7353 32.8407 69.4186 35.2403L75.9678 30.646C73.3784 26.9547 69.8473 24.1442 65.5189 22.1767L62.2084 29.4596ZM69.4267 35.2518C71.0699 37.5768 71.9454 40.2628 72.0006 43.4444L79.9994 43.3056C79.9182 38.6235 78.5892 34.355 75.9597 30.6345L69.4267 35.2518ZM76 39.375H63.8295V47.375H76V39.375ZM88.2301 94H84.2301V98H88.2301V94ZM88.2301 24.1818V20.1818H84.2301V24.1818H88.2301ZM100.878 24.1818H104.878V20.1818H100.878V24.1818ZM100.878 83.3977H96.8778V87.3977H100.878V83.3977ZM131.628 83.3977H135.628V79.3977H131.628V83.3977ZM131.628 94V98H135.628V94H131.628ZM92.2301 94V24.1818H84.2301V94H92.2301ZM88.2301 28.1818H100.878V20.1818H88.2301V28.1818ZM96.8778 24.1818V83.3977H104.878V24.1818H96.8778ZM100.878 87.3977H131.628V79.3977H100.878V87.3977ZM127.628 83.3977V94H135.628V83.3977H127.628ZM131.628 90H88.2301V98H131.628V90ZM198.045 78.4205L194.504 76.5599L194.502 76.5656L198.045 78.4205ZM186.591 90.6932L184.566 87.2434L184.559 87.2475L186.591 90.6932ZM153.761 90.6932L151.718 94.1317L151.727 94.1374L151.737 94.143L153.761 90.6932ZM142.307 78.3864L138.76 80.2351L138.764 80.2441L138.769 80.2531L142.307 78.3864ZM142.307 39.7955L138.766 37.9349L138.763 37.9406L142.307 39.7955ZM153.761 27.4886L151.737 24.0388L151.73 24.043L153.761 27.4886ZM186.591 27.4886L184.559 30.9343L184.566 30.9384L186.591 27.4886ZM198.045 39.7955L194.498 41.6442L194.503 41.6532L194.508 41.6622L198.045 39.7955ZM187.068 45.6932L183.417 47.3261L183.423 47.3399L183.429 47.3535L187.068 45.6932ZM180.25 37.4091L178.074 40.7653L178.083 40.7713L178.092 40.7772L180.25 37.4091ZM160.136 37.4091L162.294 40.7772L162.303 40.7713L162.313 40.7653L160.136 37.4091ZM153.284 45.6932L149.641 44.0414L149.636 44.0517L153.284 45.6932ZM153.284 72.5227L149.633 74.1557L149.639 74.1694L149.645 74.1831L153.284 72.5227ZM160.136 80.8068L157.96 84.163L157.969 84.169L157.979 84.1749L160.136 80.8068ZM180.25 80.8068L182.408 84.1749L182.417 84.169L182.426 84.163L180.25 80.8068ZM187.068 72.5227L183.425 70.8709L183.421 70.8813L187.068 72.5227ZM198.273 59.0909C198.273 66.1193 196.957 71.8924 194.504 76.5599L201.586 80.281C204.77 74.2212 206.273 67.108 206.273 59.0909H198.273ZM194.502 76.5656C192.027 81.2942 188.714 84.8096 184.566 87.2434L188.615 94.143C194.15 90.895 198.473 86.2285 201.589 80.2754L194.502 76.5656ZM184.559 87.2475C180.413 89.6922 175.661 90.9545 170.193 90.9545V98.9545C176.953 98.9545 183.132 97.376 188.623 94.1388L184.559 87.2475ZM170.193 90.9545C164.726 90.9545 159.959 89.6923 155.786 87.2434L151.737 94.143C157.246 97.3759 163.433 98.9545 170.193 98.9545V90.9545ZM155.805 87.2547C151.669 84.7965 148.347 81.2614 145.845 76.5197L138.769 80.2531C141.903 86.1931 146.217 90.8626 151.718 94.1317L155.805 87.2547ZM145.854 76.5376C143.419 71.8657 142.114 66.099 142.114 59.0909H134.114C134.114 67.0828 135.604 74.1797 138.76 80.2351L145.854 76.5376ZM142.114 59.0909C142.114 52.0572 143.42 46.2942 145.851 41.6504L138.763 37.9406C135.603 43.9785 134.114 51.0792 134.114 59.0909H142.114ZM145.848 41.656C148.35 36.8939 151.669 33.366 155.793 30.9343L151.73 24.043C146.218 27.293 141.9 31.9698 138.766 37.9349L145.848 41.656ZM155.786 30.9384C159.959 28.4896 164.726 27.2273 170.193 27.2273V19.2273C163.433 19.2273 157.246 20.8059 151.737 24.0388L155.786 30.9384ZM170.193 27.2273C175.661 27.2273 180.413 28.4896 184.559 30.9343L188.623 24.043C183.132 20.8059 176.953 19.2273 170.193 19.2273V27.2273ZM184.566 30.9384C188.709 33.3696 192.022 36.8928 194.498 41.6442L201.593 37.9467C198.478 31.9708 194.155 27.2895 188.615 24.0388L184.566 30.9384ZM194.508 41.6622C196.957 46.3033 198.273 52.0618 198.273 59.0909H206.273C206.273 51.0746 204.771 43.9695 201.583 37.9287L194.508 41.6622ZM193.557 59.0909C193.557 53.3998 192.668 48.3306 190.707 44.0328L183.429 47.3535C184.786 50.3285 185.557 54.1911 185.557 59.0909H193.557ZM190.72 44.0602C188.817 39.8062 186.073 36.3891 182.408 34.041L178.092 40.7772C180.245 42.1563 182.046 44.2619 183.417 47.3261L190.72 44.0602ZM182.426 34.0529C178.808 31.7068 174.685 30.5795 170.193 30.5795V38.5795C173.292 38.5795 175.874 39.3387 178.074 40.7653L182.426 34.0529ZM170.193 30.5795C165.701 30.5795 161.578 31.7068 157.96 34.0529L162.313 40.7653C164.513 39.3387 167.094 38.5795 170.193 38.5795V30.5795ZM157.979 34.041C154.319 36.3856 151.566 39.7959 149.641 44.0414L156.927 47.345C158.32 44.2723 160.136 42.1598 162.294 40.7772L157.979 34.041ZM149.636 44.0517C147.705 48.3439 146.83 53.406 146.83 59.0909H154.83C154.83 54.1849 155.591 50.3152 156.932 47.3346L149.636 44.0517ZM146.83 59.0909C146.83 64.7771 147.705 69.8461 149.633 74.1557L156.936 70.8898C155.59 67.8812 154.83 63.9957 154.83 59.0909H146.83ZM149.645 74.1831C151.571 78.4042 154.319 81.8018 157.96 84.163L162.313 77.4506C160.136 76.0391 158.316 73.914 156.923 70.8624L149.645 74.1831ZM157.979 84.1749C161.595 86.4914 165.711 87.6023 170.193 87.6023V79.6023C167.084 79.6023 164.496 78.8495 162.294 77.4387L157.979 84.1749ZM170.193 87.6023C174.675 87.6023 178.792 86.4914 182.408 84.1749L178.092 77.4387C175.89 78.8495 173.302 79.6023 170.193 79.6023V87.6023ZM182.426 84.163C186.073 81.7983 188.813 78.3938 190.716 74.1642L183.421 70.8813C182.051 73.9244 180.245 76.0426 178.074 77.4506L182.426 84.163ZM190.711 74.1745C192.668 69.8594 193.557 64.7833 193.557 59.0909H185.557C185.557 63.9894 184.787 67.8679 183.425 70.8709L190.711 74.1745ZM208.068 34.7841H204.068V38.7841H208.068V34.7841ZM208.068 24.1818V20.1818H204.068V24.1818H208.068ZM263.773 24.1818H267.773V20.1818H263.773V24.1818ZM263.773 34.7841V38.7841H267.773V34.7841H263.773ZM242.193 34.7841V30.7841H238.193V34.7841H242.193ZM242.193 94V98H246.193V94H242.193ZM229.648 94H225.648V98H229.648V94ZM229.648 34.7841H233.648V30.7841H229.648V34.7841ZM212.068 34.7841V24.1818H204.068V34.7841H212.068ZM208.068 28.1818H263.773V20.1818H208.068V28.1818ZM259.773 24.1818V34.7841H267.773V24.1818H259.773ZM263.773 30.7841H242.193V38.7841H263.773V30.7841ZM238.193 34.7841V94H246.193V34.7841H238.193ZM242.193 90H229.648V98H242.193V90ZM233.648 94V34.7841H225.648V94H233.648ZM229.648 30.7841H208.068V38.7841H229.648V30.7841Z" fill="white" mask="url(#path-2-outside-1_499_376)"/>
<defs>
<filter id="filter0_f_499_376" x="0.379687" y="0.461719" width="286.92" height="116.905" filterUnits="userSpaceOnUse" color-interpolation-filters="sRGB">
<feFlood flood-opacity="0" result="BackgroundImageFix"/>
<feBlend mode="normal" in="SourceGraphic" in2="BackgroundImageFix" result="shape"/>
<feGaussianBlur stdDeviation="7.15" result="effect1_foregroundBlur_499_376"/>
</filter>
</defs>
</svg>
