<svg width="63" height="67" viewBox="0 0 63 67" fill="none" xmlns="http://www.w3.org/2000/svg">
<g filter="url(#filter0_f_522_5337)">
<path d="M33.652 7.50366C34.7074 8.36013 36.4987 11.1561 35.2204 15.4882M34.0666 19.3984C39.4373 17.8219 51.0427 18.3902 54.4991 33.2762C51.4069 33.7808 44.0093 33.5817 39.1563 28.749C38.2406 30.0052 34.7274 32.6753 29.9831 33.2376C27.4185 30.8457 25.0315 27.8522 24.716 24.4881C22.2666 25.4003 15.8291 25.7898 9.67407 20.0497C13.7198 15.5747 24.2623 9.17946 34.0666 19.3984Z" stroke="#00FF0A" stroke-width="3" stroke-linecap="round"/>
</g>
<g filter="url(#filter1_f_522_5337)">
<path d="M10.8744 25.9615C7.8234 33.3461 7.62923 52.4747 22.8294 58.595C37.2349 61.8645 48.7672 47.6076 50.8858 37.7677M17.2953 30.7994C17.1588 31.6313 16.9708 33.4508 17.3101 34.0741M13.271 37.7878L13.7642 40.5496M21.5515 41.8663C21.374 42.468 21.1037 43.8272 21.443 44.4505M32.6826 45.1507C32.4754 45.8527 31.9231 47.2813 31.3707 47.3799M24.8362 50.6843L24.126 53.091M28.2981 38.9515L27.7655 40.7566M17.4927 47.8634L18.7651 50.201M42.1761 38.4681C41.8391 39.2407 41.0271 40.8107 40.4747 40.9093M41.8507 46.2208L40.2381 48.3612M32.8355 52.3906L30.4979 53.663" stroke="#FF1212" stroke-width="3" stroke-linecap="round"/>
</g>
<path d="M33.652 7.50366C34.7074 8.36013 36.4987 11.1561 35.2204 15.4882M34.0666 19.3984C39.4373 17.8219 51.0427 18.3902 54.4991 33.2762C51.4069 33.7808 44.0093 33.5817 39.1563 28.749C38.2406 30.0052 34.7274 32.6753 29.9831 33.2376C27.4185 30.8457 25.0315 27.8522 24.716 24.4881C22.2666 25.4003 15.8291 25.7898 9.67407 20.0497C13.7198 15.5747 24.2623 9.17946 34.0666 19.3984Z" stroke="white" stroke-linecap="round"/>
<path d="M10.8744 25.9615C7.8234 33.3461 7.62923 52.4747 22.8294 58.595C37.2349 61.8645 48.7672 47.6076 50.8858 37.7677M17.2953 30.7994C17.1588 31.6313 16.9708 33.4508 17.3101 34.0741M13.271 37.7878L13.7642 40.5496M21.5515 41.8663C21.374 42.468 21.1037 43.8272 21.443 44.4505M32.6826 45.1507C32.4754 45.8527 31.9231 47.2813 31.3707 47.3799M24.8362 50.6843L24.126 53.091M28.2981 38.9515L27.7655 40.7566M17.4927 47.8634L18.7651 50.201M42.1761 38.4681C41.8391 39.2407 41.0271 40.8107 40.4747 40.9093M41.8507 46.2208L40.2381 48.3612M32.8355 52.3906L30.4979 53.663" stroke="white" stroke-linecap="round"/>
<defs>
<filter id="filter0_f_522_5337" x="1.57129" y="0.00390625" width="60.752" height="40.9609" filterUnits="userSpaceOnUse" color-interpolation-filters="sRGB">
<feFlood flood-opacity="0" result="BackgroundImageFix"/>
<feBlend mode="normal" in="SourceGraphic" in2="BackgroundImageFix" result="shape"/>
<feGaussianBlur stdDeviation="3" result="effect1_foregroundBlur_522_5337"/>
</filter>
<filter id="filter1_f_522_5337" x="1.7334" y="18.4609" width="56.6523" height="48.1113" filterUnits="userSpaceOnUse" color-interpolation-filters="sRGB">
<feFlood flood-opacity="0" result="BackgroundImageFix"/>
<feBlend mode="normal" in="SourceGraphic" in2="BackgroundImageFix" result="shape"/>
<feGaussianBlur stdDeviation="3" result="effect1_foregroundBlur_522_5337"/>
</filter>
</defs>
</svg>
