<svg width="374" height="70" viewBox="0 0 374 70" fill="none" xmlns="http://www.w3.org/2000/svg">
<g filter="url(#filter0_f_499_379)">
<mask id="path-1-outside-1_499_379" maskUnits="userSpaceOnUse" x="12" y="12" width="351" height="46" fill="black">
<rect fill="white" x="12" y="12" width="351" height="46"/>
<path d="M17 22.7784V17.4773H44.8523V22.7784H34.0625V52.3864H27.7898V22.7784H17ZM79.8679 34.9318C79.8679 38.6932 79.1634 41.9148 77.7543 44.5966C76.3565 47.267 74.4474 49.3125 72.027 50.733C69.6179 52.1534 66.8849 52.8636 63.8281 52.8636C60.7713 52.8636 58.0327 52.1534 55.6122 50.733C53.2031 49.3011 51.294 47.25 49.8849 44.5795C48.4872 41.8977 47.7884 38.6818 47.7884 34.9318C47.7884 31.1705 48.4872 27.9545 49.8849 25.2841C51.294 22.6023 53.2031 20.5511 55.6122 19.1307C58.0327 17.7102 60.7713 17 63.8281 17C66.8849 17 69.6179 17.7102 72.027 19.1307C74.4474 20.5511 76.3565 22.6023 77.7543 25.2841C79.1634 27.9545 79.8679 31.1705 79.8679 34.9318ZM73.5099 34.9318C73.5099 32.2841 73.0952 30.0511 72.2656 28.233C71.4474 26.4034 70.3111 25.0227 68.8565 24.0909C67.402 23.1477 65.7259 22.6761 63.8281 22.6761C61.9304 22.6761 60.2543 23.1477 58.7997 24.0909C57.3452 25.0227 56.2031 26.4034 55.3736 28.233C54.5554 30.0511 54.1463 32.2841 54.1463 34.9318C54.1463 37.5795 54.5554 39.8182 55.3736 41.6477C56.2031 43.4659 57.3452 44.8466 58.7997 45.7898C60.2543 46.7216 61.9304 47.1875 63.8281 47.1875C65.7259 47.1875 67.402 46.7216 68.8565 45.7898C70.3111 44.8466 71.4474 43.4659 72.2656 41.6477C73.0952 39.8182 73.5099 37.5795 73.5099 34.9318ZM107.852 17.4773H114.176V40.2841C114.176 42.7841 113.585 44.983 112.403 46.8807C111.233 48.7784 109.585 50.2614 107.46 51.3295C105.335 52.3864 102.852 52.9148 100.011 52.9148C97.1591 52.9148 94.6705 52.3864 92.5455 51.3295C90.4205 50.2614 88.7727 48.7784 87.6023 46.8807C86.4318 44.983 85.8466 42.7841 85.8466 40.2841V17.4773H92.1705V39.7557C92.1705 41.2102 92.4886 42.5057 93.125 43.642C93.7727 44.7784 94.6818 45.6705 95.8523 46.3182C97.0227 46.9545 98.4091 47.2727 100.011 47.2727C101.614 47.2727 103 46.9545 104.17 46.3182C105.352 45.6705 106.261 44.7784 106.898 43.642C107.534 42.5057 107.852 41.2102 107.852 39.7557V17.4773ZM121.05 52.3864V17.4773H134.141C136.822 17.4773 139.072 17.9432 140.891 18.875C142.72 19.8068 144.101 21.1136 145.033 22.7955C145.976 24.4659 146.447 26.4148 146.447 28.642C146.447 30.8807 145.97 32.8239 145.016 34.4716C144.072 36.108 142.68 37.375 140.839 38.2727C138.999 39.1591 136.737 39.6023 134.055 39.6023H124.732V34.3523H133.203C134.771 34.3523 136.055 34.1364 137.055 33.7045C138.055 33.2614 138.794 32.6193 139.271 31.7784C139.76 30.9261 140.004 29.8807 140.004 28.642C140.004 27.4034 139.76 26.3466 139.271 25.4716C138.783 24.5852 138.038 23.9148 137.038 23.4602C136.038 22.9943 134.749 22.7614 133.169 22.7614H127.374V52.3864H121.05ZM139.084 36.5682L147.726 52.3864H140.669L132.18 36.5682H139.084ZM180.956 17.4773V52.3864H175.331L158.882 28.608H158.592V52.3864H152.268V17.4773H157.928L174.359 41.2727H174.666V17.4773H180.956ZM192.33 52.3864H185.58L197.869 17.4773H205.676L217.983 52.3864H211.233L201.909 24.6364H201.636L192.33 52.3864ZM192.551 38.6989H210.96V43.7784H192.551V38.6989ZM222.581 17.4773H230.32L240.683 42.7727H241.092L251.456 17.4773H259.195V52.3864H253.126V28.4034H252.803L243.155 52.2841H238.621L228.973 28.3523H228.649V52.3864H222.581V17.4773ZM266.081 52.3864V17.4773H288.786V22.7784H272.405V32.2557H287.609V37.5568H272.405V47.0852H288.922V52.3864H266.081ZM323.925 17.4773V52.3864H318.3L301.851 28.608H301.561V52.3864H295.237V17.4773H300.896L317.328 41.2727H317.635V17.4773H323.925ZM329.281 22.7784V17.4773H357.134V22.7784H346.344V52.3864H340.071V22.7784H329.281Z"/>
</mask>
<path d="M17 22.7784V17.4773H44.8523V22.7784H34.0625V52.3864H27.7898V22.7784H17ZM79.8679 34.9318C79.8679 38.6932 79.1634 41.9148 77.7543 44.5966C76.3565 47.267 74.4474 49.3125 72.027 50.733C69.6179 52.1534 66.8849 52.8636 63.8281 52.8636C60.7713 52.8636 58.0327 52.1534 55.6122 50.733C53.2031 49.3011 51.294 47.25 49.8849 44.5795C48.4872 41.8977 47.7884 38.6818 47.7884 34.9318C47.7884 31.1705 48.4872 27.9545 49.8849 25.2841C51.294 22.6023 53.2031 20.5511 55.6122 19.1307C58.0327 17.7102 60.7713 17 63.8281 17C66.8849 17 69.6179 17.7102 72.027 19.1307C74.4474 20.5511 76.3565 22.6023 77.7543 25.2841C79.1634 27.9545 79.8679 31.1705 79.8679 34.9318ZM73.5099 34.9318C73.5099 32.2841 73.0952 30.0511 72.2656 28.233C71.4474 26.4034 70.3111 25.0227 68.8565 24.0909C67.402 23.1477 65.7259 22.6761 63.8281 22.6761C61.9304 22.6761 60.2543 23.1477 58.7997 24.0909C57.3452 25.0227 56.2031 26.4034 55.3736 28.233C54.5554 30.0511 54.1463 32.2841 54.1463 34.9318C54.1463 37.5795 54.5554 39.8182 55.3736 41.6477C56.2031 43.4659 57.3452 44.8466 58.7997 45.7898C60.2543 46.7216 61.9304 47.1875 63.8281 47.1875C65.7259 47.1875 67.402 46.7216 68.8565 45.7898C70.3111 44.8466 71.4474 43.4659 72.2656 41.6477C73.0952 39.8182 73.5099 37.5795 73.5099 34.9318ZM107.852 17.4773H114.176V40.2841C114.176 42.7841 113.585 44.983 112.403 46.8807C111.233 48.7784 109.585 50.2614 107.46 51.3295C105.335 52.3864 102.852 52.9148 100.011 52.9148C97.1591 52.9148 94.6705 52.3864 92.5455 51.3295C90.4205 50.2614 88.7727 48.7784 87.6023 46.8807C86.4318 44.983 85.8466 42.7841 85.8466 40.2841V17.4773H92.1705V39.7557C92.1705 41.2102 92.4886 42.5057 93.125 43.642C93.7727 44.7784 94.6818 45.6705 95.8523 46.3182C97.0227 46.9545 98.4091 47.2727 100.011 47.2727C101.614 47.2727 103 46.9545 104.17 46.3182C105.352 45.6705 106.261 44.7784 106.898 43.642C107.534 42.5057 107.852 41.2102 107.852 39.7557V17.4773ZM121.05 52.3864V17.4773H134.141C136.822 17.4773 139.072 17.9432 140.891 18.875C142.72 19.8068 144.101 21.1136 145.033 22.7955C145.976 24.4659 146.447 26.4148 146.447 28.642C146.447 30.8807 145.97 32.8239 145.016 34.4716C144.072 36.108 142.68 37.375 140.839 38.2727C138.999 39.1591 136.737 39.6023 134.055 39.6023H124.732V34.3523H133.203C134.771 34.3523 136.055 34.1364 137.055 33.7045C138.055 33.2614 138.794 32.6193 139.271 31.7784C139.76 30.9261 140.004 29.8807 140.004 28.642C140.004 27.4034 139.76 26.3466 139.271 25.4716C138.783 24.5852 138.038 23.9148 137.038 23.4602C136.038 22.9943 134.749 22.7614 133.169 22.7614H127.374V52.3864H121.05ZM139.084 36.5682L147.726 52.3864H140.669L132.18 36.5682H139.084ZM180.956 17.4773V52.3864H175.331L158.882 28.608H158.592V52.3864H152.268V17.4773H157.928L174.359 41.2727H174.666V17.4773H180.956ZM192.33 52.3864H185.58L197.869 17.4773H205.676L217.983 52.3864H211.233L201.909 24.6364H201.636L192.33 52.3864ZM192.551 38.6989H210.96V43.7784H192.551V38.6989ZM222.581 17.4773H230.32L240.683 42.7727H241.092L251.456 17.4773H259.195V52.3864H253.126V28.4034H252.803L243.155 52.2841H238.621L228.973 28.3523H228.649V52.3864H222.581V17.4773ZM266.081 52.3864V17.4773H288.786V22.7784H272.405V32.2557H287.609V37.5568H272.405V47.0852H288.922V52.3864H266.081ZM323.925 17.4773V52.3864H318.3L301.851 28.608H301.561V52.3864H295.237V17.4773H300.896L317.328 41.2727H317.635V17.4773H323.925ZM329.281 22.7784V17.4773H357.134V22.7784H346.344V52.3864H340.071V22.7784H329.281Z" stroke="#FF00B8" stroke-width="10" mask="url(#path-1-outside-1_499_379)"/>
</g>
<mask id="path-2-outside-2_499_379" maskUnits="userSpaceOnUse" x="15" y="14" width="346" height="41" fill="black">
<rect fill="white" x="15" y="14" width="346" height="41"/>
<path d="M17.9091 22.392V17.0909H45.7614V22.392H34.9716V52H28.6989V22.392H17.9091ZM80.777 34.5455C80.777 38.3068 80.0724 41.5284 78.6634 44.2102C77.2656 46.8807 75.3565 48.9261 72.9361 50.3466C70.527 51.767 67.794 52.4773 64.7372 52.4773C61.6804 52.4773 58.9418 51.767 56.5213 50.3466C54.1122 48.9148 52.2031 46.8636 50.794 44.1932C49.3963 41.5114 48.6974 38.2955 48.6974 34.5455C48.6974 30.7841 49.3963 27.5682 50.794 24.8977C52.2031 22.2159 54.1122 20.1648 56.5213 18.7443C58.9418 17.3239 61.6804 16.6136 64.7372 16.6136C67.794 16.6136 70.527 17.3239 72.9361 18.7443C75.3565 20.1648 77.2656 22.2159 78.6634 24.8977C80.0724 27.5682 80.777 30.7841 80.777 34.5455ZM74.419 34.5455C74.419 31.8977 74.0043 29.6648 73.1747 27.8466C72.3565 26.017 71.2202 24.6364 69.7656 23.7045C68.3111 22.7614 66.6349 22.2898 64.7372 22.2898C62.8395 22.2898 61.1634 22.7614 59.7088 23.7045C58.2543 24.6364 57.1122 26.017 56.2827 27.8466C55.4645 29.6648 55.0554 31.8977 55.0554 34.5455C55.0554 37.1932 55.4645 39.4318 56.2827 41.2614C57.1122 43.0795 58.2543 44.4602 59.7088 45.4034C61.1634 46.3352 62.8395 46.8011 64.7372 46.8011C66.6349 46.8011 68.3111 46.3352 69.7656 45.4034C71.2202 44.4602 72.3565 43.0795 73.1747 41.2614C74.0043 39.4318 74.419 37.1932 74.419 34.5455ZM108.761 17.0909H115.085V39.8977C115.085 42.3977 114.494 44.5966 113.312 46.4943C112.142 48.392 110.494 49.875 108.369 50.9432C106.244 52 103.761 52.5284 100.92 52.5284C98.0682 52.5284 95.5795 52 93.4545 50.9432C91.3295 49.875 89.6818 48.392 88.5114 46.4943C87.3409 44.5966 86.7557 42.3977 86.7557 39.8977V17.0909H93.0795V39.3693C93.0795 40.8239 93.3977 42.1193 94.0341 43.2557C94.6818 44.392 95.5909 45.2841 96.7614 45.9318C97.9318 46.5682 99.3182 46.8864 100.92 46.8864C102.523 46.8864 103.909 46.5682 105.08 45.9318C106.261 45.2841 107.17 44.392 107.807 43.2557C108.443 42.1193 108.761 40.8239 108.761 39.3693V17.0909ZM121.959 52V17.0909H135.05C137.732 17.0909 139.982 17.5568 141.8 18.4886C143.629 19.4205 145.01 20.7273 145.942 22.4091C146.885 24.0795 147.357 26.0284 147.357 28.2557C147.357 30.4943 146.879 32.4375 145.925 34.0852C144.982 35.7216 143.589 36.9886 141.749 37.8864C139.908 38.7727 137.646 39.2159 134.964 39.2159H125.641V33.9659H134.112C135.68 33.9659 136.964 33.75 137.964 33.3182C138.964 32.875 139.703 32.233 140.18 31.392C140.669 30.5398 140.913 29.4943 140.913 28.2557C140.913 27.017 140.669 25.9602 140.18 25.0852C139.692 24.1989 138.947 23.5284 137.947 23.0739C136.947 22.608 135.658 22.375 134.078 22.375H128.283V52H121.959ZM139.993 36.1818L148.635 52H141.578L133.089 36.1818H139.993ZM181.865 17.0909V52H176.24L159.791 28.2216H159.501V52H153.178V17.0909H158.837L175.268 40.8864H175.575V17.0909H181.865ZM193.239 52H186.489L198.778 17.0909H206.585L218.892 52H212.142L202.818 24.25H202.545L193.239 52ZM193.46 38.3125H211.869V43.392H193.46V38.3125ZM223.49 17.0909H231.229L241.592 42.3864H242.001L252.365 17.0909H260.104V52H254.036V28.017H253.712L244.064 51.8977H239.53L229.882 27.9659H229.558V52H223.49V17.0909ZM266.99 52V17.0909H289.695V22.392H273.314V31.8693H288.518V37.1705H273.314V46.6989H289.831V52H266.99ZM324.834 17.0909V52H319.209L302.76 28.2216H302.47V52H296.146V17.0909H301.805L318.237 40.8864H318.544V17.0909H324.834ZM330.19 22.392V17.0909H358.043V22.392H347.253V52H340.98V22.392H330.19Z"/>
</mask>
<path d="M17.9091 22.392H15.9091V24.392H17.9091V22.392ZM17.9091 17.0909V15.0909H15.9091V17.0909H17.9091ZM45.7614 17.0909H47.7614V15.0909H45.7614V17.0909ZM45.7614 22.392V24.392H47.7614V22.392H45.7614ZM34.9716 22.392V20.392H32.9716V22.392H34.9716ZM34.9716 52V54H36.9716V52H34.9716ZM28.6989 52H26.6989V54H28.6989V52ZM28.6989 22.392H30.6989V20.392H28.6989V22.392ZM19.9091 22.392V17.0909H15.9091V22.392H19.9091ZM17.9091 19.0909H45.7614V15.0909H17.9091V19.0909ZM43.7614 17.0909V22.392H47.7614V17.0909H43.7614ZM45.7614 20.392H34.9716V24.392H45.7614V20.392ZM32.9716 22.392V52H36.9716V22.392H32.9716ZM34.9716 50H28.6989V54H34.9716V50ZM30.6989 52V22.392H26.6989V52H30.6989ZM28.6989 20.392H17.9091V24.392H28.6989V20.392ZM78.6634 44.2102L76.8929 43.28L76.8914 43.2828L78.6634 44.2102ZM72.9361 50.3466L71.9238 48.6217L71.9203 48.6238L72.9361 50.3466ZM56.5213 50.3466L55.4995 52.0659L55.509 52.0715L56.5213 50.3466ZM50.794 44.1932L49.0204 45.1176L49.0252 45.1265L50.794 44.1932ZM50.794 24.8977L49.0235 23.9675L49.0221 23.9703L50.794 24.8977ZM56.5213 18.7443L55.509 17.0194L55.5055 17.0215L56.5213 18.7443ZM72.9361 18.7443L71.9203 20.4671L71.9238 20.4692L72.9361 18.7443ZM78.6634 24.8977L76.8898 25.8221L76.8945 25.8311L78.6634 24.8977ZM73.1747 27.8466L71.349 28.6631L71.352 28.6699L71.3552 28.6768L73.1747 27.8466ZM69.7656 23.7045L68.6775 25.3827L68.6868 25.3886L69.7656 23.7045ZM59.7088 23.7045L60.7877 25.3886L60.7969 25.3826L59.7088 23.7045ZM56.2827 27.8466L54.4612 27.0207L54.4588 27.0259L56.2827 27.8466ZM56.2827 41.2614L54.4569 42.0778L54.46 42.0847L54.4631 42.0915L56.2827 41.2614ZM59.7088 45.4034L58.6207 47.0815L58.63 47.0875L59.7088 45.4034ZM69.7656 45.4034L70.8445 47.0875L70.8538 47.0815L69.7656 45.4034ZM73.1747 41.2614L71.3532 40.4355L71.3509 40.4406L73.1747 41.2614ZM78.777 34.5455C78.777 38.0597 78.1191 40.9462 76.8929 43.28L80.4338 45.1405C82.0258 42.1106 82.777 38.554 82.777 34.5455H78.777ZM76.8914 43.2828C75.6539 45.6471 73.9974 47.4048 71.9238 48.6217L73.9483 52.0715C76.7157 50.4475 78.8774 48.1143 80.4353 45.1377L76.8914 43.2828ZM71.9203 48.6238C69.8472 49.8461 67.471 50.4773 64.7372 50.4773V54.4773C68.1171 54.4773 71.2068 53.688 73.9519 52.0694L71.9203 48.6238ZM64.7372 50.4773C62.0035 50.4773 59.62 49.8461 57.5336 48.6217L55.509 52.0715C58.2635 53.688 61.3573 54.4773 64.7372 54.4773V50.4773ZM57.5431 48.6273C55.4752 47.3983 53.8139 45.6307 52.5629 43.2598L49.0252 45.1265C50.5923 48.0966 52.7492 50.4313 55.4995 52.0659L57.5431 48.6273ZM52.5676 43.2688C51.3501 40.9329 50.6974 38.0495 50.6974 34.5455H46.6974C46.6974 38.5414 47.4425 42.0899 49.0205 45.1175L52.5676 43.2688ZM50.6974 34.5455C50.6974 31.0286 51.3507 28.1471 52.566 25.8252L49.0221 23.9703C47.4419 26.9892 46.6974 30.5396 46.6974 34.5455H50.6974ZM52.5645 25.828C53.8156 23.4469 55.475 21.683 57.5371 20.4671L55.5055 17.0215C52.7495 18.6465 50.5907 20.9849 49.0235 23.9675L52.5645 25.828ZM57.5336 20.4692C59.62 19.2448 62.0035 18.6136 64.7372 18.6136V14.6136C61.3573 14.6136 58.2635 15.4029 55.509 17.0194L57.5336 20.4692ZM64.7372 18.6136C67.471 18.6136 69.8472 19.2448 71.9203 20.4671L73.9519 17.0215C71.2068 15.4029 68.1171 14.6136 64.7372 14.6136V18.6136ZM71.9238 20.4692C73.9952 21.6848 75.6516 23.4464 76.8898 25.8221L80.4369 23.9734C78.8796 20.9854 76.7179 18.6447 73.9483 17.0194L71.9238 20.4692ZM76.8945 25.8311C78.119 28.1516 78.777 31.0309 78.777 34.5455H82.777C82.777 30.5373 82.0259 26.9847 80.4322 23.9644L76.8945 25.8311ZM76.419 34.5455C76.419 31.6999 75.9747 29.1653 74.9943 27.0164L71.3552 28.6768C72.0338 30.1642 72.419 32.0956 72.419 34.5455H76.419ZM75.0005 27.0301C74.0493 24.9031 72.6772 23.1946 70.8445 22.0205L68.6868 25.3886C69.7632 26.0782 70.6638 27.131 71.349 28.6631L75.0005 27.0301ZM70.8538 22.0265C69.0447 20.8534 66.9831 20.2898 64.7372 20.2898V24.2898C66.2868 24.2898 67.5775 24.6693 68.6775 25.3826L70.8538 22.0265ZM64.7372 20.2898C62.4913 20.2898 60.4297 20.8534 58.6207 22.0265L60.7969 25.3826C61.897 24.6693 63.1876 24.2898 64.7372 24.2898V20.2898ZM58.63 22.0205C56.8 23.1928 55.4237 24.8979 54.4612 27.0207L58.1042 28.6725C58.8008 27.1362 59.7085 26.0799 60.7877 25.3886L58.63 22.0205ZM54.4588 27.0259C53.4931 29.172 53.0554 31.703 53.0554 34.5455H57.0554C57.0554 32.0924 57.4359 30.1576 58.1065 28.6673L54.4588 27.0259ZM53.0554 34.5455C53.0554 37.3885 53.4933 39.923 54.4569 42.0778L58.1084 40.4449C57.4357 38.9406 57.0554 36.9978 57.0554 34.5455H53.0554ZM54.4631 42.0915C55.426 44.2021 56.8 45.9009 58.6207 47.0815L60.7969 43.7253C59.7085 43.0195 58.7984 41.957 58.1022 40.4312L54.4631 42.0915ZM58.63 47.0875C60.4379 48.2457 62.4962 48.8011 64.7372 48.8011V44.8011C63.1828 44.8011 61.8888 44.4247 60.7877 43.7193L58.63 47.0875ZM64.7372 48.8011C66.9782 48.8011 69.0365 48.2457 70.8445 47.0875L68.6868 43.7193C67.5857 44.4247 66.2916 44.8011 64.7372 44.8011V48.8011ZM70.8538 47.0815C72.6771 45.8992 74.0469 44.1969 74.9986 42.0821L71.3509 40.4406C70.6662 41.9622 69.7632 43.0213 68.6775 43.7253L70.8538 47.0815ZM74.9962 42.0873C75.9745 39.9297 76.419 37.3916 76.419 34.5455H72.419C72.419 36.9947 72.034 38.934 71.3532 40.4355L74.9962 42.0873ZM108.761 17.0909V15.0909H106.761V17.0909H108.761ZM115.085 17.0909H117.085V15.0909H115.085V17.0909ZM113.312 46.4943L111.615 45.4371L111.61 45.4444L113.312 46.4943ZM108.369 50.9432L109.26 52.734L109.268 52.7301L108.369 50.9432ZM93.4545 50.9432L92.5563 52.7301L92.5639 52.7339L93.4545 50.9432ZM88.5114 46.4943L90.2136 45.4444L88.5114 46.4943ZM86.7557 17.0909V15.0909H84.7557V17.0909H86.7557ZM93.0795 17.0909H95.0795V15.0909H93.0795V17.0909ZM94.0341 43.2557L92.2891 44.2329L92.2928 44.2395L92.2965 44.2461L94.0341 43.2557ZM96.7614 45.9318L95.793 47.6817L95.7995 47.6853L95.8061 47.6889L96.7614 45.9318ZM105.08 45.9318L106.035 47.6889L106.041 47.6857L105.08 45.9318ZM107.807 43.2557L109.552 44.2329L107.807 43.2557ZM108.761 19.0909H115.085V15.0909H108.761V19.0909ZM113.085 17.0909V39.8977H117.085V17.0909H113.085ZM113.085 39.8977C113.085 42.0695 112.576 43.8931 111.615 45.4371L115.01 47.5516C116.412 45.3001 117.085 42.726 117.085 39.8977H113.085ZM111.61 45.4444C110.647 47.0055 109.288 48.2429 107.471 49.1562L109.268 52.7301C111.701 51.5071 113.637 49.7786 115.015 47.5442L111.61 45.4444ZM107.479 49.1524C105.68 50.0471 103.513 50.5284 100.92 50.5284V54.5284C104.01 54.5284 106.809 53.9529 109.26 52.7339L107.479 49.1524ZM100.92 50.5284C98.3155 50.5284 96.143 50.0466 94.3451 49.1524L92.5639 52.7339C95.0161 53.9534 97.8208 54.5284 100.92 54.5284V50.5284ZM94.3528 49.1562C92.5359 48.2429 91.1764 47.0055 90.2136 45.4444L86.8091 47.5442C88.1872 49.7786 90.1232 51.5071 92.5563 52.7301L94.3528 49.1562ZM90.2136 45.4444C89.2607 43.8994 88.7557 42.0731 88.7557 39.8977H84.7557C84.7557 42.7223 85.4211 45.2937 86.8091 47.5442L90.2136 45.4444ZM88.7557 39.8977V17.0909H84.7557V39.8977H88.7557ZM86.7557 19.0909H93.0795V15.0909H86.7557V19.0909ZM91.0795 17.0909V39.3693H95.0795V17.0909H91.0795ZM91.0795 39.3693C91.0795 41.1253 91.4667 42.7643 92.2891 44.2329L95.7791 42.2785C95.3288 41.4743 95.0795 40.5224 95.0795 39.3693H91.0795ZM92.2965 44.2461C93.1304 45.709 94.309 46.8605 95.793 47.6817L97.7298 44.1819C96.8729 43.7077 96.2333 43.0751 95.7716 42.2653L92.2965 44.2461ZM95.8061 47.6889C97.3236 48.514 99.0518 48.8864 100.92 48.8864V44.8864C99.5846 44.8864 98.54 44.6224 97.7167 44.1747L95.8061 47.6889ZM100.92 48.8864C102.789 48.8864 104.517 48.514 106.035 47.6889L104.124 44.1747C103.301 44.6224 102.256 44.8864 100.92 44.8864V48.8864ZM106.041 47.6857C107.539 46.8643 108.726 45.7083 109.552 44.2329L106.062 42.2785C105.615 43.0758 104.983 43.7039 104.118 44.178L106.041 47.6857ZM109.552 44.2329C110.374 42.7643 110.761 41.1253 110.761 39.3693H106.761C106.761 40.5224 106.512 41.4743 106.062 42.2785L109.552 44.2329ZM110.761 39.3693V17.0909H106.761V39.3693H110.761ZM121.959 52H119.959V54H121.959V52ZM121.959 17.0909V15.0909H119.959V17.0909H121.959ZM141.8 18.4886L140.888 20.2685L140.892 20.2708L141.8 18.4886ZM145.942 22.4091L144.192 23.3784L144.196 23.3854L144.2 23.3924L145.942 22.4091ZM145.925 34.0852L144.194 33.0827L144.192 33.0865L145.925 34.0852ZM141.749 37.8864L142.616 39.6884L142.625 39.684L141.749 37.8864ZM125.641 39.2159H123.641V41.2159H125.641V39.2159ZM125.641 33.9659V31.9659H123.641V33.9659H125.641ZM137.964 33.3182L138.757 35.1543L138.766 35.1505L138.775 35.1467L137.964 33.3182ZM140.18 31.392L138.445 30.3973L138.441 30.4048L140.18 31.392ZM140.18 25.0852L138.429 26.0508L138.434 26.0604L140.18 25.0852ZM137.947 23.0739L137.103 24.8868L137.111 24.8907L137.12 24.8946L137.947 23.0739ZM128.283 22.375V20.375H126.283V22.375H128.283ZM128.283 52V54H130.283V52H128.283ZM139.993 36.1818L141.748 35.2229L141.179 34.1818H139.993V36.1818ZM148.635 52V54H152.007L150.39 51.0411L148.635 52ZM141.578 52L139.816 52.9457L140.382 54H141.578V52ZM133.089 36.1818V34.1818H129.746L131.327 37.1275L133.089 36.1818ZM123.959 52V17.0909H119.959V52H123.959ZM121.959 19.0909H135.05V15.0909H121.959V19.0909ZM135.05 19.0909C137.51 19.0909 139.426 19.5194 140.888 20.2685L142.712 16.7088C140.537 15.5942 137.953 15.0909 135.05 15.0909V19.0909ZM140.892 20.2708C142.392 21.0345 143.467 22.0695 144.192 23.3784L147.691 21.4398C146.553 19.3851 144.867 17.8064 142.707 16.7065L140.892 20.2708ZM144.2 23.3924C144.948 24.7176 145.357 26.317 145.357 28.2557H149.357C149.357 25.7398 148.821 23.4415 147.683 21.4258L144.2 23.3924ZM145.357 28.2557C145.357 30.2045 144.943 31.7893 144.194 33.0827L147.655 35.0878C148.815 33.0857 149.357 30.7841 149.357 28.2557H145.357ZM144.192 33.0865C143.465 34.3477 142.386 35.3505 140.872 36.0887L142.625 39.684C144.793 38.6268 146.498 37.0954 147.657 35.084L144.192 33.0865ZM140.881 36.0844C139.382 36.8063 137.436 37.2159 134.964 37.2159V41.2159C137.857 41.2159 140.434 40.7392 142.616 39.6884L140.881 36.0844ZM134.964 37.2159H125.641V41.2159H134.964V37.2159ZM127.641 39.2159V33.9659H123.641V39.2159H127.641ZM125.641 35.9659H134.112V31.9659H125.641V35.9659ZM134.112 35.9659C135.843 35.9659 137.422 35.7308 138.757 35.1543L137.172 31.4821C136.507 31.7692 135.518 31.9659 134.112 31.9659V35.9659ZM138.775 35.1467C140.113 34.5537 141.204 33.641 141.92 32.3793L138.441 30.4048C138.203 30.8249 137.816 31.1963 137.154 31.4897L138.775 35.1467ZM141.915 32.3868C142.617 31.1625 142.913 29.7537 142.913 28.2557H138.913C138.913 29.2349 138.721 29.9171 138.445 30.3973L141.915 32.3868ZM142.913 28.2557C142.913 26.7553 142.617 25.3457 141.927 24.1101L138.434 26.0604C138.721 26.5747 138.913 27.2788 138.913 28.2557H142.913ZM141.932 24.1197C141.217 22.8235 140.132 21.8698 138.775 21.2531L137.12 24.8946C137.763 25.1871 138.166 25.5742 138.429 26.0508L141.932 24.1197ZM138.792 21.261C137.439 20.6305 135.833 20.375 134.078 20.375V24.375C135.483 24.375 136.456 24.5854 137.103 24.8868L138.792 21.261ZM134.078 20.375H128.283V24.375H134.078V20.375ZM126.283 22.375V52H130.283V22.375H126.283ZM128.283 50H121.959V54H128.283V50ZM138.238 37.1407L146.88 52.9589L150.39 51.0411L141.748 35.2229L138.238 37.1407ZM148.635 50H141.578V54H148.635V50ZM143.34 51.0543L134.852 35.2361L131.327 37.1275L139.816 52.9457L143.34 51.0543ZM133.089 38.1818H139.993V34.1818H133.089V38.1818ZM181.865 17.0909H183.865V15.0909H181.865V17.0909ZM181.865 52V54H183.865V52H181.865ZM176.24 52L174.595 53.1378L175.192 54H176.24V52ZM159.791 28.2216L161.436 27.0838L160.84 26.2216H159.791V28.2216ZM159.501 28.2216V26.2216H157.501V28.2216H159.501ZM159.501 52V54H161.501V52H159.501ZM153.178 52H151.178V54H153.178V52ZM153.178 17.0909V15.0909H151.178V17.0909H153.178ZM158.837 17.0909L160.482 15.9545L159.886 15.0909H158.837V17.0909ZM175.268 40.8864L173.623 42.0228L174.219 42.8864H175.268V40.8864ZM175.575 40.8864V42.8864H177.575V40.8864H175.575ZM175.575 17.0909V15.0909H173.575V17.0909H175.575ZM179.865 17.0909V52H183.865V17.0909H179.865ZM181.865 50H176.24V54H181.865V50ZM177.885 50.8622L161.436 27.0838L158.146 29.3594L174.595 53.1378L177.885 50.8622ZM159.791 26.2216H159.501V30.2216H159.791V26.2216ZM157.501 28.2216V52H161.501V28.2216H157.501ZM159.501 50H153.178V54H159.501V50ZM155.178 52V17.0909H151.178V52H155.178ZM153.178 19.0909H158.837V15.0909H153.178V19.0909ZM157.191 18.2274L173.623 42.0228L176.914 39.7499L160.482 15.9545L157.191 18.2274ZM175.268 42.8864H175.575V38.8864H175.268V42.8864ZM177.575 40.8864V17.0909H173.575V40.8864H177.575ZM175.575 19.0909H181.865V15.0909H175.575V19.0909ZM193.239 52V54H194.677L195.135 52.6359L193.239 52ZM186.489 52L184.602 51.3359L183.664 54H186.489V52ZM198.778 17.0909V15.0909H197.362L196.892 16.4268L198.778 17.0909ZM206.585 17.0909L208.471 16.4259L208.001 15.0909H206.585V17.0909ZM218.892 52V54H221.718L220.778 51.335L218.892 52ZM212.142 52L210.246 52.637L210.704 54H212.142V52ZM202.818 24.25L204.714 23.613L204.256 22.25H202.818V24.25ZM202.545 24.25V22.25H201.107L200.649 23.6141L202.545 24.25ZM193.46 38.3125V36.3125H191.46V38.3125H193.46ZM211.869 38.3125H213.869V36.3125H211.869V38.3125ZM211.869 43.392V45.392H213.869V43.392H211.869ZM193.46 43.392H191.46V45.392H193.46V43.392ZM193.239 50H186.489V54H193.239V50ZM188.375 52.6641L200.665 17.7551L196.892 16.4268L184.602 51.3359L188.375 52.6641ZM198.778 19.0909H206.585V15.0909H198.778V19.0909ZM204.699 17.7559L217.006 52.665L220.778 51.335L208.471 16.4259L204.699 17.7559ZM218.892 50H212.142V54H218.892V50ZM214.038 51.363L204.714 23.613L200.922 24.887L210.246 52.637L214.038 51.363ZM202.818 22.25H202.545V26.25H202.818V22.25ZM200.649 23.6141L191.342 51.3641L195.135 52.6359L204.442 24.8859L200.649 23.6141ZM193.46 40.3125H211.869V36.3125H193.46V40.3125ZM209.869 38.3125V43.392H213.869V38.3125H209.869ZM211.869 41.392H193.46V45.392H211.869V41.392ZM195.46 43.392V38.3125H191.46V43.392H195.46ZM223.49 17.0909V15.0909H221.49V17.0909H223.49ZM231.229 17.0909L233.079 16.3327L232.571 15.0909H231.229V17.0909ZM241.592 42.3864L239.742 43.1446L240.25 44.3864H241.592V42.3864ZM242.001 42.3864V44.3864H243.343L243.852 43.1446L242.001 42.3864ZM252.365 17.0909V15.0909H251.023L250.514 16.3327L252.365 17.0909ZM260.104 17.0909H262.104V15.0909H260.104V17.0909ZM260.104 52V54H262.104V52H260.104ZM254.036 52H252.036V54H254.036V52ZM254.036 28.017H256.036V26.017H254.036V28.017ZM253.712 28.017V26.017H252.363L251.857 27.2679L253.712 28.017ZM244.064 51.8977V53.8977H245.413L245.918 52.6469L244.064 51.8977ZM239.53 51.8977L237.675 52.6455L238.18 53.8977H239.53V51.8977ZM229.882 27.9659L231.737 27.2181L231.232 25.9659H229.882V27.9659ZM229.558 27.9659V25.9659H227.558V27.9659H229.558ZM229.558 52V54H231.558V52H229.558ZM223.49 52H221.49V54H223.49V52ZM223.49 19.0909H231.229V15.0909H223.49V19.0909ZM229.378 17.8491L239.742 43.1446L243.443 41.6281L233.079 16.3327L229.378 17.8491ZM241.592 44.3864H242.001V40.3864H241.592V44.3864ZM243.852 43.1446L254.216 17.8491L250.514 16.3327L240.151 41.6281L243.852 43.1446ZM252.365 19.0909H260.104V15.0909H252.365V19.0909ZM258.104 17.0909V52H262.104V17.0909H258.104ZM260.104 50H254.036V54H260.104V50ZM256.036 52V28.017H252.036V52H256.036ZM254.036 26.017H253.712V30.017H254.036V26.017ZM251.857 27.2679L242.21 51.1486L245.918 52.6469L255.566 28.7662L251.857 27.2679ZM244.064 49.8977H239.53V53.8977H244.064V49.8977ZM241.385 51.1499L231.737 27.2181L228.027 28.7137L237.675 52.6455L241.385 51.1499ZM229.882 25.9659H229.558V29.9659H229.882V25.9659ZM227.558 27.9659V52H231.558V27.9659H227.558ZM229.558 50H223.49V54H229.558V50ZM225.49 52V17.0909H221.49V52H225.49ZM266.99 52H264.99V54H266.99V52ZM266.99 17.0909V15.0909H264.99V17.0909H266.99ZM289.695 17.0909H291.695V15.0909H289.695V17.0909ZM289.695 22.392V24.392H291.695V22.392H289.695ZM273.314 22.392V20.392H271.314V22.392H273.314ZM273.314 31.8693H271.314V33.8693H273.314V31.8693ZM288.518 31.8693H290.518V29.8693H288.518V31.8693ZM288.518 37.1705V39.1705H290.518V37.1705H288.518ZM273.314 37.1705V35.1705H271.314V37.1705H273.314ZM273.314 46.6989H271.314V48.6989H273.314V46.6989ZM289.831 46.6989H291.831V44.6989H289.831V46.6989ZM289.831 52V54H291.831V52H289.831ZM268.99 52V17.0909H264.99V52H268.99ZM266.99 19.0909H289.695V15.0909H266.99V19.0909ZM287.695 17.0909V22.392H291.695V17.0909H287.695ZM289.695 20.392H273.314V24.392H289.695V20.392ZM271.314 22.392V31.8693H275.314V22.392H271.314ZM273.314 33.8693H288.518V29.8693H273.314V33.8693ZM286.518 31.8693V37.1705H290.518V31.8693H286.518ZM288.518 35.1705H273.314V39.1705H288.518V35.1705ZM271.314 37.1705V46.6989H275.314V37.1705H271.314ZM273.314 48.6989H289.831V44.6989H273.314V48.6989ZM287.831 46.6989V52H291.831V46.6989H287.831ZM289.831 50H266.99V54H289.831V50ZM324.834 17.0909H326.834V15.0909H324.834V17.0909ZM324.834 52V54H326.834V52H324.834ZM319.209 52L317.564 53.1378L318.16 54H319.209V52ZM302.76 28.2216L304.405 27.0838L303.808 26.2216H302.76V28.2216ZM302.47 28.2216V26.2216H300.47V28.2216H302.47ZM302.47 52V54H304.47V52H302.47ZM296.146 52H294.146V54H296.146V52ZM296.146 17.0909V15.0909H294.146V17.0909H296.146ZM301.805 17.0909L303.451 15.9545L302.855 15.0909H301.805V17.0909ZM318.237 40.8864L316.591 42.0228L317.188 42.8864H318.237V40.8864ZM318.544 40.8864V42.8864H320.544V40.8864H318.544ZM318.544 17.0909V15.0909H316.544V17.0909H318.544ZM322.834 17.0909V52H326.834V17.0909H322.834ZM324.834 50H319.209V54H324.834V50ZM320.854 50.8622L304.405 27.0838L301.115 29.3594L317.564 53.1378L320.854 50.8622ZM302.76 26.2216H302.47V30.2216H302.76V26.2216ZM300.47 28.2216V52H304.47V28.2216H300.47ZM302.47 50H296.146V54H302.47V50ZM298.146 52V17.0909H294.146V52H298.146ZM296.146 19.0909H301.805V15.0909H296.146V19.0909ZM300.16 18.2274L316.591 42.0228L319.883 39.7499L303.451 15.9545L300.16 18.2274ZM318.237 42.8864H318.544V38.8864H318.237V42.8864ZM320.544 40.8864V17.0909H316.544V40.8864H320.544ZM318.544 19.0909H324.834V15.0909H318.544V19.0909ZM330.19 22.392H328.19V24.392H330.19V22.392ZM330.19 17.0909V15.0909H328.19V17.0909H330.19ZM358.043 17.0909H360.043V15.0909H358.043V17.0909ZM358.043 22.392V24.392H360.043V22.392H358.043ZM347.253 22.392V20.392H345.253V22.392H347.253ZM347.253 52V54H349.253V52H347.253ZM340.98 52H338.98V54H340.98V52ZM340.98 22.392H342.98V20.392H340.98V22.392ZM332.19 22.392V17.0909H328.19V22.392H332.19ZM330.19 19.0909H358.043V15.0909H330.19V19.0909ZM356.043 17.0909V22.392H360.043V17.0909H356.043ZM358.043 20.392H347.253V24.392H358.043V20.392ZM345.253 22.392V52H349.253V22.392H345.253ZM347.253 50H340.98V54H347.253V50ZM342.98 52V22.392H338.98V52H342.98ZM340.98 20.392H330.19V24.392H340.98V20.392Z" fill="white" mask="url(#path-2-outside-2_499_379)"/>
<defs>
<filter id="filter0_f_499_379" x="0.2" y="0.2" width="373.734" height="69.5141" filterUnits="userSpaceOnUse" color-interpolation-filters="sRGB">
<feFlood flood-opacity="0" result="BackgroundImageFix"/>
<feBlend mode="normal" in="SourceGraphic" in2="BackgroundImageFix" result="shape"/>
<feGaussianBlur stdDeviation="5.9" result="effect1_foregroundBlur_499_379"/>
</filter>
</defs>
</svg>
